{"glyphs":{"0":{"ha":739,"x_min":81,"x_max":658,"o":"m 81 289 l 81 719 q 159 944 81 872 q 369 1015 238 1015 q 580 944 501 1015 q 658 719 658 872 l 658 289 q 580 63 658 135 q 369 -8 501 -8 q 159 63 238 -8 q 81 289 81 135 m 172 289 q 369 76 172 76 q 567 289 567 76 l 567 719 q 369 931 567 931 q 172 719 172 931 l 172 289 m 319 503 q 334 539 319 525 q 371 553 349 553 q 406 539 392 553 q 421 503 421 525 q 406 467 421 482 q 371 451 392 451 q 334 467 349 451 q 319 503 319 482 z "},"1":{"ha":324,"x_min":18,"x_max":228,"o":"m 18 793 q 39 835 18 817 l 153 996 q 188 1017 168 1017 q 215 1007 203 1017 q 228 982 228 997 l 228 36 q 214 10 228 19 q 182 0 200 0 q 149 10 163 0 q 136 36 136 19 l 136 860 l 81 769 q 54 753 69 753 q 28 765 39 753 q 18 793 18 776 z "},"2":{"ha":660,"x_min":47,"x_max":618,"o":"m 47 36 l 47 171 q 96 294 47 235 q 214 404 144 354 l 350 503 q 468 616 419 553 q 517 746 517 679 q 467 874 517 818 q 329 929 418 929 q 208 887 254 929 q 161 765 161 844 q 148 739 161 750 q 113 728 135 728 q 71 785 71 728 q 146 950 71 885 q 332 1015 221 1015 q 530 939 451 1015 q 608 749 608 863 q 574 615 608 679 q 488 507 539 551 q 375 417 436 463 l 263 336 q 176 258 211 301 q 142 171 142 214 l 142 85 l 585 85 q 608 72 599 85 q 618 43 618 60 q 608 13 618 26 q 585 0 599 0 l 90 0 q 61 10 75 0 q 47 36 47 21 z "},"3":{"ha":676,"x_min":39,"x_max":617,"o":"m 39 221 q 49 259 39 249 q 82 269 58 269 q 129 231 129 269 q 176 125 129 174 q 325 76 222 76 q 525 285 525 76 l 525 311 q 473 450 525 404 q 328 496 421 496 q 292 535 292 496 q 326 575 292 575 q 457 615 414 575 q 500 753 500 654 q 460 888 500 844 q 332 932 419 932 q 194 887 235 932 q 154 783 154 842 q 110 739 154 739 q 73 750 83 739 q 63 792 63 761 q 75 860 63 825 q 115 931 88 894 q 200 992 143 968 q 335 1015 257 1015 q 589 771 589 1015 q 558 621 589 681 q 475 536 526 561 q 617 311 617 479 l 617 285 q 537 63 617 133 q 326 -8 457 -8 q 114 63 189 -8 q 39 221 39 133 z "},"4":{"ha":617,"x_min":11,"x_max":603,"o":"m 11 276 q 17 300 11 290 l 365 988 q 408 1015 379 1015 q 438 1004 424 1015 q 453 978 453 993 q 449 960 453 969 l 128 326 l 400 326 l 400 594 q 446 629 400 629 q 478 620 464 629 q 492 594 492 611 l 492 326 l 568 326 q 594 313 585 326 q 603 283 603 300 q 593 252 603 265 q 568 239 583 239 l 492 239 l 492 36 q 478 10 492 19 q 446 0 464 0 q 413 10 426 0 q 400 36 400 19 l 400 239 l 47 239 q 11 276 11 239 z "},"5":{"ha":658,"x_min":39,"x_max":615,"o":"m 39 228 q 83 274 39 274 q 131 235 131 274 q 186 119 131 161 q 326 76 242 76 q 472 128 421 76 q 524 286 524 181 l 524 313 q 472 467 524 415 q 328 518 421 518 l 135 518 q 88 553 88 518 q 88 567 88 556 q 89 581 89 578 l 117 981 q 146 1015 121 1015 l 535 1015 q 565 974 565 1015 q 535 931 565 931 l 199 931 l 176 597 l 328 597 q 538 529 460 597 q 615 313 615 461 l 615 286 q 537 63 615 135 q 328 -8 458 -8 q 117 60 194 -8 q 39 228 39 128 z "},"6":{"ha":718,"x_min":81,"x_max":658,"o":"m 81 289 l 81 719 q 160 944 81 872 q 372 1015 239 1015 q 582 945 506 1015 q 658 778 658 875 q 615 736 658 736 q 567 774 567 736 q 510 888 567 844 q 369 931 453 931 q 172 719 172 931 l 172 507 q 382 599 240 599 q 658 322 658 599 l 658 289 q 580 63 658 135 q 369 -8 501 -8 q 159 63 238 -8 q 81 289 81 135 m 172 285 q 369 74 172 74 q 567 285 567 74 l 567 318 q 369 519 567 519 q 172 331 172 519 l 172 285 z "},"7":{"ha":638,"x_min":38,"x_max":615,"o":"m 38 771 l 38 981 q 51 1004 38 993 q 79 1015 64 1015 l 572 1015 q 601 1004 588 1015 q 615 981 615 993 l 615 861 q 601 821 615 842 l 189 15 q 158 -3 181 -3 q 119 10 136 -3 q 103 42 103 22 q 108 61 103 47 l 524 856 l 524 931 l 129 931 l 129 771 q 115 747 129 757 q 83 736 101 736 q 51 747 64 736 q 38 771 38 757 z "},"8":{"ha":697,"x_min":60,"x_max":638,"o":"m 60 278 l 60 294 q 211 554 60 493 q 88 772 88 606 q 349 1015 88 1015 q 610 772 610 1015 q 488 554 610 606 q 638 294 638 494 l 638 278 q 558 61 638 131 q 349 -8 479 -8 q 139 61 218 -8 q 60 278 60 131 m 151 285 q 203 126 151 179 q 350 72 256 72 q 495 126 444 72 q 546 285 546 179 l 546 304 q 349 511 546 511 q 151 304 151 511 l 151 285 m 178 765 q 349 593 178 593 q 521 765 521 593 q 349 935 521 935 q 178 765 178 935 z "},"9":{"ha":718,"x_min":60,"x_max":638,"o":"m 60 229 q 103 272 60 272 q 150 233 150 272 q 207 119 150 163 q 347 76 264 76 q 546 289 546 76 l 546 501 q 336 408 479 408 q 60 686 60 408 l 60 719 q 138 944 60 872 q 347 1015 217 1015 q 558 944 479 1015 q 638 719 638 872 l 638 289 q 558 63 638 135 q 346 -8 478 -8 q 136 62 213 -8 q 60 229 60 132 m 151 689 q 201 535 151 583 q 349 488 251 488 q 546 676 546 488 l 546 722 q 494 882 546 829 q 347 935 442 935 q 151 722 151 935 l 151 689 z "},"\u0000":{"ha":0,"x_min":0,"x_max":0,"o":""},"\r":{"ha":0,"x_min":0,"x_max":0,"o":""}," ":{"ha":278,"x_min":0,"x_max":0,"o":""},"!":{"ha":285,"x_min":79,"x_max":206,"o":"m 79 56 q 97 102 79 83 q 143 121 115 121 q 188 102 169 121 q 206 56 206 83 q 187 11 206 31 q 143 -8 168 -8 q 97 10 115 -8 q 79 56 79 29 m 89 979 q 104 1019 89 1004 q 142 1033 119 1033 q 179 1019 164 1033 q 194 979 194 1004 q 187 620 194 865 q 179 261 179 375 q 167 238 179 246 q 142 229 156 229 q 106 261 106 229 q 97 620 106 375 q 89 979 89 865 z "},"\"":{"ha":375,"x_min":53,"x_max":322,"o":"m 53 1036 q 67 1058 53 1049 q 96 1067 81 1067 q 127 1058 113 1067 q 142 1036 142 1049 l 128 832 q 96 800 128 800 q 67 832 67 800 l 53 1036 m 233 1036 q 247 1058 233 1049 q 276 1067 261 1067 q 308 1058 293 1067 q 322 1036 322 1049 l 308 832 q 276 800 308 800 q 247 832 247 800 l 233 1036 z "},"#":{"ha":810,"x_min":36,"x_max":775,"o":"m 36 386 q 44 412 36 401 q 64 422 51 422 l 217 422 l 250 644 l 117 644 q 83 681 83 644 q 111 715 83 715 l 264 715 l 304 969 q 339 990 308 990 q 383 950 383 990 l 346 715 l 522 715 l 563 969 q 597 990 567 990 q 642 950 642 990 l 604 715 l 740 715 q 764 706 753 715 q 775 681 775 696 q 766 656 775 667 q 746 644 757 644 l 593 644 l 557 422 l 693 422 q 717 412 706 422 q 728 386 728 401 q 719 362 728 372 q 699 351 710 351 l 544 351 l 501 75 q 463 47 494 47 q 432 58 444 47 q 419 88 419 68 l 460 351 l 286 351 l 243 76 q 230 55 242 63 q 206 47 218 47 q 175 58 188 47 q 163 88 163 68 l 201 351 l 69 351 q 36 386 36 351 m 299 422 l 474 422 l 508 644 l 333 644 l 299 422 z "},"$":{"ha":693,"x_min":54,"x_max":632,"o":"m 54 154 q 67 188 54 171 q 96 206 81 206 q 122 189 106 206 l 161 150 q 228 111 182 129 q 332 92 274 93 l 332 496 l 294 510 l 260 522 q 222 539 232 533 l 192 556 q 159 576 168 567 q 133 601 150 586 q 110 632 117 617 l 94 667 q 83 709 86 686 q 79 758 79 732 q 152 934 79 878 q 332 997 225 990 l 332 1040 q 341 1059 332 1051 q 364 1067 350 1067 q 385 1058 375 1067 q 396 1040 396 1050 l 396 1000 q 542 973 476 997 q 607 915 607 949 q 595 881 607 899 q 567 864 583 864 q 510 888 563 864 q 396 915 457 913 l 396 571 q 483 533 449 551 q 556 483 518 515 q 613 399 593 450 q 632 281 632 349 q 569 91 632 160 q 396 8 506 22 l 396 -46 q 385 -64 396 -56 q 364 -72 375 -72 q 341 -65 350 -72 q 332 -46 332 -57 l 332 4 q 133 57 213 6 q 54 154 54 108 m 167 767 q 209 657 167 693 q 335 592 251 621 l 335 914 q 167 767 167 900 m 392 94 q 543 272 543 118 q 504 399 543 356 q 392 474 465 443 l 392 94 z "},"%":{"ha":1051,"x_min":56,"x_max":996,"o":"m 56 646 l 56 857 q 103 977 56 939 q 228 1015 150 1015 q 353 977 306 1015 q 400 857 400 939 l 400 646 q 353 526 400 564 q 228 488 306 488 q 103 526 150 488 q 56 646 56 564 m 126 646 q 228 550 126 550 q 331 646 331 550 l 331 857 q 228 953 331 953 q 126 857 126 953 l 126 646 m 231 -3 q 235 14 231 6 l 764 1051 q 792 1068 771 1068 q 818 1057 806 1068 q 831 1031 831 1046 q 826 1013 831 1021 l 300 -17 q 267 -37 289 -37 q 242 -27 253 -37 q 231 -3 231 -17 m 651 154 l 651 365 q 699 485 651 446 q 824 524 746 524 q 949 485 901 524 q 996 365 996 446 l 996 154 q 949 34 996 72 q 824 -4 901 -4 q 699 34 746 -4 q 651 154 651 72 m 722 154 q 824 58 722 58 q 926 154 926 58 l 926 365 q 824 461 926 461 q 722 365 722 461 l 722 154 z "},"&":{"ha":847,"x_min":47,"x_max":824,"o":"m 47 282 q 101 451 47 381 q 236 558 156 522 q 153 676 182 621 q 124 803 124 732 q 196 976 124 913 q 375 1039 268 1039 q 539 992 476 1039 q 601 906 601 944 q 589 876 601 888 q 558 864 576 864 q 533 879 547 864 q 503 913 518 894 q 456 947 489 932 q 379 963 422 963 q 261 917 304 963 q 218 797 218 872 q 239 706 218 751 q 283 631 260 660 q 347 557 306 603 l 629 249 q 676 501 669 340 q 686 531 678 522 q 718 539 694 539 q 757 490 757 539 q 688 186 757 322 l 815 49 q 824 29 824 39 q 810 2 824 14 q 782 -10 797 -10 q 756 3 768 -10 l 643 124 q 365 -14 542 -14 q 133 72 219 -14 q 47 282 47 158 m 140 290 q 204 133 140 197 q 378 69 268 69 q 586 182 517 69 l 288 500 q 238 467 257 482 q 192 427 218 453 q 153 367 167 401 q 140 290 140 332 z "},"'":{"ha":194,"x_min":53,"x_max":142,"o":"m 53 1036 q 67 1058 53 1049 q 96 1067 81 1067 q 127 1058 113 1067 q 142 1036 142 1049 l 128 832 q 96 800 128 800 q 67 832 67 800 l 53 1036 z "},"(":{"ha":415,"x_min":86,"x_max":389,"o":"m 86 210 l 86 811 q 162 992 86 917 q 344 1067 238 1067 q 389 1026 389 1067 q 379 996 389 1008 q 356 983 369 983 q 226 931 275 983 q 178 811 178 879 l 178 210 q 207 114 178 150 q 273 67 236 78 q 356 56 310 56 q 389 14 389 56 q 343 -28 389 -28 q 158 35 231 -28 q 86 210 86 97 z "},")":{"ha":415,"x_min":26,"x_max":329,"o":"m 72 -28 q 26 14 26 -28 q 60 56 26 56 q 142 67 106 56 q 208 114 179 78 q 238 210 238 150 l 238 811 q 189 931 238 879 q 60 983 140 983 q 36 995 46 983 q 26 1026 26 1007 q 71 1067 26 1067 q 253 992 178 1067 q 329 811 329 917 l 329 210 q 257 35 329 97 q 72 -28 185 -28 z "},"*":{"ha":599,"x_min":46,"x_max":553,"o":"m 46 822 q 57 850 46 838 q 85 863 68 863 q 94 861 90 863 l 269 800 l 263 981 q 300 1015 264 1015 q 338 981 336 1015 l 331 799 l 506 861 q 518 863 510 863 q 542 849 532 863 q 553 821 553 836 q 529 789 553 794 l 356 739 l 468 588 q 474 568 474 581 q 461 540 474 551 q 432 529 449 529 q 406 543 414 529 l 300 699 l 194 542 q 171 529 186 529 q 142 540 157 529 q 126 567 126 550 q 135 589 126 578 l 246 736 l 69 789 q 46 822 46 794 z "},"+":{"ha":599,"x_min":43,"x_max":557,"o":"m 43 333 q 53 363 43 351 q 76 375 63 375 l 260 375 l 260 556 q 272 581 260 569 q 300 592 283 592 q 328 581 317 592 q 340 556 340 569 l 340 375 l 521 375 q 546 363 535 375 q 557 333 557 350 q 546 306 557 317 q 521 294 535 294 l 340 294 l 340 111 q 329 87 340 96 q 300 78 318 78 q 272 88 283 78 q 260 111 260 97 l 260 294 l 76 294 q 43 333 43 294 z "},",":{"ha":238,"x_min":56,"x_max":182,"o":"m 56 56 q 74 102 56 83 q 118 121 92 121 q 163 103 143 121 q 182 56 182 85 q 129 -100 182 33 q 101 -117 121 -117 q 78 -109 89 -117 q 68 -90 68 -101 q 69 -76 68 -82 l 97 -4 q 56 56 56 13 z "},"-":{"ha":574,"x_min":72,"x_max":503,"o":"m 72 333 q 82 363 72 351 q 107 375 92 375 l 468 375 q 492 363 482 375 q 503 333 503 351 q 492 306 503 317 q 468 294 482 294 l 107 294 q 72 333 72 294 z "},".":{"ha":238,"x_min":56,"x_max":182,"o":"m 56 56 q 74 102 56 83 q 119 121 92 121 q 163 101 144 121 q 182 56 182 82 q 163 11 182 31 q 119 -8 144 -8 q 74 10 92 -8 q 56 56 56 29 z "},"/":{"ha":658,"x_min":28,"x_max":629,"o":"m 28 -3 q 32 14 28 6 l 561 1051 q 589 1068 568 1068 q 616 1057 603 1068 q 629 1031 629 1046 q 624 1013 629 1019 l 97 -17 q 64 -37 89 -37 q 39 -27 50 -37 q 28 -3 28 -17 z "},":":{"ha":282,"x_min":78,"x_max":204,"o":"m 78 56 q 96 102 78 83 q 142 121 114 121 q 185 101 167 121 q 204 56 204 82 q 185 11 204 31 q 142 -8 167 -8 q 96 10 114 -8 q 78 56 78 29 m 78 522 q 96 569 78 550 q 142 588 114 588 q 185 568 167 588 q 204 522 204 549 q 185 478 204 497 q 142 458 167 458 q 96 477 114 458 q 78 522 78 496 z "},";":{"ha":290,"x_min":81,"x_max":211,"o":"m 81 56 q 99 102 81 83 q 143 121 117 121 q 188 103 168 121 q 207 56 207 85 q 154 -100 207 33 q 126 -117 146 -117 q 103 -109 114 -117 q 93 -90 93 -101 q 94 -76 93 -82 l 122 -4 q 81 56 81 13 m 85 522 q 103 569 85 550 q 149 588 121 588 q 192 568 174 588 q 211 522 211 549 q 192 478 211 497 q 149 458 174 458 q 103 477 121 458 q 85 522 85 496 z "},"<":{"ha":556,"x_min":35,"x_max":490,"o":"m 57 347 q 35 385 35 361 q 57 424 35 408 l 431 671 q 447 676 438 676 q 476 663 463 676 q 490 633 490 650 q 475 604 490 614 l 144 385 l 475 167 q 490 138 490 157 q 476 108 490 121 q 447 94 463 94 q 431 100 438 94 l 57 347 z "},"=":{"ha":603,"x_min":92,"x_max":511,"o":"m 92 231 q 101 259 92 247 q 125 271 111 271 l 476 271 q 501 259 490 271 q 511 231 511 247 q 501 202 511 214 q 476 190 490 190 l 125 190 q 101 201 110 190 q 92 231 92 213 m 92 513 q 101 541 92 529 q 125 553 111 553 l 476 553 q 501 541 490 553 q 511 513 511 529 q 501 484 511 496 q 476 472 490 472 l 125 472 q 101 483 110 472 q 92 513 92 494 z "},">":{"ha":554,"x_min":65,"x_max":521,"o":"m 65 138 q 81 167 65 157 l 411 385 l 81 604 q 65 633 65 614 q 79 663 65 650 q 108 676 93 676 q 125 671 118 676 l 499 424 q 521 385 521 408 q 499 347 521 361 l 125 100 q 108 94 118 94 q 79 108 93 94 q 65 138 65 121 z "},"?":{"ha":553,"x_min":32,"x_max":507,"o":"m 32 926 q 95 998 32 963 q 244 1033 158 1033 q 438 964 369 1033 q 507 786 507 894 q 484 672 507 726 q 435 588 461 617 q 371 522 410 558 q 322 472 332 485 q 282 394 290 438 q 274 261 274 351 q 236 229 274 229 q 199 269 199 229 q 214 427 199 376 q 258 511 229 478 q 308 558 269 522 q 367 617 346 593 q 408 685 388 640 q 428 779 428 729 q 379 910 428 863 q 240 957 331 957 q 151 940 186 957 q 97 906 115 922 q 67 889 79 889 q 43 899 54 889 q 32 926 32 910 m 172 56 q 191 101 172 82 q 236 121 210 121 q 281 101 263 121 q 300 56 300 82 q 281 11 300 31 q 236 -8 263 -8 q 191 11 210 -8 q 172 56 172 31 z "},"@":{"ha":994,"x_min":74,"x_max":938,"o":"m 74 301 q 182 643 74 511 q 510 775 290 775 q 826 659 715 775 q 938 328 938 543 q 923 188 938 249 q 869 86 908 128 q 769 44 829 44 q 681 71 718 44 q 635 135 643 97 q 558 76 594 94 q 464 57 521 57 q 338 94 386 57 q 290 208 290 131 q 358 331 290 297 q 563 365 426 365 l 622 365 l 622 392 q 590 481 622 453 q 486 510 557 510 q 396 492 433 510 q 354 475 358 475 q 333 488 342 475 q 325 514 325 501 q 381 562 325 542 q 500 582 436 582 q 644 535 592 582 q 697 404 697 489 l 697 174 q 724 124 701 143 q 775 104 747 104 q 868 318 868 104 q 778 606 868 506 q 507 707 688 707 q 334 674 407 707 q 220 583 261 642 q 160 456 179 525 q 142 303 142 386 q 158 160 142 225 q 212 40 175 94 q 313 -47 249 -15 q 465 -78 378 -78 q 599 -56 538 -78 q 661 -35 660 -35 q 682 -45 674 -35 q 690 -65 690 -56 q 614 -119 690 -94 q 456 -143 538 -143 q 184 -30 294 -143 q 74 301 74 83 m 368 208 q 397 140 368 163 q 474 118 426 118 q 582 154 539 118 q 625 232 625 190 l 625 308 l 568 308 q 418 288 468 308 q 368 208 368 268 z "},"A":{"ha":750,"x_min":29,"x_max":721,"o":"m 29 39 q 31 49 29 46 l 321 992 q 375 1024 331 1024 q 431 992 419 1024 l 719 49 q 720 44 719 47 q 721 40 721 42 q 703 12 721 24 q 665 0 685 0 q 631 24 639 0 l 567 238 l 182 238 l 118 24 q 82 0 113 0 q 46 11 63 0 q 29 39 29 22 m 206 317 l 543 317 l 375 876 l 206 317 z "},"B":{"ha":747,"x_min":106,"x_max":683,"o":"m 106 35 l 106 981 q 118 1006 106 997 q 147 1015 131 1015 l 375 1015 q 486 1006 439 1015 q 574 971 533 996 q 637 898 615 946 q 658 779 658 850 q 626 633 658 693 q 540 550 594 574 q 647 467 610 522 q 683 311 683 411 l 683 286 q 608 68 683 136 q 408 0 533 0 l 147 0 q 117 10 128 0 q 106 35 106 21 m 196 85 l 397 85 q 592 290 592 85 l 592 314 q 397 511 592 511 l 196 511 l 196 85 m 196 590 l 378 590 q 522 631 476 590 q 567 769 567 672 q 517 895 567 860 q 372 931 467 931 l 196 931 l 196 590 z "},"C":{"ha":726,"x_min":94,"x_max":672,"o":"m 94 289 l 94 719 q 176 943 94 871 q 386 1015 257 1015 q 595 948 518 1015 q 672 783 672 881 q 662 739 672 750 q 626 728 651 728 q 581 763 583 728 q 575 803 579 783 q 558 847 571 822 q 526 889 546 871 q 469 919 506 907 q 386 931 433 931 q 186 719 186 931 l 186 289 q 392 76 186 76 q 489 92 450 76 q 546 139 528 108 q 570 191 564 169 q 581 247 576 213 q 626 283 585 283 q 662 272 651 283 q 672 226 672 260 q 594 60 672 128 q 382 -8 515 -8 q 174 64 254 -8 q 94 289 94 136 z "},"D":{"ha":778,"x_min":106,"x_max":683,"o":"m 106 35 l 106 982 q 117 1006 106 996 q 147 1015 129 1015 l 393 1015 q 604 944 525 1015 q 683 719 683 872 l 683 297 q 604 72 683 143 q 393 0 525 0 l 147 0 q 117 10 129 0 q 106 35 106 21 m 197 85 l 393 85 q 540 138 488 85 q 592 297 592 192 l 592 719 q 540 878 592 825 q 393 931 488 931 l 197 931 l 197 85 z "},"E":{"ha":706,"x_min":106,"x_max":676,"o":"m 106 36 l 106 981 q 118 1006 106 997 q 147 1015 131 1015 l 642 1015 q 676 975 676 1015 q 667 944 676 957 q 642 931 658 931 l 197 931 l 197 549 l 415 549 q 441 537 432 549 q 450 507 450 525 q 415 469 450 469 l 197 469 l 197 85 l 642 85 q 667 72 657 85 q 676 42 676 60 q 642 0 676 0 l 147 0 q 118 10 131 0 q 106 36 106 19 z "},"F":{"ha":686,"x_min":106,"x_max":674,"o":"m 106 35 l 106 981 q 118 1006 106 997 q 147 1015 131 1015 l 639 1015 q 665 1003 656 1015 q 674 975 674 992 q 665 944 674 957 q 639 931 656 931 l 197 931 l 197 549 l 417 549 q 441 537 432 549 q 450 507 450 525 q 417 469 450 469 l 197 469 l 197 35 q 183 9 197 18 q 151 0 169 0 q 106 35 106 0 z "},"G":{"ha":751,"x_min":94,"x_max":672,"o":"m 94 289 l 94 719 q 173 944 94 872 q 382 1015 251 1015 q 593 948 514 1015 q 672 775 672 881 q 626 728 672 728 q 581 763 582 728 q 383 931 561 931 q 186 719 186 931 l 186 289 q 238 129 186 182 q 383 76 289 76 q 529 129 478 76 q 581 289 581 182 l 581 454 l 394 454 q 370 466 379 454 q 361 494 361 478 q 370 522 361 510 q 394 533 379 533 l 639 533 q 672 497 672 533 l 672 289 q 594 63 672 135 q 383 -8 515 -8 q 173 63 251 -8 q 94 289 94 135 z "},"H":{"ha":796,"x_min":106,"x_max":690,"o":"m 106 36 l 106 982 q 151 1015 106 1015 q 197 982 197 1015 l 197 567 l 599 567 l 599 982 q 644 1015 599 1015 q 690 982 690 1015 l 690 36 q 676 10 690 19 q 644 0 663 0 q 612 10 625 0 q 599 36 599 19 l 599 488 l 197 488 l 197 36 q 183 10 197 19 q 151 0 169 0 q 119 10 132 0 q 106 36 106 19 z "},"I":{"ha":303,"x_min":106,"x_max":197,"o":"m 106 36 l 106 982 q 151 1015 106 1015 q 197 982 197 1015 l 197 36 q 183 10 197 19 q 151 0 169 0 q 119 10 132 0 q 106 36 106 19 z "},"J":{"ha":711,"x_min":32,"x_max":610,"o":"m 32 236 q 76 283 32 283 q 124 247 124 283 q 177 122 124 168 q 321 76 231 76 q 467 129 415 76 q 518 289 518 182 l 518 931 l 322 931 q 297 944 306 931 q 288 975 288 957 q 297 1003 288 992 q 322 1015 306 1015 l 567 1015 q 610 981 610 1015 l 610 289 q 531 63 610 135 q 324 -8 453 -8 q 112 60 192 -8 q 32 236 32 129 z "},"K":{"ha":725,"x_min":106,"x_max":719,"o":"m 106 36 l 106 982 q 151 1015 106 1015 q 197 982 197 1015 l 197 490 l 599 1001 q 628 1015 608 1015 q 661 1000 644 1015 q 678 968 678 985 q 671 947 678 956 l 372 576 l 714 63 q 719 44 719 51 q 703 12 719 26 q 667 -3 686 -3 q 632 18 647 -3 l 311 500 l 197 356 l 197 36 q 183 10 197 19 q 151 0 169 0 q 119 10 132 0 q 106 36 106 19 z "},"L":{"ha":643,"x_min":106,"x_max":624,"o":"m 106 36 l 106 982 q 151 1015 106 1015 q 197 982 197 1015 l 197 85 l 593 85 q 624 43 624 85 q 593 0 624 0 l 147 0 q 118 10 131 0 q 106 36 106 19 z "},"M":{"ha":928,"x_min":106,"x_max":822,"o":"m 106 36 l 106 971 q 151 1015 106 1015 q 225 951 192 1015 l 464 490 l 703 951 q 776 1015 736 1015 q 822 971 822 1015 l 822 36 q 809 10 822 19 q 776 0 796 0 q 744 10 758 0 q 731 36 731 19 l 731 817 l 500 381 q 463 351 485 351 q 426 381 442 351 l 197 821 l 197 36 q 183 10 197 19 q 151 0 169 0 q 119 10 132 0 q 106 36 106 19 z "},"N":{"ha":796,"x_min":106,"x_max":690,"o":"m 106 36 l 106 981 q 151 1015 106 1015 q 224 951 190 1015 l 599 213 l 599 982 q 644 1015 599 1015 q 690 982 690 1015 l 690 36 q 676 10 690 19 q 644 0 663 0 q 583 53 610 0 l 197 804 l 197 36 q 183 10 197 19 q 151 0 169 0 q 119 10 132 0 q 106 36 106 19 z "},"O":{"ha":767,"x_min":94,"x_max":672,"o":"m 94 289 l 94 719 q 173 944 94 872 q 383 1015 251 1015 q 594 944 515 1015 q 672 719 672 872 l 672 289 q 594 63 672 135 q 383 -8 515 -8 q 173 63 251 -8 q 94 289 94 135 m 186 289 q 383 76 186 76 q 581 289 581 76 l 581 719 q 383 931 581 931 q 186 719 186 931 l 186 289 z "},"P":{"ha":732,"x_min":106,"x_max":686,"o":"m 106 36 l 106 982 q 144 1015 106 1013 l 400 1015 q 608 944 531 1015 q 686 721 686 874 l 686 707 q 608 483 686 554 q 397 411 529 411 l 197 411 l 197 36 q 183 10 197 19 q 151 0 169 0 q 119 10 132 0 q 106 36 106 19 m 197 490 l 397 490 q 543 543 492 490 q 594 703 594 596 l 594 719 q 397 931 594 931 l 197 931 l 197 490 z "},"Q":{"ha":767,"x_min":94,"x_max":672,"o":"m 94 289 l 94 719 q 173 944 94 872 q 383 1015 251 1015 q 594 944 515 1015 q 672 719 672 872 l 672 289 q 604 74 672 146 q 419 -7 536 1 l 419 -117 q 409 -142 419 -133 q 385 -151 399 -151 q 359 -142 369 -151 q 349 -117 349 -133 l 349 -7 q 163 73 231 1 q 94 289 94 144 m 186 289 q 349 81 186 99 l 349 183 q 385 217 349 217 q 419 183 419 217 l 419 81 q 581 289 581 100 l 581 719 q 383 931 581 931 q 186 719 186 931 l 186 289 z "},"R":{"ha":735,"x_min":106,"x_max":689,"o":"m 106 36 l 106 982 q 140 1015 106 1013 l 386 1015 q 603 951 521 1015 q 686 742 686 888 q 469 474 686 511 l 683 63 q 689 44 689 56 q 672 12 689 26 q 636 -3 656 -3 q 588 46 611 -3 l 374 463 l 197 463 l 197 36 q 183 10 197 19 q 151 0 169 0 q 119 10 132 0 q 106 36 106 19 m 197 542 l 386 542 q 594 738 594 542 q 386 931 594 931 l 197 931 l 197 542 z "},"S":{"ha":686,"x_min":50,"x_max":628,"o":"m 50 140 q 63 174 50 157 q 92 192 76 192 q 119 174 103 192 l 158 133 q 224 94 179 111 q 329 76 269 76 q 482 126 428 76 q 536 268 536 175 q 510 374 536 331 q 444 442 485 418 q 356 486 406 467 l 256 525 q 166 572 206 544 q 101 648 126 599 q 75 765 75 697 q 102 890 75 838 q 175 968 129 942 q 269 1006 221 994 q 369 1018 317 1018 q 528 994 454 1018 q 603 933 603 969 q 591 899 603 917 q 563 882 579 882 q 531 895 554 882 q 465 922 507 908 q 368 935 422 935 q 224 897 281 935 q 167 774 167 860 q 201 674 167 714 q 286 615 235 633 q 397 572 338 597 q 508 519 457 547 q 594 428 560 490 q 628 276 628 367 q 549 62 628 133 q 335 -10 469 -10 q 132 42 214 -10 q 50 140 50 94 z "},"T":{"ha":668,"x_min":21,"x_max":647,"o":"m 21 972 q 30 1002 21 989 q 56 1015 39 1015 l 613 1015 q 638 1003 629 1015 q 647 974 647 990 q 638 942 647 956 q 613 929 629 929 l 381 929 l 381 36 q 367 10 381 19 q 335 0 353 0 q 302 10 315 0 q 289 36 289 19 l 289 929 l 56 929 q 31 942 40 929 q 21 972 21 954 z "},"U":{"ha":786,"x_min":101,"x_max":685,"o":"m 101 289 l 101 982 q 147 1015 101 1015 q 193 982 193 1015 l 193 289 q 245 130 193 183 q 393 76 297 76 q 541 130 489 76 q 593 289 593 183 l 593 982 q 639 1015 593 1015 q 685 982 685 1015 l 685 289 q 605 63 685 135 q 393 -8 525 -8 q 181 63 261 -8 q 101 289 101 135 z "},"V":{"ha":747,"x_min":28,"x_max":719,"o":"m 28 976 q 44 1004 28 993 q 81 1015 61 1015 q 117 992 111 1015 l 374 139 l 629 992 q 664 1015 638 1015 q 701 1003 683 1015 q 719 975 719 992 q 719 971 719 974 q 718 967 718 968 l 429 25 q 374 -8 419 -8 q 319 25 329 -8 l 29 967 q 28 976 28 969 z "},"W":{"ha":1093,"x_min":31,"x_max":1063,"o":"m 31 978 q 47 1004 31 993 q 83 1015 64 1015 q 119 992 113 1015 l 360 139 l 499 657 q 547 689 506 689 q 594 657 585 689 l 733 139 l 974 992 q 1010 1015 981 1015 q 1046 1004 1029 1015 q 1063 978 1063 993 q 1061 967 1063 971 l 789 25 q 733 -8 778 -8 q 679 25 688 -8 l 547 515 l 415 25 q 361 -8 407 -8 q 306 25 315 -8 l 32 967 q 31 978 31 971 z "},"X":{"ha":672,"x_min":33,"x_max":639,"o":"m 33 43 q 39 65 33 54 l 278 508 l 43 949 q 35 978 35 964 q 51 1006 35 994 q 89 1018 67 1018 q 136 971 111 1018 l 336 589 l 536 971 q 583 1018 561 1018 q 622 1006 606 1018 q 638 978 638 994 q 629 949 638 964 l 393 508 l 633 65 q 639 43 639 54 q 622 11 639 25 q 585 -3 604 -3 q 542 42 564 -3 l 336 431 l 131 42 q 88 -3 108 -3 q 51 11 68 -3 q 33 43 33 25 z "},"Y":{"ha":738,"x_min":26,"x_max":711,"o":"m 26 976 q 42 1004 26 993 q 76 1015 58 1015 q 113 988 99 1015 l 368 481 l 625 988 q 661 1015 639 1015 q 695 1004 679 1015 q 711 976 711 993 q 706 951 711 964 l 417 400 q 414 389 414 392 l 414 36 q 401 10 414 19 q 368 0 388 0 q 336 10 350 0 q 322 36 322 19 l 322 389 q 321 400 322 396 l 33 951 q 26 976 26 964 z "},"Z":{"ha":672,"x_min":33,"x_max":640,"o":"m 33 32 q 42 64 33 47 l 504 931 l 85 931 q 60 943 69 931 q 50 974 50 956 q 59 1003 50 990 q 85 1015 68 1015 l 589 1015 q 624 986 624 1015 q 613 950 624 969 l 151 85 l 606 85 q 631 72 622 85 q 640 43 640 60 q 631 13 640 26 q 606 0 622 0 l 67 0 q 33 32 33 0 z "},"[":{"ha":421,"x_min":94,"x_max":394,"o":"m 94 6 l 94 1032 q 107 1057 94 1047 q 136 1067 119 1067 l 360 1067 q 385 1054 375 1067 q 394 1026 394 1042 q 385 996 394 1008 q 360 983 375 983 l 186 983 l 186 54 l 360 54 q 385 42 375 54 q 394 13 394 29 q 385 -17 394 -4 q 360 -29 375 -29 l 136 -29 q 107 -19 119 -29 q 94 6 94 -10 z "},"\\":{"ha":481,"x_min":32,"x_max":449,"o":"m 32 1010 q 43 1037 32 1026 q 71 1047 54 1047 q 101 1028 93 1047 l 447 46 q 449 35 449 42 q 438 10 449 21 q 411 0 426 0 q 378 24 386 0 l 33 997 q 32 1010 32 1001 z "},"]":{"ha":421,"x_min":26,"x_max":326,"o":"m 35 -17 q 31 -10 35 -17 q 26 13 26 -4 q 36 42 26 29 q 60 54 46 54 l 235 54 l 235 983 l 60 983 q 36 996 46 983 q 26 1026 26 1008 q 35 1054 26 1042 q 60 1067 44 1067 l 283 1067 q 313 1057 300 1067 q 326 1032 326 1047 l 326 6 q 313 -19 326 -10 q 283 -29 300 -29 l 60 -29 q 35 -17 44 -29 z "},"^":{"ha":372,"x_min":0,"x_max":372,"o":"m 0 858 q 18 889 0 879 l 163 967 q 186 974 174 974 q 210 967 199 974 l 354 889 q 372 857 372 881 q 364 833 372 843 q 344 824 356 824 q 331 828 343 824 l 186 904 l 42 826 l 29 822 q 9 833 18 822 q 0 858 0 844 z "},"_":{"ha":467,"x_min":-24,"x_max":490,"o":"m -24 -42 q -14 -12 -24 -24 q 11 0 -4 0 l 456 0 q 480 -12 469 0 q 490 -42 490 -24 q 480 -69 490 -58 q 456 -81 469 -81 l 11 -81 q -24 -42 -24 -81 z "},"`":{"ha":215,"x_min":0,"x_max":215,"o":"m 0 935 q 10 961 0 949 q 33 974 19 974 q 46 969 39 974 l 200 885 q 215 860 215 878 q 204 833 215 844 q 179 821 193 821 q 165 825 172 821 l 18 904 q 0 935 0 913 z "},"a":{"ha":608,"x_min":42,"x_max":526,"o":"m 42 174 q 124 322 42 281 q 365 364 207 364 l 436 364 l 436 397 q 396 530 436 474 q 272 586 356 586 q 172 566 217 586 q 124 546 126 546 q 97 561 107 546 q 88 594 88 576 q 147 643 88 621 q 275 665 207 665 q 466 590 406 665 q 526 397 526 514 l 526 36 q 514 10 526 21 q 482 0 501 0 q 452 10 464 0 q 440 36 440 21 l 440 97 q 231 -10 347 -10 q 94 37 147 -10 q 42 174 42 83 m 132 182 q 165 95 132 124 q 253 67 199 67 q 377 115 318 67 q 436 213 436 164 l 436 301 l 378 301 q 284 297 322 301 q 208 282 246 293 q 151 246 171 271 q 132 182 132 221 z "},"b":{"ha":672,"x_min":88,"x_max":611,"o":"m 88 36 l 88 1026 q 100 1050 88 1040 q 132 1060 113 1060 q 165 1050 151 1060 q 178 1026 178 1040 l 178 560 q 251 635 203 606 q 363 665 299 665 q 538 589 465 665 q 611 406 611 513 l 611 254 q 537 70 611 150 q 365 -10 463 -10 q 250 22 303 -10 q 175 97 197 53 l 175 36 q 163 11 175 22 q 132 0 150 0 q 101 11 114 0 q 88 36 88 22 m 178 211 q 230 124 178 174 q 349 74 282 74 q 469 129 418 74 q 521 254 521 185 l 521 406 q 469 528 521 474 q 347 582 418 582 q 229 533 281 582 q 178 406 178 485 l 178 211 z "},"c":{"ha":571,"x_min":64,"x_max":536,"o":"m 64 254 l 64 403 q 132 592 64 519 q 332 665 200 665 q 472 635 415 665 q 528 575 528 606 q 515 545 528 560 q 488 531 503 531 q 462 543 479 531 q 413 569 444 556 q 336 582 381 582 q 201 535 247 582 q 154 403 154 488 l 154 254 q 201 121 154 168 q 338 74 247 74 q 417 87 385 74 q 467 113 450 100 q 494 126 485 126 q 524 113 513 126 q 536 82 536 99 q 478 20 536 50 q 333 -10 419 -10 q 132 63 200 -10 q 64 254 64 135 z "},"d":{"ha":672,"x_min":63,"x_max":585,"o":"m 63 254 l 63 406 q 135 589 63 513 q 311 665 208 665 q 423 635 375 665 q 494 560 471 604 l 494 1026 q 508 1050 494 1040 q 542 1060 522 1060 q 573 1050 561 1060 q 585 1026 585 1040 l 585 36 q 572 11 585 22 q 542 0 560 0 q 512 11 525 0 q 499 36 499 22 l 499 97 q 423 22 475 53 q 308 -10 371 -10 q 136 70 210 -10 q 63 254 63 150 m 153 254 q 204 129 153 185 q 325 74 256 74 q 443 124 392 74 q 494 211 494 174 l 494 406 q 444 533 494 485 q 326 582 393 582 q 204 528 256 582 q 153 406 153 474 l 153 254 z "},"e":{"ha":636,"x_min":63,"x_max":588,"o":"m 63 254 l 63 410 q 140 590 63 514 q 328 665 218 665 q 510 593 433 665 q 588 413 588 521 q 578 350 588 374 q 549 317 569 326 q 513 304 529 307 q 467 301 496 301 l 153 301 l 153 250 q 212 119 153 168 q 364 69 271 69 q 447 83 411 69 q 501 111 482 97 q 531 125 519 125 q 558 110 546 125 q 569 82 569 96 q 510 22 569 53 q 361 -10 450 -10 q 146 63 229 -10 q 63 254 63 136 m 153 368 l 431 368 q 486 377 472 368 q 500 415 500 386 q 451 538 500 485 q 326 590 401 590 q 203 540 254 590 q 153 421 153 490 l 153 368 z "},"f":{"ha":424,"x_min":88,"x_max":408,"o":"m 88 35 l 88 804 q 161 984 88 908 q 335 1060 235 1060 l 369 1060 q 397 1047 386 1060 q 408 1018 408 1035 q 397 990 408 1001 q 369 978 386 978 l 346 978 q 227 928 275 978 q 178 811 179 879 l 178 657 l 376 657 q 399 646 390 657 q 408 621 408 635 q 399 593 408 604 q 376 582 390 582 l 178 582 l 178 35 q 164 10 178 19 q 131 0 150 0 q 100 10 113 0 q 88 35 88 19 z "},"g":{"ha":628,"x_min":35,"x_max":611,"o":"m 35 -137 q 153 14 35 -33 q 76 110 76 40 q 146 210 76 172 q 69 385 69 274 l 69 438 q 135 602 69 539 q 308 665 201 665 q 471 607 406 665 q 518 671 492 647 q 569 694 544 694 q 600 683 589 694 q 611 658 611 672 q 588 628 611 633 q 510 568 539 618 q 549 438 549 517 l 549 385 q 481 219 549 285 q 307 154 413 154 q 200 178 250 154 q 157 124 157 154 q 189 79 157 94 q 269 60 221 64 q 373 47 317 56 q 477 24 429 38 q 557 -28 525 10 q 589 -125 589 -65 q 514 -271 589 -219 q 317 -322 439 -322 q 113 -272 192 -322 q 35 -137 35 -222 m 122 -129 q 174 -221 122 -186 q 315 -256 226 -256 q 452 -221 403 -256 q 501 -128 501 -186 q 488 -79 501 -100 q 455 -47 474 -58 q 406 -28 436 -36 q 352 -17 375 -19 q 294 -11 329 -14 l 246 -6 q 122 -129 122 -44 m 157 386 q 198 268 157 314 q 310 222 239 222 q 419 268 378 222 q 460 385 460 314 l 460 438 q 419 552 460 507 q 308 597 378 597 q 198 552 239 597 q 157 438 157 507 l 157 386 z "},"h":{"ha":689,"x_min":88,"x_max":607,"o":"m 88 36 l 88 1026 q 100 1050 88 1040 q 132 1060 113 1060 q 165 1050 151 1060 q 178 1026 178 1040 l 178 560 q 249 635 201 604 q 361 665 297 665 q 534 589 461 665 q 607 406 607 513 l 607 36 q 594 10 607 19 q 561 0 581 0 q 531 10 544 0 q 517 36 517 19 l 517 406 q 465 528 517 474 q 344 582 414 582 q 228 533 279 582 q 178 406 178 485 l 178 36 q 164 11 178 22 q 132 0 150 0 q 101 11 114 0 q 88 36 88 22 z "},"i":{"ha":265,"x_min":69,"x_max":192,"o":"m 88 869 q 78 877 88 869 q 69 910 69 886 q 88 950 69 933 q 132 967 106 967 q 174 950 157 967 q 192 910 192 933 q 174 869 192 886 q 132 851 157 851 q 88 869 106 851 m 88 36 l 88 624 q 100 647 88 638 q 132 657 113 657 q 165 647 151 657 q 178 624 178 638 l 178 36 q 164 11 178 22 q 132 0 150 0 q 101 11 114 0 q 88 36 88 22 z "},"j":{"ha":265,"x_min":-51,"x_max":192,"o":"m -51 -282 q -40 -252 -51 -264 q -12 -240 -29 -240 q 68 -195 49 -240 q 88 -60 88 -150 l 88 624 q 100 648 88 639 q 132 657 113 657 q 165 647 151 657 q 178 624 178 638 l 178 -60 q -6 -322 178 -322 q -40 -310 -29 -322 q -51 -282 -51 -299 m 88 869 q 78 877 88 869 q 69 910 69 886 q 88 950 69 933 q 132 967 106 967 q 174 950 157 967 q 192 910 192 933 q 174 869 192 886 q 132 851 157 851 q 88 869 106 851 z "},"k":{"ha":633,"x_min":88,"x_max":615,"o":"m 88 36 l 88 1026 q 100 1050 88 1040 q 132 1060 113 1060 q 165 1050 151 1060 q 178 1026 178 1040 l 178 350 l 517 651 q 538 660 531 660 q 569 647 554 660 q 583 617 583 633 q 574 592 583 600 l 369 413 l 610 61 q 615 42 615 50 q 600 11 615 26 q 567 -4 585 -4 q 539 13 550 -4 l 306 356 l 178 243 l 178 36 q 165 11 178 22 q 132 0 151 0 q 101 11 114 0 q 88 36 88 22 z "},"l":{"ha":288,"x_min":99,"x_max":189,"o":"m 99 36 l 99 1026 q 111 1050 99 1040 q 143 1060 124 1060 q 176 1050 163 1060 q 189 1026 189 1040 l 189 36 q 176 11 189 22 q 143 0 163 0 q 112 11 125 0 q 99 36 99 22 z "},"m":{"ha":1083,"x_min":88,"x_max":1001,"o":"m 88 36 l 88 624 q 100 647 88 638 q 132 657 113 657 q 163 647 150 657 q 175 624 175 638 l 175 560 q 248 635 200 606 q 360 665 296 665 q 479 627 426 665 q 557 526 532 589 q 649 630 592 594 q 768 665 706 665 q 932 594 863 665 q 1001 406 1001 524 l 1001 36 q 988 11 1001 22 q 956 0 975 0 q 924 11 938 0 q 911 36 911 22 l 911 406 q 863 535 911 488 q 753 582 815 582 q 640 534 689 582 q 590 411 590 486 l 590 35 q 544 0 590 0 q 500 35 500 0 l 500 410 q 453 533 500 483 q 342 582 407 582 q 227 534 276 582 q 178 406 178 486 l 178 36 q 164 11 178 22 q 132 0 150 0 q 101 11 114 0 q 88 36 88 22 z "},"n":{"ha":689,"x_min":88,"x_max":607,"o":"m 88 36 l 88 624 q 100 648 88 639 q 132 657 113 657 q 161 647 149 657 q 174 624 174 638 l 174 560 q 246 635 197 604 q 360 665 294 665 q 533 589 460 665 q 607 406 607 513 l 607 36 q 593 10 607 19 q 561 0 579 0 q 531 10 544 0 q 517 36 517 19 l 517 406 q 465 528 517 474 q 343 582 414 582 q 228 533 278 582 q 178 406 178 485 l 178 36 q 164 11 178 22 q 132 0 150 0 q 100 11 113 0 q 88 36 88 22 z "},"o":{"ha":650,"x_min":61,"x_max":589,"o":"m 61 254 l 61 406 q 139 588 61 511 q 324 665 217 665 q 510 589 431 665 q 589 406 589 513 l 589 254 q 509 70 589 150 q 324 -10 429 -10 q 140 70 219 -10 q 61 254 61 150 m 151 254 q 202 128 151 183 q 324 74 253 74 q 447 128 396 74 q 499 254 499 183 l 499 406 q 447 528 499 474 q 324 582 394 582 q 202 528 253 582 q 151 406 151 474 l 151 254 z "},"p":{"ha":672,"x_min":88,"x_max":611,"o":"m 88 -287 l 88 624 q 100 647 88 638 q 132 657 113 657 q 163 647 150 657 q 175 624 175 638 l 175 560 q 249 635 200 604 q 361 665 297 665 q 538 589 464 665 q 611 406 611 513 l 611 254 q 537 70 611 150 q 365 -10 463 -10 q 253 22 304 -10 q 178 97 201 53 l 178 -287 q 165 -311 178 -300 q 132 -322 151 -322 q 101 -311 114 -322 q 88 -287 88 -300 m 178 211 q 230 124 178 174 q 349 74 282 74 q 469 129 417 74 q 521 254 521 185 l 521 406 q 469 528 521 474 q 346 582 417 582 q 228 533 279 582 q 178 406 178 485 l 178 211 z "},"q":{"ha":672,"x_min":63,"x_max":585,"o":"m 63 254 l 63 406 q 136 589 63 513 q 313 665 210 665 q 425 635 376 665 q 499 560 474 604 l 499 624 q 510 647 499 638 q 542 657 522 657 q 573 647 561 657 q 585 624 585 638 l 585 -287 q 572 -311 585 -300 q 542 -322 560 -322 q 508 -311 522 -322 q 494 -287 494 -300 l 494 97 q 420 22 472 53 q 308 -10 368 -10 q 136 70 210 -10 q 63 254 63 150 m 153 254 q 204 129 153 185 q 325 74 256 74 q 443 124 392 74 q 494 211 494 174 l 494 406 q 444 533 494 485 q 326 582 393 582 q 204 528 256 582 q 153 406 153 474 l 153 254 z "},"r":{"ha":460,"x_min":88,"x_max":446,"o":"m 88 36 l 88 624 q 100 647 88 638 q 132 657 113 657 q 163 647 150 657 q 175 624 175 638 l 175 556 q 249 633 200 601 q 361 665 297 665 l 410 665 q 435 653 424 665 q 446 624 446 640 q 435 594 446 607 q 410 582 424 582 l 361 582 q 233 526 289 582 q 178 379 178 469 l 178 36 q 165 11 178 22 q 132 0 151 0 q 101 11 114 0 q 88 36 88 22 z "},"s":{"ha":535,"x_min":46,"x_max":488,"o":"m 46 90 q 56 118 46 104 q 78 132 65 132 q 108 116 88 132 q 168 83 129 100 q 261 67 207 67 q 369 94 335 67 q 404 165 404 122 q 369 245 404 215 q 283 289 333 275 q 183 319 233 303 q 97 374 132 336 q 61 476 61 413 q 116 609 61 553 q 281 665 171 665 q 408 644 349 665 q 467 597 467 622 q 456 567 467 583 q 429 550 444 550 q 378 569 425 550 q 282 589 331 589 q 178 556 213 589 q 143 481 143 522 q 178 413 143 438 q 265 374 214 388 q 366 344 315 361 q 452 283 417 326 q 488 169 488 239 q 428 38 488 86 q 264 -10 369 -10 q 109 23 172 -10 q 46 90 46 56 z "},"t":{"ha":413,"x_min":85,"x_max":386,"o":"m 85 204 l 85 936 q 99 960 85 950 q 129 969 113 969 q 161 960 147 969 q 175 936 175 950 l 175 657 l 354 657 q 377 646 368 657 q 386 619 386 635 q 377 593 386 604 q 354 582 368 582 l 175 582 l 175 204 q 203 109 175 136 q 304 82 232 82 l 343 82 q 373 70 361 82 q 385 42 385 58 q 373 13 385 25 q 343 0 361 0 l 304 0 q 85 204 85 0 z "},"u":{"ha":689,"x_min":81,"x_max":608,"o":"m 81 251 l 81 622 q 94 646 81 635 q 126 657 107 657 q 157 646 143 657 q 171 622 171 635 l 171 251 q 222 128 171 182 q 344 74 274 74 q 467 128 415 74 q 518 251 518 182 l 518 624 q 532 647 518 638 q 564 657 546 657 q 595 647 582 657 q 608 624 608 638 l 608 251 q 530 69 608 147 q 344 -10 451 -10 q 158 69 236 -10 q 81 251 81 147 z "},"v":{"ha":583,"x_min":21,"x_max":563,"o":"m 21 618 q 38 647 21 635 q 75 660 56 660 q 108 639 100 660 l 292 139 l 475 633 q 507 660 486 660 q 543 647 524 660 q 563 619 563 635 q 557 597 563 608 l 333 11 q 292 -11 325 -11 q 250 11 258 -11 l 26 597 q 21 618 21 606 z "},"w":{"ha":926,"x_min":21,"x_max":904,"o":"m 21 619 q 38 648 21 636 q 75 660 56 660 q 107 639 100 660 l 285 144 l 428 596 q 464 619 435 619 q 500 596 493 619 l 638 139 l 819 639 q 850 660 824 660 q 887 649 869 660 q 904 619 904 638 q 899 599 904 607 l 682 11 q 646 -11 675 -11 q 608 10 619 -11 l 464 461 l 321 17 q 281 -11 313 -11 q 243 17 251 -11 l 26 599 q 21 619 21 610 z "},"x":{"ha":569,"x_min":35,"x_max":535,"o":"m 35 35 q 40 54 35 43 l 225 332 l 44 601 q 38 619 38 615 q 56 651 38 636 q 93 665 75 665 q 121 651 113 665 l 285 397 l 450 651 q 476 665 458 665 q 513 651 494 665 q 532 619 532 636 q 525 601 532 613 l 343 332 l 529 54 q 535 35 535 46 q 517 5 535 19 q 481 -10 500 -10 q 454 4 463 -10 l 285 264 l 117 4 q 88 -10 107 -10 q 53 5 71 -10 q 35 35 35 19 z "},"y":{"ha":583,"x_min":19,"x_max":563,"o":"m 19 622 q 38 652 19 639 q 75 665 56 665 q 107 646 101 665 l 297 135 l 476 646 q 507 665 485 665 q 544 652 525 665 q 563 621 563 639 q 560 610 563 613 l 344 26 l 319 -42 q 292 -107 313 -60 q 258 -175 272 -154 l 222 -231 q 177 -281 199 -265 q 125 -309 156 -296 q 63 -322 94 -322 q 21 -282 21 -322 q 49 -240 21 -240 q 167 -163 113 -240 q 250 28 222 -86 l 24 610 q 19 622 19 617 z "},"z":{"ha":557,"x_min":33,"x_max":525,"o":"m 33 36 q 47 71 33 51 l 388 578 l 81 578 q 57 590 67 578 q 47 617 47 601 q 57 645 47 633 q 81 657 67 657 l 474 657 q 498 647 488 657 q 508 621 508 638 q 497 588 508 603 l 156 81 l 492 81 q 515 69 506 81 q 525 39 525 57 q 515 12 525 24 q 492 0 506 0 l 71 0 q 44 11 54 0 q 33 36 33 22 z "},"{":{"ha":431,"x_min":42,"x_max":404,"o":"m 55 506 q 48 510 55 506 q 42 535 42 515 q 55 563 42 554 q 83 573 68 572 q 112 581 99 574 q 125 603 125 588 q 112 715 125 614 q 99 839 99 815 q 176 998 99 929 q 357 1067 253 1067 q 392 1054 381 1067 q 404 1025 404 1042 q 394 997 404 1010 q 371 985 385 985 q 244 938 299 985 q 190 828 190 892 q 203 707 190 806 q 217 596 217 608 q 199 556 217 574 q 167 533 182 538 q 200 513 183 531 q 217 472 217 496 q 203 336 217 458 q 190 189 190 214 q 250 87 190 119 q 371 54 310 54 q 404 14 404 54 q 356 -28 404 -28 q 174 32 249 -28 q 99 185 99 92 q 112 333 99 210 q 125 467 125 456 q 112 489 125 482 q 83 496 99 496 q 55 506 68 496 z "},"|":{"ha":281,"x_min":94,"x_max":186,"o":"m 94 6 l 94 1033 q 108 1057 94 1047 q 140 1067 121 1067 q 172 1057 158 1067 q 186 1033 186 1047 l 186 6 q 172 -19 186 -8 q 140 -29 158 -29 q 108 -19 121 -29 q 94 6 94 -8 z "},"}":{"ha":431,"x_min":26,"x_max":389,"o":"m 26 14 q 60 54 26 54 q 181 87 121 54 q 240 189 240 119 q 227 336 240 214 q 214 472 214 458 q 231 513 214 496 q 264 533 247 531 q 231 556 249 538 q 214 596 214 574 q 227 707 214 608 q 240 828 240 806 q 186 938 240 892 q 60 985 132 985 q 36 997 46 985 q 26 1025 26 1010 q 38 1054 26 1042 q 74 1067 50 1067 q 255 998 178 1067 q 332 839 332 929 q 319 715 332 815 q 306 603 306 614 q 319 581 306 588 q 347 573 332 574 q 376 563 363 572 q 389 535 389 554 q 376 506 389 515 q 347 496 363 496 q 319 489 332 496 q 306 467 306 482 q 319 333 306 456 q 332 185 332 210 q 257 32 332 92 q 75 -28 182 -28 q 26 14 26 -28 z "},"~":{"ha":557,"x_min":64,"x_max":494,"o":"m 90 303 q 64 338 64 303 q 105 394 64 372 q 186 417 146 417 q 278 393 222 417 q 369 369 333 369 q 432 390 406 369 q 467 410 458 410 q 487 399 479 410 q 494 378 494 389 q 456 319 494 339 q 378 299 417 299 q 285 323 340 299 q 193 347 231 347 q 128 325 158 347 q 90 303 97 303 z "}," ":{"ha":278,"x_min":0,"x_max":0,"o":""},"¡":{"ha":283,"x_min":78,"x_max":204,"o":"m 78 969 q 97 1014 78 994 q 142 1033 115 1033 q 185 1014 167 1033 q 204 969 204 994 q 186 923 204 942 q 142 904 168 904 q 97 923 115 904 q 78 969 78 942 m 89 46 q 97 405 89 160 q 106 764 106 650 q 117 788 106 779 q 140 796 128 796 q 178 764 178 796 q 186 405 178 650 q 194 46 194 160 q 179 6 194 21 q 140 -8 164 -8 q 103 6 118 -8 q 89 46 89 21 z "},"¢":{"ha":574,"x_min":49,"x_max":521,"o":"m 49 497 l 49 524 q 103 698 49 628 q 264 783 157 768 l 264 933 q 274 955 264 946 q 297 964 283 964 q 322 955 311 964 q 332 933 332 946 l 332 785 q 463 757 408 783 q 518 697 518 731 q 506 667 518 681 q 478 654 494 654 q 453 666 469 654 q 406 690 438 678 q 332 704 375 703 l 332 317 q 406 331 375 318 q 452 356 436 343 q 478 368 468 368 q 508 355 494 368 q 521 325 521 342 q 463 265 521 292 q 332 235 406 238 l 332 88 q 322 65 332 75 q 297 56 311 56 q 274 65 283 56 q 264 88 264 75 l 264 238 q 103 322 158 251 q 49 497 49 392 m 132 497 q 264 319 132 346 l 264 701 q 132 524 132 674 l 132 497 z "},"£":{"ha":676,"x_min":33,"x_max":622,"o":"m 33 43 q 42 72 33 60 q 68 85 51 85 l 150 85 l 210 510 l 104 510 q 81 520 90 510 q 72 546 72 531 q 81 574 72 563 q 104 585 90 585 l 221 585 l 251 804 q 356 990 267 914 q 557 1067 446 1067 l 583 1067 q 612 1054 601 1067 q 622 1025 622 1042 q 612 997 622 1010 q 583 983 601 983 l 550 983 q 410 931 469 983 q 342 804 351 878 l 311 585 l 518 585 q 547 546 547 585 q 518 510 547 510 l 300 510 l 239 85 l 590 85 q 614 72 606 85 q 622 43 622 60 q 614 13 622 25 q 590 0 606 0 l 68 0 q 33 43 33 0 z "},"¤":{"ha":664,"x_min":86,"x_max":581,"o":"m 86 446 q 93 463 86 456 l 138 507 q 88 656 88 572 q 138 804 88 739 l 101 840 q 93 858 93 847 q 103 878 93 869 q 124 888 113 888 q 140 881 133 888 l 175 846 q 333 906 243 906 q 486 850 417 906 l 524 888 q 542 894 531 894 q 562 885 553 894 q 571 865 571 876 q 563 847 571 856 l 525 810 q 581 656 581 743 q 524 501 581 572 l 563 463 q 571 446 571 454 q 562 426 571 435 q 542 417 553 417 q 525 424 531 417 l 486 461 q 333 403 417 403 q 175 465 246 403 l 132 424 q 115 417 125 417 q 95 426 104 417 q 86 446 86 435 m 156 656 q 208 527 156 583 q 333 471 261 471 q 460 527 406 471 q 514 656 514 583 q 460 782 514 726 q 333 838 407 838 q 208 782 260 838 q 156 656 156 726 z "},"¥":{"ha":701,"x_min":33,"x_max":668,"o":"m 33 978 q 50 1006 33 993 q 85 1018 67 1018 q 118 994 106 1018 l 347 547 l 586 994 q 618 1018 599 1018 q 652 1006 636 1018 q 668 978 668 993 q 665 964 668 972 l 413 504 l 557 504 q 581 493 571 504 q 592 467 592 482 q 581 441 592 451 q 557 431 571 431 l 392 431 l 392 329 l 557 329 q 581 318 571 329 q 592 292 592 307 q 581 265 592 275 q 557 256 571 256 l 392 256 l 392 35 q 378 10 392 19 q 347 0 365 0 q 315 10 328 0 q 301 35 301 19 l 301 256 l 143 256 q 119 265 128 256 q 110 290 110 275 q 119 318 110 307 q 143 329 129 329 l 301 329 l 301 431 l 143 431 q 119 441 129 431 q 110 467 110 451 q 119 493 110 482 q 143 504 129 504 l 279 504 l 38 964 q 33 978 33 969 z "},"¦":{"ha":282,"x_min":96,"x_max":186,"o":"m 96 6 l 96 383 q 109 407 96 397 q 140 417 122 417 q 172 407 158 417 q 186 383 186 397 l 186 6 q 172 -19 186 -8 q 140 -29 158 -29 q 109 -19 122 -29 q 96 6 96 -8 m 96 656 l 96 1033 q 109 1057 96 1047 q 140 1067 122 1067 q 172 1057 158 1067 q 186 1033 186 1047 l 186 656 q 172 631 186 642 q 140 621 158 621 q 109 631 122 621 q 96 656 96 642 z "},"§":{"ha":649,"x_min":68,"x_max":576,"o":"m 68 138 q 110 179 68 179 q 151 146 151 179 q 188 39 151 89 q 314 -11 225 -11 q 440 33 396 -11 q 485 156 485 76 q 455 245 485 210 q 381 297 425 281 l 286 333 q 190 377 233 354 q 116 451 146 400 q 86 578 86 503 l 86 750 q 108 881 86 826 q 169 964 131 936 q 246 1003 207 992 q 328 1015 285 1015 q 493 953 435 1015 q 551 792 551 890 q 511 749 551 749 q 469 792 469 749 q 438 890 469 844 q 331 935 407 935 q 219 892 265 935 q 174 761 174 850 q 196 683 174 715 q 253 633 218 651 q 332 601 289 615 q 418 567 375 586 q 497 524 461 549 q 554 452 532 499 q 576 340 576 406 l 576 171 q 504 -28 576 36 q 322 -93 432 -93 q 138 -26 207 -93 q 68 138 68 42 m 168 568 q 207 458 168 500 q 296 402 246 417 q 406 363 346 388 q 496 306 467 338 l 496 346 q 457 454 496 413 q 369 510 418 496 q 259 550 319 525 q 168 607 199 575 l 168 568 z "},"¨":{"ha":272,"x_min":0,"x_max":272,"o":"m 0 875 q 15 911 0 897 q 51 925 29 925 q 87 911 72 925 q 101 875 101 897 q 87 839 101 854 q 51 824 72 824 q 15 839 29 824 q 0 875 0 854 m 171 875 q 185 911 171 897 q 222 925 200 925 q 258 911 244 925 q 272 875 272 897 q 258 839 272 854 q 222 824 243 824 q 185 839 200 824 q 171 875 171 854 z "},"©":{"ha":997,"x_min":72,"x_max":925,"o":"m 72 497 q 112 698 72 608 q 215 841 151 788 q 353 923 279 894 q 503 951 428 951 q 651 923 578 951 q 787 841 725 894 q 887 699 849 788 q 925 503 925 611 q 885 302 925 392 q 782 159 846 213 q 644 77 718 106 q 494 49 569 49 q 346 77 419 49 q 210 159 272 106 q 110 301 149 213 q 72 497 72 389 m 133 497 q 233 218 133 326 q 494 110 332 110 q 760 219 657 110 q 864 503 864 329 q 765 782 864 674 q 503 890 665 890 q 237 781 340 890 q 133 497 133 671 m 354 400 l 354 619 q 394 744 354 704 q 500 785 435 785 q 607 747 567 785 q 647 653 647 710 q 640 623 647 631 q 615 615 633 615 q 582 639 582 615 q 503 725 578 725 q 421 619 421 725 l 421 400 q 503 294 421 294 q 544 302 528 294 q 567 326 560 310 q 577 353 575 343 q 582 383 579 364 q 614 407 583 407 q 640 399 632 407 q 647 371 647 392 q 606 273 647 311 q 499 235 565 235 q 394 275 435 235 q 354 400 354 315 z "},"ª":{"ha":436,"x_min":47,"x_max":368,"o":"m 47 715 q 100 811 47 783 q 253 839 153 839 l 296 839 l 296 857 q 272 934 296 901 q 199 967 247 967 q 133 953 163 967 q 103 940 104 940 q 83 952 90 940 q 75 978 75 964 q 115 1013 75 997 q 200 1028 156 1028 q 327 979 286 1028 q 368 857 368 931 l 368 632 q 332 606 368 606 q 308 613 318 606 q 299 632 299 621 l 299 667 q 164 600 242 600 q 80 629 113 600 q 47 715 47 658 m 119 722 q 188 657 119 657 q 261 686 226 657 q 296 747 296 715 l 296 793 l 257 793 q 156 778 193 793 q 119 722 119 764 z "},"«":{"ha":565,"x_min":49,"x_max":508,"o":"m 63 347 q 49 385 49 371 q 63 424 49 399 l 186 651 q 218 668 194 668 q 253 653 238 668 q 269 624 269 639 q 265 608 269 617 l 144 385 l 265 163 q 269 147 269 154 q 253 117 269 131 q 217 103 238 103 q 186 119 196 103 l 63 347 m 288 385 q 301 424 288 397 l 425 651 q 457 668 433 668 q 492 653 476 668 q 508 624 508 639 q 504 608 508 617 l 383 385 l 504 163 q 508 147 508 154 q 492 117 508 131 q 456 103 476 103 q 425 119 435 103 l 301 347 q 288 385 288 371 z "},"¬":{"ha":674,"x_min":71,"x_max":582,"o":"m 71 333 q 81 363 71 351 q 106 375 90 375 l 547 375 q 571 363 560 375 q 582 333 582 350 l 582 122 q 569 97 582 107 q 538 88 556 88 q 505 97 518 88 q 492 122 492 107 l 492 294 l 106 294 q 71 333 71 294 z "},"­":{"ha":657,"x_min":72,"x_max":586,"o":"m 72 333 q 82 363 72 351 q 107 375 92 375 l 551 375 q 576 363 565 375 q 586 333 586 351 q 576 306 586 317 q 551 294 565 294 l 107 294 q 72 333 72 294 z "},"®":{"ha":997,"x_min":72,"x_max":925,"o":"m 72 497 q 112 698 72 608 q 215 841 151 788 q 353 923 279 894 q 503 951 428 951 q 651 923 578 951 q 787 841 725 894 q 887 699 849 788 q 925 503 925 611 q 885 302 925 392 q 782 159 846 213 q 644 77 718 106 q 494 49 569 49 q 346 77 419 49 q 210 159 272 106 q 110 301 149 213 q 72 497 72 389 m 133 497 q 233 218 133 326 q 494 110 332 110 q 760 219 657 110 q 864 503 864 329 q 765 782 864 674 q 503 890 665 890 q 237 781 340 890 q 133 497 133 671 m 367 263 l 367 754 q 389 778 367 775 l 513 778 q 619 743 578 778 q 660 629 660 708 q 565 485 660 508 l 657 282 q 660 272 660 274 q 648 248 660 258 q 624 238 636 238 q 597 264 611 238 l 500 476 l 431 476 l 431 263 q 400 239 431 239 q 367 263 367 239 m 431 531 l 513 531 q 596 624 596 531 q 513 719 596 719 l 431 719 l 431 531 z "},"¯":{"ha":368,"x_min":0,"x_max":368,"o":"m 10 892 q 5 897 10 892 q 0 917 0 901 q 10 942 0 932 q 35 953 19 953 l 333 953 q 357 942 346 953 q 368 917 368 932 q 357 892 368 903 q 333 882 346 882 l 35 882 q 10 892 19 882 z "},"°":{"ha":582,"x_min":44,"x_max":538,"o":"m 118 640 q 81 678 118 640 q 44 817 44 717 q 117 992 44 917 q 290 1067 190 1067 q 464 993 390 1067 q 538 817 538 919 q 463 640 538 717 q 290 564 389 564 q 118 640 192 564 m 113 817 q 165 688 113 744 q 290 632 218 632 q 417 688 363 632 q 471 817 471 744 q 417 943 471 888 q 290 999 364 999 q 165 943 217 999 q 113 817 113 888 z "},"±":{"ha":654,"x_min":71,"x_max":585,"o":"m 71 118 q 81 148 71 136 q 104 160 90 160 l 549 160 q 574 147 563 160 q 585 118 585 135 q 574 90 585 101 q 549 79 563 79 l 104 79 q 71 118 71 79 m 71 490 q 81 519 71 507 q 104 531 90 531 l 288 531 l 288 708 q 299 733 288 722 q 328 744 311 744 q 356 733 344 744 q 368 708 368 722 l 368 531 l 549 531 q 574 519 563 531 q 585 490 585 507 q 574 462 585 474 q 549 450 563 450 l 368 450 l 368 271 q 357 247 368 256 q 328 238 346 238 q 299 247 311 238 q 288 271 288 257 l 288 450 l 104 450 q 80 461 89 450 q 71 490 71 472 z "},"²":{"ha":426,"x_min":46,"x_max":383,"o":"m 46 517 l 46 585 q 87 663 46 624 q 177 729 128 701 q 267 795 226 757 q 308 871 308 833 q 284 927 308 903 q 213 951 260 951 q 150 933 174 951 q 126 876 126 914 q 116 859 126 867 q 90 851 106 851 q 57 889 57 851 q 102 980 57 944 q 214 1015 147 1015 q 331 975 283 1015 q 378 874 378 935 q 351 794 378 832 q 285 731 324 757 q 210 681 247 704 q 145 635 172 658 q 118 588 118 611 l 118 554 l 358 554 q 376 545 368 554 q 383 524 383 536 q 376 501 383 511 q 358 492 368 492 l 78 492 q 56 499 67 492 q 46 517 46 506 z "},"³":{"ha":435,"x_min":40,"x_max":385,"o":"m 40 613 q 48 635 40 629 q 74 642 56 642 q 110 617 110 642 q 135 570 110 590 q 211 550 160 550 q 315 643 315 550 l 315 656 q 211 738 315 738 q 186 765 186 738 q 211 794 186 794 q 278 812 256 794 q 300 875 300 829 q 214 954 300 954 q 124 892 124 954 q 90 863 124 863 q 61 869 68 863 q 54 896 54 875 q 92 978 54 940 q 215 1015 129 1015 q 368 889 368 1015 q 304 768 368 796 q 385 656 385 740 l 385 643 q 337 526 385 564 q 211 488 289 488 q 85 526 129 488 q 40 613 40 564 z "},"´":{"ha":215,"x_min":0,"x_max":215,"o":"m 0 860 q 15 885 0 878 l 171 969 q 182 974 175 974 q 206 962 197 974 q 215 935 215 950 q 199 904 215 913 l 50 825 q 36 821 44 821 q 11 833 22 821 q 0 860 0 844 z "},"µ":{"ha":682,"x_min":99,"x_max":619,"o":"m 99 -287 l 99 622 q 112 646 99 635 q 143 657 125 657 q 175 646 161 657 q 189 622 189 635 l 189 226 q 244 126 189 178 q 364 74 300 74 q 479 128 429 74 q 529 251 529 183 l 529 622 q 543 647 529 638 q 575 657 557 657 q 607 647 594 657 q 619 622 619 638 l 619 251 q 545 67 619 143 q 363 -10 471 -10 q 256 16 304 -10 q 182 79 208 42 l 182 -287 q 170 -312 182 -301 q 143 -322 158 -322 q 111 -312 124 -322 q 99 -287 99 -303 z "},"¶":{"ha":728,"x_min":44,"x_max":622,"o":"m 44 713 l 44 729 q 119 947 44 878 q 317 1015 193 1015 l 588 1015 q 622 981 622 1015 l 622 35 q 588 0 622 0 q 551 35 551 0 l 551 956 l 444 956 l 444 36 q 433 10 444 19 q 408 0 422 0 q 384 10 394 0 q 374 36 374 19 l 374 425 l 317 425 q 119 494 193 425 q 44 713 44 564 z "},"·":{"ha":256,"x_min":63,"x_max":193,"o":"m 63 417 q 81 461 63 443 q 128 479 100 479 q 174 461 156 479 q 193 417 193 443 q 174 373 193 392 q 128 354 154 354 q 81 373 100 354 q 63 417 63 392 z "},"¸":{"ha":232,"x_min":0,"x_max":232,"o":"m 0 -256 q 6 -235 0 -247 q 22 -222 13 -222 q 48 -232 24 -222 q 100 -242 72 -242 q 174 -187 174 -242 q 86 -129 174 -136 l 33 -125 l 69 13 l 125 13 l 99 -85 q 199 -115 165 -86 q 232 -185 232 -143 q 200 -259 232 -226 q 108 -292 168 -292 q 37 -282 74 -292 q 0 -256 0 -272 z "},"¹":{"ha":235,"x_min":25,"x_max":165,"o":"m 25 906 q 39 932 25 924 l 115 1008 q 135 1017 124 1017 q 156 1010 147 1017 q 165 992 165 1003 l 165 517 q 132 492 165 492 q 96 517 96 492 l 96 919 l 67 885 q 50 878 60 878 q 33 886 40 878 q 25 906 25 894 z "},"º":{"ha":456,"x_min":54,"x_max":401,"o":"m 54 769 l 54 860 q 106 977 54 926 q 228 1028 157 1028 q 349 978 297 1028 q 401 860 401 928 l 401 769 q 349 650 401 701 q 228 599 297 599 q 106 650 158 599 q 54 769 54 701 m 126 769 q 156 696 126 728 q 228 664 186 664 q 299 696 269 664 q 329 769 329 728 l 329 860 q 299 931 329 900 q 228 963 269 963 q 156 931 186 963 q 126 860 126 900 l 126 769 z "},"»":{"ha":567,"x_min":57,"x_max":518,"o":"m 57 147 q 61 163 57 154 l 182 385 l 61 608 q 57 624 57 617 q 73 653 57 639 q 108 668 89 668 q 140 651 132 668 l 264 424 q 279 385 279 393 q 264 347 279 375 l 140 119 q 110 103 133 103 q 74 117 90 103 q 57 147 57 132 m 296 147 q 300 163 296 154 l 421 385 l 300 608 q 296 624 296 617 q 312 653 296 639 q 347 668 328 668 q 379 651 371 668 l 503 424 q 518 385 518 393 q 503 347 518 375 l 379 119 q 349 103 372 103 q 313 117 329 103 q 296 147 296 132 z "},"¼":{"ha":839,"x_min":42,"x_max":806,"o":"m 42 906 q 56 932 42 924 l 132 1008 q 151 1017 140 1017 q 173 1010 164 1017 q 182 992 182 1003 l 182 517 q 149 492 182 492 q 113 517 113 492 l 113 919 l 83 885 q 67 878 76 878 q 49 886 57 878 q 42 906 42 894 m 97 -3 q 101 14 97 6 l 631 1051 q 658 1068 638 1068 q 685 1057 672 1068 q 697 1031 697 1046 q 693 1013 697 1021 l 167 -17 q 133 -37 156 -37 q 108 -27 119 -37 q 97 -3 97 -17 m 446 146 q 450 160 446 151 l 644 503 q 676 524 657 524 q 699 515 688 524 q 711 496 711 507 q 708 485 711 490 l 536 185 l 669 185 l 669 292 q 704 314 669 314 q 739 292 739 314 l 739 185 l 781 185 q 799 174 792 185 q 806 151 806 164 q 798 129 806 139 q 781 119 790 119 l 739 119 l 739 24 q 704 0 739 0 q 669 24 669 0 l 669 119 l 471 119 q 446 146 446 119 z "},"½":{"ha":860,"x_min":43,"x_max":815,"o":"m 43 906 q 57 932 43 924 l 133 1008 q 153 1017 142 1017 q 174 1010 165 1017 q 183 992 183 1003 l 183 517 q 150 492 183 492 q 114 517 114 492 l 114 919 l 85 885 q 68 878 78 878 q 51 886 58 878 q 43 906 43 894 m 76 -3 q 81 14 76 6 l 610 1051 q 638 1068 617 1068 q 664 1057 651 1068 q 676 1031 676 1046 q 672 1013 676 1021 l 146 -17 q 113 -37 136 -37 q 88 -27 99 -37 q 76 -3 76 -17 m 478 24 l 478 93 q 519 171 478 132 q 609 238 560 210 q 699 303 658 265 q 740 379 740 342 q 715 435 740 411 q 644 458 690 458 q 558 385 558 458 q 548 367 558 375 q 522 358 538 358 q 489 397 489 358 q 534 488 489 453 q 646 524 579 524 q 763 483 715 524 q 810 382 810 443 q 783 302 810 339 q 718 239 756 265 q 642 190 681 213 q 577 142 604 167 q 550 96 550 118 l 550 63 l 790 63 q 808 53 800 63 q 815 32 815 44 q 808 10 815 19 q 790 0 800 0 l 510 0 q 488 7 499 0 q 478 24 478 14 z "},"¾":{"ha":1019,"x_min":44,"x_max":988,"o":"m 44 613 q 52 635 44 629 q 78 642 60 642 q 114 617 114 642 q 139 570 114 590 q 215 550 164 550 q 319 643 319 550 l 319 656 q 215 738 319 738 q 190 765 190 738 q 215 794 190 794 q 282 812 260 794 q 304 875 304 829 q 218 954 304 954 q 128 892 128 954 q 94 863 128 863 q 65 869 72 863 q 58 896 58 875 q 96 978 58 940 q 219 1015 133 1015 q 372 889 372 1015 q 308 768 372 796 q 389 656 389 740 l 389 643 q 341 526 389 564 q 215 488 293 488 q 89 526 133 488 q 44 613 44 564 m 271 -3 q 275 14 271 6 l 804 1051 q 832 1068 811 1068 q 858 1057 846 1068 q 871 1031 871 1046 q 867 1013 871 1021 l 340 -17 q 307 -37 331 -37 q 282 -27 293 -37 q 271 -3 271 -17 m 628 146 q 632 160 628 151 l 826 503 q 858 524 839 524 q 881 515 869 524 q 893 496 893 507 q 890 485 893 490 l 718 185 l 851 185 l 851 292 q 886 314 851 314 q 921 292 921 314 l 921 185 l 963 185 q 981 174 974 185 q 988 151 988 164 q 980 129 988 139 q 963 119 972 119 l 921 119 l 921 24 q 886 0 921 0 q 851 24 851 0 l 851 119 l 653 119 q 628 146 628 119 z "},"¿":{"ha":551,"x_min":44,"x_max":519,"o":"m 44 239 q 67 353 44 299 q 116 438 90 408 q 181 503 142 467 q 229 553 219 540 q 269 631 261 588 q 278 764 278 674 q 315 796 278 796 q 353 756 353 796 q 338 598 353 649 q 293 514 322 547 q 243 467 281 501 q 185 408 206 432 q 144 340 164 385 q 124 246 124 296 q 172 115 124 163 q 311 68 221 68 q 401 85 365 68 q 454 119 436 103 q 485 136 472 136 q 508 126 497 136 q 519 99 519 115 q 456 27 519 63 q 307 -8 393 -8 q 113 61 182 -8 q 44 239 44 131 m 251 969 q 270 1014 251 994 q 315 1033 289 1033 q 360 1014 342 1033 q 379 969 379 994 q 360 924 379 943 q 315 904 342 904 q 270 924 289 904 q 251 969 251 943 z "},"À":{"ha":750,"x_min":29,"x_max":721,"o":"m 29 39 q 31 49 29 46 l 321 992 q 375 1024 331 1024 q 431 992 419 1024 l 719 49 q 720 44 719 47 q 721 40 721 42 q 703 12 721 24 q 665 0 685 0 q 631 24 639 0 l 567 238 l 182 238 l 118 24 q 82 0 113 0 q 46 11 63 0 q 29 39 29 22 m 206 317 l 543 317 l 375 876 l 206 317 m 261 1288 q 271 1314 261 1301 q 294 1326 281 1326 q 307 1322 300 1326 l 461 1238 q 476 1213 476 1231 q 465 1185 476 1197 q 440 1174 454 1174 q 426 1178 433 1174 l 279 1257 q 261 1288 261 1265 z "},"Á":{"ha":750,"x_min":29,"x_max":721,"o":"m 29 39 q 31 49 29 46 l 321 992 q 375 1024 331 1024 q 431 992 419 1024 l 719 49 q 720 44 719 47 q 721 40 721 42 q 703 12 721 24 q 665 0 685 0 q 631 24 639 0 l 567 238 l 182 238 l 118 24 q 82 0 113 0 q 46 11 63 0 q 29 39 29 22 m 206 317 l 543 317 l 375 876 l 206 317 m 281 1213 q 296 1238 281 1231 l 451 1322 q 463 1326 456 1326 q 487 1315 478 1326 q 496 1288 496 1303 q 479 1257 496 1265 l 331 1178 q 317 1174 325 1174 q 292 1185 303 1174 q 281 1213 281 1197 z "},"Â":{"ha":750,"x_min":29,"x_max":721,"o":"m 29 39 q 31 49 29 46 l 321 992 q 375 1024 331 1024 q 431 992 419 1024 l 719 49 q 720 44 719 47 q 721 40 721 42 q 703 12 721 24 q 665 0 685 0 q 631 24 639 0 l 567 238 l 182 238 l 118 24 q 82 0 113 0 q 46 11 63 0 q 29 39 29 22 m 188 1211 q 206 1242 188 1232 l 350 1319 q 374 1326 361 1326 q 397 1319 386 1326 l 542 1242 q 560 1210 560 1233 q 551 1186 560 1196 q 532 1176 543 1176 q 518 1181 531 1176 l 374 1257 l 229 1179 l 217 1175 q 197 1186 206 1175 q 188 1211 188 1197 m 206 317 l 543 317 l 375 876 l 206 317 z "},"Ã":{"ha":750,"x_min":29,"x_max":721,"o":"m 29 39 q 31 49 29 46 l 321 992 q 375 1024 331 1024 q 431 992 419 1024 l 719 49 q 720 44 719 47 q 721 40 721 42 q 703 12 721 24 q 665 0 685 0 q 631 24 639 0 l 567 238 l 182 238 l 118 24 q 82 0 113 0 q 46 11 63 0 q 29 39 29 22 m 186 1203 q 160 1238 160 1203 q 201 1294 160 1272 q 282 1317 242 1317 q 374 1293 318 1317 q 465 1269 429 1269 q 528 1290 501 1269 q 563 1310 554 1310 q 583 1299 575 1310 q 590 1278 590 1289 q 551 1219 590 1239 q 474 1199 513 1199 q 381 1223 436 1199 q 289 1247 326 1247 q 224 1225 254 1247 q 186 1203 193 1203 m 206 317 l 543 317 l 375 876 l 206 317 z "},"Ä":{"ha":750,"x_min":29,"x_max":721,"o":"m 29 39 q 31 49 29 46 l 321 992 q 375 1024 331 1024 q 431 992 419 1024 l 719 49 q 720 44 719 47 q 721 40 721 42 q 703 12 721 24 q 665 0 685 0 q 631 24 639 0 l 567 238 l 182 238 l 118 24 q 82 0 113 0 q 46 11 63 0 q 29 39 29 22 m 206 317 l 543 317 l 375 876 l 206 317 m 239 1228 q 253 1264 239 1250 q 290 1278 268 1278 q 326 1264 311 1278 q 340 1228 340 1250 q 326 1192 340 1207 q 290 1176 311 1176 q 253 1192 268 1176 q 239 1228 239 1207 m 410 1228 q 424 1264 410 1250 q 461 1278 439 1278 q 497 1264 483 1278 q 511 1228 511 1250 q 497 1192 511 1207 q 461 1176 482 1176 q 424 1192 439 1176 q 410 1228 410 1207 z "},"Å":{"ha":750,"x_min":29,"x_max":721,"o":"m 29 39 q 31 49 29 46 l 321 992 q 375 1024 331 1024 q 431 992 419 1024 l 719 49 q 720 44 719 47 q 721 40 721 42 q 703 12 721 24 q 665 0 685 0 q 631 24 639 0 l 567 238 l 182 238 l 118 24 q 82 0 113 0 q 46 11 63 0 q 29 39 29 22 m 206 317 l 543 317 l 375 876 l 206 317 m 246 1290 q 283 1381 246 1342 q 374 1419 321 1419 q 464 1381 425 1419 q 503 1290 503 1342 q 464 1197 503 1238 q 374 1157 425 1157 q 284 1197 322 1157 q 246 1290 246 1238 m 292 1290 q 317 1230 292 1257 q 375 1203 342 1203 q 431 1230 407 1203 q 456 1290 456 1257 q 431 1346 456 1321 q 375 1371 407 1371 q 316 1346 340 1371 q 292 1290 292 1321 z "},"Æ":{"ha":993,"x_min":101,"x_max":960,"o":"m 101 43 l 101 719 q 180 944 101 872 q 388 1015 258 1015 l 926 1015 q 960 975 960 1015 q 951 944 960 957 q 926 931 942 931 l 600 931 l 600 549 l 804 549 q 830 537 821 549 q 839 507 839 525 q 804 469 839 469 l 600 469 l 600 85 l 926 85 q 951 72 942 85 q 960 42 960 60 q 926 0 960 0 l 551 0 q 522 10 535 0 q 508 36 508 19 l 508 469 l 190 469 l 190 43 q 181 10 190 21 q 144 0 172 0 q 101 43 101 0 m 190 549 l 508 549 l 508 931 l 388 931 q 190 719 190 931 l 190 549 z "},"Ç":{"ha":726,"x_min":94,"x_max":672,"o":"m 94 289 l 94 719 q 176 943 94 871 q 386 1015 257 1015 q 595 948 518 1015 q 672 783 672 881 q 662 739 672 750 q 626 728 651 728 q 581 763 583 728 q 575 803 579 783 q 558 847 571 822 q 526 889 546 871 q 469 919 506 907 q 386 931 433 931 q 186 719 186 931 l 186 289 q 392 76 186 76 q 489 92 450 76 q 546 139 528 108 q 570 191 564 169 q 581 247 576 213 q 626 283 585 283 q 662 272 651 283 q 672 226 672 260 q 608 73 672 138 q 432 -4 543 8 l 411 -85 q 511 -115 478 -86 q 544 -185 544 -143 q 513 -259 544 -226 q 421 -292 481 -292 q 349 -282 386 -292 q 313 -256 313 -272 q 319 -235 313 -247 q 335 -222 325 -222 q 360 -232 336 -222 q 413 -242 385 -242 q 486 -187 486 -242 q 399 -129 486 -136 l 346 -125 l 376 -8 q 172 66 250 -6 q 94 289 94 138 z "},"È":{"ha":706,"x_min":106,"x_max":676,"o":"m 106 36 l 106 981 q 118 1006 106 997 q 147 1015 131 1015 l 642 1015 q 676 975 676 1015 q 667 944 676 957 q 642 931 658 931 l 197 931 l 197 549 l 415 549 q 441 537 432 549 q 450 507 450 525 q 415 469 450 469 l 197 469 l 197 85 l 642 85 q 667 72 657 85 q 676 42 676 60 q 642 0 676 0 l 147 0 q 118 10 131 0 q 106 36 106 19 m 281 1288 q 290 1314 281 1301 q 314 1326 300 1326 q 326 1322 319 1326 l 481 1238 q 496 1213 496 1231 q 485 1185 496 1197 q 460 1174 474 1174 q 446 1178 453 1174 l 299 1257 q 281 1288 281 1265 z "},"É":{"ha":706,"x_min":106,"x_max":676,"o":"m 106 36 l 106 981 q 118 1006 106 997 q 147 1015 131 1015 l 642 1015 q 676 975 676 1015 q 667 944 676 957 q 642 931 658 931 l 197 931 l 197 549 l 415 549 q 441 537 432 549 q 450 507 450 525 q 415 469 450 469 l 197 469 l 197 85 l 642 85 q 667 72 657 85 q 676 42 676 60 q 642 0 676 0 l 147 0 q 118 10 131 0 q 106 36 106 19 m 292 1213 q 307 1238 292 1231 l 463 1322 q 474 1326 467 1326 q 498 1315 489 1326 q 507 1288 507 1303 q 490 1257 507 1265 l 342 1178 q 328 1174 336 1174 q 303 1185 314 1174 q 292 1213 292 1197 z "},"Ê":{"ha":706,"x_min":106,"x_max":676,"o":"m 106 36 l 106 981 q 118 1006 106 997 q 147 1015 131 1015 l 642 1015 q 676 975 676 1015 q 667 944 676 957 q 642 931 658 931 l 197 931 l 197 549 l 415 549 q 441 537 432 549 q 450 507 450 525 q 415 469 450 469 l 197 469 l 197 85 l 642 85 q 667 72 657 85 q 676 42 676 60 q 642 0 676 0 l 147 0 q 118 10 131 0 q 106 36 106 19 m 207 1211 q 225 1242 207 1232 l 369 1319 q 393 1326 381 1326 q 417 1319 406 1326 l 561 1242 q 579 1210 579 1233 q 571 1186 579 1196 q 551 1176 563 1176 q 538 1181 550 1176 l 393 1257 l 249 1179 l 236 1175 q 216 1186 225 1175 q 207 1211 207 1197 z "},"Ë":{"ha":706,"x_min":106,"x_max":676,"o":"m 106 36 l 106 981 q 118 1006 106 997 q 147 1015 131 1015 l 642 1015 q 676 975 676 1015 q 667 944 676 957 q 642 931 658 931 l 197 931 l 197 549 l 415 549 q 441 537 432 549 q 450 507 450 525 q 415 469 450 469 l 197 469 l 197 85 l 642 85 q 667 72 657 85 q 676 42 676 60 q 642 0 676 0 l 147 0 q 118 10 131 0 q 106 36 106 19 m 256 1228 q 270 1264 256 1250 q 307 1278 285 1278 q 342 1264 328 1278 q 357 1228 357 1250 q 342 1192 357 1207 q 307 1176 328 1176 q 270 1192 285 1176 q 256 1228 256 1207 m 426 1228 q 441 1264 426 1250 q 478 1278 456 1278 q 514 1264 500 1278 q 528 1228 528 1250 q 513 1192 528 1207 q 478 1176 499 1176 q 441 1192 456 1176 q 426 1228 426 1207 z "},"Ì":{"ha":303,"x_min":40,"x_max":256,"o":"m 40 1288 q 50 1314 40 1301 q 74 1326 60 1326 q 86 1322 81 1326 l 240 1238 q 256 1213 256 1231 q 244 1185 256 1197 q 219 1174 233 1174 q 206 1178 211 1174 l 58 1257 q 40 1288 40 1265 m 106 36 l 106 982 q 151 1015 106 1015 q 197 982 197 1015 l 197 36 q 183 10 197 19 q 151 0 169 0 q 119 10 132 0 q 106 36 106 19 z "},"Í":{"ha":303,"x_min":46,"x_max":261,"o":"m 46 1213 q 61 1238 46 1231 l 217 1322 q 228 1326 221 1326 q 252 1315 243 1326 q 261 1288 261 1303 q 244 1257 261 1265 l 96 1178 q 82 1174 89 1174 q 57 1185 68 1174 q 46 1213 46 1197 m 106 36 l 106 982 q 151 1015 106 1015 q 197 982 197 1015 l 197 36 q 183 10 197 19 q 151 0 169 0 q 119 10 132 0 q 106 36 106 19 z "},"Î":{"ha":303,"x_min":-35,"x_max":338,"o":"m -35 1211 q -17 1242 -35 1232 l 128 1319 q 151 1326 139 1326 q 175 1319 164 1326 l 319 1242 q 338 1210 338 1233 q 329 1186 338 1196 q 310 1176 321 1176 q 296 1181 308 1176 l 151 1257 l 7 1179 l -6 1175 q -26 1186 -17 1175 q -35 1211 -35 1197 m 106 36 l 106 982 q 151 1015 106 1015 q 197 982 197 1015 l 197 36 q 183 10 197 19 q 151 0 169 0 q 119 10 132 0 q 106 36 106 19 z "},"Ï":{"ha":303,"x_min":15,"x_max":288,"o":"m 15 1228 q 30 1264 15 1250 q 67 1278 44 1278 q 102 1264 88 1278 q 117 1228 117 1250 q 102 1192 117 1207 q 67 1176 88 1176 q 30 1192 44 1176 q 15 1228 15 1207 m 106 36 l 106 982 q 151 1015 106 1015 q 197 982 197 1015 l 197 36 q 183 10 197 19 q 151 0 169 0 q 119 10 132 0 q 106 36 106 19 m 186 1228 q 201 1264 186 1250 q 238 1278 215 1278 q 274 1264 260 1278 q 288 1228 288 1250 q 273 1192 288 1207 q 238 1176 258 1176 q 201 1192 215 1176 q 186 1228 186 1207 z "},"Ð":{"ha":790,"x_min":-1,"x_max":696,"o":"m -1 533 q 8 560 -1 549 q 31 571 17 571 l 118 571 l 118 982 q 130 1006 118 996 q 160 1015 142 1015 l 406 1015 q 617 944 538 1015 q 696 719 696 872 l 696 297 q 617 72 696 143 q 406 0 538 0 l 160 0 q 130 10 142 0 q 118 35 118 21 l 118 496 l 31 496 q 8 506 17 496 q -1 533 -1 517 m 210 85 l 406 85 q 552 138 500 85 q 604 297 604 192 l 604 719 q 552 878 604 825 q 406 931 500 931 l 210 931 l 210 571 l 367 571 q 390 560 381 571 q 399 533 399 549 q 390 507 399 518 q 367 496 381 496 l 210 496 l 210 85 z "},"Ñ":{"ha":796,"x_min":106,"x_max":690,"o":"m 106 36 l 106 981 q 151 1015 106 1015 q 224 951 190 1015 l 599 213 l 599 982 q 644 1015 599 1015 q 690 982 690 1015 l 690 36 q 676 10 690 19 q 644 0 663 0 q 583 53 610 0 l 197 804 l 197 36 q 183 10 197 19 q 151 0 169 0 q 119 10 132 0 q 106 36 106 19 m 206 1203 q 179 1238 179 1203 q 220 1294 179 1272 q 301 1317 261 1317 q 393 1293 338 1317 q 485 1269 449 1269 q 547 1290 521 1269 q 582 1310 574 1310 q 602 1299 594 1310 q 610 1278 610 1289 q 571 1219 610 1239 q 493 1199 532 1199 q 401 1223 456 1199 q 308 1247 346 1247 q 243 1225 274 1247 q 206 1203 213 1203 z "},"Ò":{"ha":767,"x_min":94,"x_max":672,"o":"m 94 289 l 94 719 q 173 944 94 872 q 383 1015 251 1015 q 594 944 515 1015 q 672 719 672 872 l 672 289 q 594 63 672 135 q 383 -8 515 -8 q 173 63 251 -8 q 94 289 94 135 m 186 289 q 383 76 186 76 q 581 289 581 76 l 581 719 q 383 931 581 931 q 186 719 186 931 l 186 289 m 271 1288 q 281 1314 271 1301 q 304 1326 290 1326 q 317 1322 311 1326 l 471 1238 q 486 1213 486 1231 q 475 1185 486 1197 q 450 1174 464 1174 q 436 1178 442 1174 l 289 1257 q 271 1288 271 1265 z "},"Ó":{"ha":767,"x_min":94,"x_max":672,"o":"m 94 289 l 94 719 q 173 944 94 872 q 383 1015 251 1015 q 594 944 515 1015 q 672 719 672 872 l 672 289 q 594 63 672 135 q 383 -8 515 -8 q 173 63 251 -8 q 94 289 94 135 m 186 289 q 383 76 186 76 q 581 289 581 76 l 581 719 q 383 931 581 931 q 186 719 186 931 l 186 289 m 292 1213 q 307 1238 292 1231 l 463 1322 q 474 1326 467 1326 q 498 1315 489 1326 q 507 1288 507 1303 q 490 1257 507 1265 l 342 1178 q 328 1174 336 1174 q 303 1185 314 1174 q 292 1213 292 1197 z "},"Ô":{"ha":767,"x_min":94,"x_max":672,"o":"m 94 289 l 94 719 q 173 944 94 872 q 383 1015 251 1015 q 594 944 515 1015 q 672 719 672 872 l 672 289 q 594 63 672 135 q 383 -8 515 -8 q 173 63 251 -8 q 94 289 94 135 m 186 289 q 383 76 186 76 q 581 289 581 76 l 581 719 q 383 931 581 931 q 186 719 186 931 l 186 289 m 197 1211 q 215 1242 197 1232 l 360 1319 q 383 1326 371 1326 q 407 1319 396 1326 l 551 1242 q 569 1210 569 1233 q 561 1186 569 1196 q 542 1176 553 1176 q 528 1181 540 1176 l 383 1257 l 239 1179 l 226 1175 q 206 1186 215 1175 q 197 1211 197 1197 z "},"Õ":{"ha":767,"x_min":94,"x_max":672,"o":"m 94 289 l 94 719 q 173 944 94 872 q 383 1015 251 1015 q 594 944 515 1015 q 672 719 672 872 l 672 289 q 594 63 672 135 q 383 -8 515 -8 q 173 63 251 -8 q 94 289 94 135 m 194 1203 q 168 1238 168 1203 q 209 1294 168 1272 q 290 1317 250 1317 q 382 1293 326 1317 q 474 1269 438 1269 q 536 1290 510 1269 q 571 1310 563 1310 q 591 1299 583 1310 q 599 1278 599 1289 q 560 1219 599 1239 q 482 1199 521 1199 q 390 1223 444 1199 q 297 1247 335 1247 q 232 1225 263 1247 q 194 1203 201 1203 m 186 289 q 383 76 186 76 q 581 289 581 76 l 581 719 q 383 931 581 931 q 186 719 186 931 l 186 289 z "},"Ö":{"ha":767,"x_min":94,"x_max":672,"o":"m 94 289 l 94 719 q 173 944 94 872 q 383 1015 251 1015 q 594 944 515 1015 q 672 719 672 872 l 672 289 q 594 63 672 135 q 383 -8 515 -8 q 173 63 251 -8 q 94 289 94 135 m 186 289 q 383 76 186 76 q 581 289 581 76 l 581 719 q 383 931 581 931 q 186 719 186 931 l 186 289 m 247 1228 q 262 1264 247 1250 q 299 1278 276 1278 q 334 1264 319 1278 q 349 1228 349 1250 q 334 1192 349 1207 q 299 1176 319 1176 q 262 1192 276 1176 q 247 1228 247 1207 m 418 1228 q 433 1264 418 1250 q 469 1278 447 1278 q 506 1264 492 1278 q 519 1228 519 1250 q 505 1192 519 1207 q 469 1176 490 1176 q 433 1192 447 1176 q 418 1228 418 1207 z "},"×":{"ha":553,"x_min":81,"x_max":471,"o":"m 81 231 q 90 253 81 243 l 224 382 l 90 511 q 82 535 82 519 q 95 563 82 550 q 124 576 108 576 q 149 568 139 576 l 275 439 l 404 568 q 428 576 413 576 q 458 563 444 576 q 471 535 471 550 q 461 511 471 521 l 329 382 l 463 253 q 471 231 471 244 q 458 201 471 214 q 428 188 444 188 q 406 197 415 188 l 275 326 l 147 197 q 124 188 138 188 q 94 201 108 188 q 81 231 81 215 z "},"Ø":{"ha":767,"x_min":83,"x_max":685,"o":"m 83 -3 q 88 14 83 6 l 136 110 q 94 289 94 176 l 94 719 q 173 944 94 872 q 383 1015 251 1015 q 571 961 499 1015 l 617 1051 q 644 1068 624 1068 q 672 1057 658 1068 q 685 1031 685 1046 q 679 1013 685 1019 l 625 906 q 672 719 672 832 l 672 289 q 594 63 672 135 q 383 -8 515 -8 q 188 51 261 -8 l 153 -17 q 119 -37 144 -37 q 94 -27 106 -37 q 83 -3 83 -17 m 186 289 q 192 219 186 247 l 528 879 q 383 931 478 931 q 186 719 186 931 l 186 289 m 231 136 q 383 76 281 76 q 581 289 581 76 l 581 719 q 571 800 581 758 l 231 136 z "},"Ù":{"ha":786,"x_min":101,"x_max":685,"o":"m 101 289 l 101 982 q 147 1015 101 1015 q 193 982 193 1015 l 193 289 q 245 130 193 183 q 393 76 297 76 q 541 130 489 76 q 593 289 593 183 l 593 982 q 639 1015 593 1015 q 685 982 685 1015 l 685 289 q 605 63 685 135 q 393 -8 525 -8 q 181 63 261 -8 q 101 289 101 135 m 278 1288 q 288 1314 278 1301 q 311 1326 297 1326 q 324 1322 317 1326 l 478 1238 q 493 1213 493 1231 q 482 1185 493 1197 q 457 1174 471 1174 q 443 1178 450 1174 l 296 1257 q 278 1288 278 1265 z "},"Ú":{"ha":786,"x_min":101,"x_max":685,"o":"m 101 289 l 101 982 q 147 1015 101 1015 q 193 982 193 1015 l 193 289 q 245 130 193 183 q 393 76 297 76 q 541 130 489 76 q 593 289 593 183 l 593 982 q 639 1015 593 1015 q 685 982 685 1015 l 685 289 q 605 63 685 135 q 393 -8 525 -8 q 181 63 261 -8 q 101 289 101 135 m 294 1213 q 310 1238 294 1231 l 465 1322 q 476 1326 469 1326 q 501 1315 492 1326 q 510 1288 510 1303 q 493 1257 510 1265 l 344 1178 q 331 1174 339 1174 q 306 1185 317 1174 q 294 1213 294 1197 z "},"Û":{"ha":786,"x_min":101,"x_max":685,"o":"m 101 289 l 101 982 q 147 1015 101 1015 q 193 982 193 1015 l 193 289 q 245 130 193 183 q 393 76 297 76 q 541 130 489 76 q 593 289 593 183 l 593 982 q 639 1015 593 1015 q 685 982 685 1015 l 685 289 q 605 63 685 135 q 393 -8 525 -8 q 181 63 261 -8 q 101 289 101 135 m 204 1211 q 222 1242 204 1232 l 367 1319 q 390 1326 378 1326 q 414 1319 403 1326 l 558 1242 q 576 1210 576 1233 q 568 1186 576 1196 q 549 1176 560 1176 q 535 1181 547 1176 l 390 1257 l 246 1179 l 233 1175 q 213 1186 222 1175 q 204 1211 204 1197 z "},"Ü":{"ha":786,"x_min":101,"x_max":685,"o":"m 101 289 l 101 982 q 147 1015 101 1015 q 193 982 193 1015 l 193 289 q 245 130 193 183 q 393 76 297 76 q 541 130 489 76 q 593 289 593 183 l 593 982 q 639 1015 593 1015 q 685 982 685 1015 l 685 289 q 605 63 685 135 q 393 -8 525 -8 q 181 63 261 -8 q 101 289 101 135 m 257 1228 q 272 1264 257 1250 q 308 1278 286 1278 q 344 1264 329 1278 q 358 1228 358 1250 q 344 1192 358 1207 q 308 1176 329 1176 q 272 1192 286 1176 q 257 1228 257 1207 m 428 1228 q 442 1264 428 1250 q 479 1278 457 1278 q 515 1264 501 1278 q 529 1228 529 1250 q 515 1192 529 1207 q 479 1176 500 1176 q 442 1192 457 1176 q 428 1228 428 1207 z "},"Ý":{"ha":738,"x_min":26,"x_max":711,"o":"m 26 976 q 42 1004 26 993 q 76 1015 58 1015 q 113 988 99 1015 l 368 481 l 625 988 q 661 1015 639 1015 q 695 1004 679 1015 q 711 976 711 993 q 706 951 711 964 l 417 400 q 414 389 414 392 l 414 36 q 401 10 414 19 q 368 0 388 0 q 336 10 350 0 q 322 36 322 19 l 322 389 q 321 400 322 396 l 33 951 q 26 976 26 964 m 268 1213 q 283 1238 268 1231 l 439 1322 q 450 1326 443 1326 q 474 1315 465 1326 q 483 1288 483 1303 q 467 1257 483 1265 l 318 1178 q 304 1174 311 1174 q 279 1185 290 1174 q 268 1213 268 1197 z "},"Þ":{"ha":688,"x_min":106,"x_max":628,"o":"m 106 36 l 106 989 q 149 1021 106 1021 q 183 1012 169 1021 q 196 988 196 1003 l 196 754 q 388 860 253 860 q 557 799 486 860 q 628 636 628 738 l 628 413 q 557 249 628 313 q 394 185 486 185 q 272 217 329 185 q 196 294 214 249 l 196 36 q 182 11 196 22 q 150 0 168 0 q 119 11 132 0 q 106 36 106 22 m 196 407 q 247 313 196 357 q 372 268 299 268 q 488 307 439 268 q 538 413 538 346 l 538 636 q 489 739 538 701 q 372 776 440 776 q 248 737 300 776 q 196 636 196 697 l 196 407 z "},"ß":{"ha":765,"x_min":8,"x_max":711,"o":"m 8 619 q 17 646 8 635 q 40 657 26 657 l 142 657 l 142 810 q 198 994 142 922 q 372 1067 254 1067 q 543 1003 478 1067 q 608 815 608 940 q 582 670 608 738 q 510 581 556 603 q 648 486 585 567 q 711 303 711 406 l 711 279 q 638 52 711 132 q 458 -28 564 -28 q 311 33 311 -28 q 319 63 311 49 q 339 76 326 76 q 376 63 342 76 q 447 50 411 50 q 578 108 531 50 q 625 274 625 165 l 625 297 q 572 453 625 388 q 413 531 519 519 q 388 535 396 532 q 372 546 379 538 q 365 568 365 554 q 377 597 365 590 q 414 608 389 604 q 529 792 529 618 q 491 933 529 882 q 376 983 453 983 q 266 934 300 983 q 232 810 232 885 l 232 35 q 218 10 232 19 q 185 0 204 0 q 153 10 165 0 q 142 35 142 19 l 142 582 l 40 582 q 17 592 26 582 q 8 619 8 603 z "},"à":{"ha":608,"x_min":42,"x_max":526,"o":"m 42 174 q 124 322 42 281 q 365 364 207 364 l 436 364 l 436 397 q 396 530 436 474 q 272 586 356 586 q 172 566 217 586 q 124 546 126 546 q 97 561 107 546 q 88 594 88 576 q 147 643 88 621 q 275 665 207 665 q 466 590 406 665 q 526 397 526 514 l 526 36 q 514 10 526 21 q 482 0 501 0 q 452 10 464 0 q 440 36 440 21 l 440 97 q 231 -10 347 -10 q 94 37 147 -10 q 42 174 42 83 m 132 182 q 165 95 132 124 q 253 67 199 67 q 377 115 318 67 q 436 213 436 164 l 436 301 l 378 301 q 284 297 322 301 q 208 282 246 293 q 151 246 171 271 q 132 182 132 221 m 178 935 q 188 961 178 949 q 211 974 197 974 q 224 969 217 974 l 378 885 q 393 860 393 878 q 382 833 393 844 q 357 821 371 821 q 343 825 350 821 l 196 904 q 178 935 178 913 z "},"á":{"ha":608,"x_min":42,"x_max":526,"o":"m 42 174 q 124 322 42 281 q 365 364 207 364 l 436 364 l 436 397 q 396 530 436 474 q 272 586 356 586 q 172 566 217 586 q 124 546 126 546 q 97 561 107 546 q 88 594 88 576 q 147 643 88 621 q 275 665 207 665 q 466 590 406 665 q 526 397 526 514 l 526 36 q 514 10 526 21 q 482 0 501 0 q 452 10 464 0 q 440 36 440 21 l 440 97 q 231 -10 347 -10 q 94 37 147 -10 q 42 174 42 83 m 132 182 q 165 95 132 124 q 253 67 199 67 q 377 115 318 67 q 436 213 436 164 l 436 301 l 378 301 q 284 297 322 301 q 208 282 246 293 q 151 246 171 271 q 132 182 132 221 m 185 860 q 200 885 185 878 l 356 969 q 367 974 360 974 q 391 962 382 974 q 400 935 400 950 q 383 904 400 913 l 235 825 q 221 821 228 821 q 196 833 207 821 q 185 860 185 844 z "},"â":{"ha":608,"x_min":42,"x_max":526,"o":"m 42 174 q 124 322 42 281 q 365 364 207 364 l 436 364 l 436 397 q 396 530 436 474 q 272 586 356 586 q 172 566 217 586 q 124 546 126 546 q 97 561 107 546 q 88 594 88 576 q 147 643 88 621 q 275 665 207 665 q 466 590 406 665 q 526 397 526 514 l 526 36 q 514 10 526 21 q 482 0 501 0 q 452 10 464 0 q 440 36 440 21 l 440 97 q 231 -10 347 -10 q 94 37 147 -10 q 42 174 42 83 m 100 858 q 118 889 100 879 l 263 967 q 286 974 274 974 q 310 967 299 974 l 454 889 q 472 857 472 881 q 464 833 472 843 q 444 824 456 824 q 431 828 443 824 l 286 904 l 142 826 l 129 822 q 109 833 118 822 q 100 858 100 844 m 132 182 q 165 95 132 124 q 253 67 199 67 q 377 115 318 67 q 436 213 436 164 l 436 301 l 378 301 q 284 297 322 301 q 208 282 246 293 q 151 246 171 271 q 132 182 132 221 z "},"ã":{"ha":608,"x_min":42,"x_max":526,"o":"m 42 174 q 124 322 42 281 q 365 364 207 364 l 436 364 l 436 397 q 396 530 436 474 q 272 586 356 586 q 172 566 217 586 q 124 546 126 546 q 97 561 107 546 q 88 594 88 576 q 147 643 88 621 q 275 665 207 665 q 466 590 406 665 q 526 397 526 514 l 526 36 q 514 10 526 21 q 482 0 501 0 q 452 10 464 0 q 440 36 440 21 l 440 97 q 231 -10 347 -10 q 94 37 147 -10 q 42 174 42 83 m 96 850 q 69 885 69 850 q 110 942 69 919 q 192 964 151 964 q 283 940 228 964 q 375 917 339 917 q 438 937 411 917 q 472 957 464 957 q 492 947 485 957 q 500 925 500 936 q 461 866 500 886 q 383 846 422 846 q 291 870 346 846 q 199 894 236 894 q 133 872 164 894 q 96 850 103 850 m 132 182 q 165 95 132 124 q 253 67 199 67 q 377 115 318 67 q 436 213 436 164 l 436 301 l 378 301 q 284 297 322 301 q 208 282 246 293 q 151 246 171 271 q 132 182 132 221 z "},"ä":{"ha":608,"x_min":42,"x_max":526,"o":"m 42 174 q 124 322 42 281 q 365 364 207 364 l 436 364 l 436 397 q 396 530 436 474 q 272 586 356 586 q 172 566 217 586 q 124 546 126 546 q 97 561 107 546 q 88 594 88 576 q 147 643 88 621 q 275 665 207 665 q 466 590 406 665 q 526 397 526 514 l 526 36 q 514 10 526 21 q 482 0 501 0 q 452 10 464 0 q 440 36 440 21 l 440 97 q 231 -10 347 -10 q 94 37 147 -10 q 42 174 42 83 m 132 182 q 165 95 132 124 q 253 67 199 67 q 377 115 318 67 q 436 213 436 164 l 436 301 l 378 301 q 284 297 322 301 q 208 282 246 293 q 151 246 171 271 q 132 182 132 221 m 149 875 q 163 911 149 897 q 200 925 178 925 q 235 911 221 925 q 250 875 250 897 q 235 839 250 854 q 200 824 221 824 q 163 839 178 824 q 149 875 149 854 m 319 875 q 334 911 319 897 q 371 925 349 925 q 407 911 393 925 q 421 875 421 897 q 406 839 421 854 q 371 824 392 824 q 334 839 349 824 q 319 875 319 854 z "},"å":{"ha":608,"x_min":42,"x_max":526,"o":"m 42 174 q 124 322 42 281 q 365 364 207 364 l 436 364 l 436 397 q 396 530 436 474 q 272 586 356 586 q 172 566 217 586 q 124 546 126 546 q 97 561 107 546 q 88 594 88 576 q 147 643 88 621 q 275 665 207 665 q 466 590 406 665 q 526 397 526 514 l 526 36 q 514 10 526 21 q 482 0 501 0 q 452 10 464 0 q 440 36 440 21 l 440 97 q 231 -10 347 -10 q 94 37 147 -10 q 42 174 42 83 m 132 182 q 165 95 132 124 q 253 67 199 67 q 377 115 318 67 q 436 213 436 164 l 436 301 l 378 301 q 284 297 322 301 q 208 282 246 293 q 151 246 171 271 q 132 182 132 221 m 158 938 q 196 1028 158 989 q 286 1067 233 1067 q 376 1028 338 1067 q 415 938 415 989 q 376 844 415 885 q 286 804 338 804 q 197 844 235 804 q 158 938 158 885 m 204 938 q 229 877 204 904 q 288 850 254 850 q 344 877 319 850 q 368 938 368 904 q 344 993 368 968 q 288 1018 319 1018 q 228 993 253 1018 q 204 938 204 968 z "},"æ":{"ha":1011,"x_min":42,"x_max":961,"o":"m 42 174 q 124 322 42 281 q 364 364 206 364 l 435 364 l 435 397 q 394 531 435 475 q 268 588 353 588 q 169 567 215 588 q 121 547 124 547 q 95 563 106 547 q 85 594 85 579 q 145 644 85 621 q 274 667 206 667 q 486 536 426 667 q 576 630 519 594 q 700 665 633 665 q 881 597 801 665 q 961 397 961 528 q 936 319 961 338 q 840 301 911 301 l 529 301 l 529 250 q 587 119 529 168 q 736 69 644 69 q 817 83 782 69 q 873 111 853 97 q 904 125 893 125 q 931 111 918 125 q 943 82 943 97 q 872 20 943 50 q 722 -10 801 -10 q 576 28 643 -10 q 476 132 510 65 q 369 26 433 61 q 238 -10 306 -10 q 98 38 154 -10 q 42 174 42 85 m 132 179 q 165 96 132 125 q 251 67 199 67 q 378 116 321 67 q 435 213 435 165 l 435 301 l 375 301 q 281 297 319 301 q 206 281 243 293 q 151 244 169 269 q 132 179 132 218 m 529 368 l 804 368 q 860 377 847 368 q 874 413 874 386 q 824 538 874 485 q 700 590 775 590 q 579 541 629 590 q 529 422 529 492 l 529 368 z "},"ç":{"ha":571,"x_min":64,"x_max":536,"o":"m 64 254 l 64 403 q 132 592 64 519 q 332 665 200 665 q 472 635 415 665 q 528 575 528 606 q 515 545 528 560 q 488 531 503 531 q 462 543 479 531 q 413 569 444 556 q 336 582 381 582 q 201 535 247 582 q 154 403 154 488 l 154 254 q 201 121 154 168 q 338 74 247 74 q 417 87 385 74 q 467 113 450 100 q 494 126 485 126 q 524 113 513 126 q 536 82 536 99 q 485 26 536 54 q 358 -8 435 -3 l 338 -85 q 438 -115 404 -86 q 471 -185 471 -143 q 439 -259 471 -226 q 347 -292 407 -292 q 276 -282 313 -292 q 239 -256 239 -272 q 245 -235 239 -247 q 261 -222 251 -222 q 287 -232 263 -222 q 339 -242 311 -242 q 413 -187 413 -242 q 325 -129 413 -136 l 272 -125 l 303 -8 q 124 71 185 0 q 64 254 64 142 z "},"è":{"ha":636,"x_min":63,"x_max":588,"o":"m 63 254 l 63 410 q 140 590 63 514 q 328 665 218 665 q 510 593 433 665 q 588 413 588 521 q 578 350 588 374 q 549 317 569 326 q 513 304 529 307 q 467 301 496 301 l 153 301 l 153 250 q 212 119 153 168 q 364 69 271 69 q 447 83 411 69 q 501 111 482 97 q 531 125 519 125 q 558 110 546 125 q 569 82 569 96 q 510 22 569 53 q 361 -10 450 -10 q 146 63 229 -10 q 63 254 63 136 m 153 368 l 431 368 q 486 377 472 368 q 500 415 500 386 q 451 538 500 485 q 326 590 401 590 q 203 540 254 590 q 153 421 153 490 l 153 368 m 214 935 q 224 961 214 949 q 247 974 233 974 q 260 969 253 974 l 414 885 q 429 860 429 878 q 418 833 429 844 q 393 821 407 821 q 379 825 386 821 l 232 904 q 214 935 214 913 z "},"é":{"ha":636,"x_min":63,"x_max":588,"o":"m 63 254 l 63 410 q 140 590 63 514 q 328 665 218 665 q 510 593 433 665 q 588 413 588 521 q 578 350 588 374 q 549 317 569 326 q 513 304 529 307 q 467 301 496 301 l 153 301 l 153 250 q 212 119 153 168 q 364 69 271 69 q 447 83 411 69 q 501 111 482 97 q 531 125 519 125 q 558 110 546 125 q 569 82 569 96 q 510 22 569 53 q 361 -10 450 -10 q 146 63 229 -10 q 63 254 63 136 m 153 368 l 431 368 q 486 377 472 368 q 500 415 500 386 q 451 538 500 485 q 326 590 401 590 q 203 540 254 590 q 153 421 153 490 l 153 368 m 221 860 q 236 885 221 878 l 392 969 q 403 974 396 974 q 427 962 418 974 q 436 935 436 950 q 419 904 436 913 l 271 825 q 257 821 264 821 q 232 833 243 821 q 221 860 221 844 z "},"ê":{"ha":636,"x_min":63,"x_max":588,"o":"m 63 254 l 63 410 q 140 590 63 514 q 328 665 218 665 q 510 593 433 665 q 588 413 588 521 q 578 350 588 374 q 549 317 569 326 q 513 304 529 307 q 467 301 496 301 l 153 301 l 153 250 q 212 119 153 168 q 364 69 271 69 q 447 83 411 69 q 501 111 482 97 q 531 125 519 125 q 558 110 546 125 q 569 82 569 96 q 510 22 569 53 q 361 -10 450 -10 q 146 63 229 -10 q 63 254 63 136 m 140 858 q 158 889 140 879 l 303 967 q 326 974 314 974 q 350 967 339 974 l 494 889 q 513 857 513 881 q 504 833 513 843 q 485 824 496 824 q 471 828 483 824 l 326 904 l 182 826 l 169 822 q 149 833 158 822 q 140 858 140 844 m 153 368 l 431 368 q 486 377 472 368 q 500 415 500 386 q 451 538 500 485 q 326 590 401 590 q 203 540 254 590 q 153 421 153 490 l 153 368 z "},"ë":{"ha":636,"x_min":63,"x_max":588,"o":"m 63 254 l 63 410 q 140 590 63 514 q 328 665 218 665 q 510 593 433 665 q 588 413 588 521 q 578 350 588 374 q 549 317 569 326 q 513 304 529 307 q 467 301 496 301 l 153 301 l 153 250 q 212 119 153 168 q 364 69 271 69 q 447 83 411 69 q 501 111 482 97 q 531 125 519 125 q 558 110 546 125 q 569 82 569 96 q 510 22 569 53 q 361 -10 450 -10 q 146 63 229 -10 q 63 254 63 136 m 153 368 l 431 368 q 486 377 472 368 q 500 415 500 386 q 451 538 500 485 q 326 590 401 590 q 203 540 254 590 q 153 421 153 490 l 153 368 m 190 875 q 205 911 190 897 q 242 925 219 925 q 277 911 263 925 q 292 875 292 897 q 277 839 292 854 q 242 824 263 824 q 205 839 219 824 q 190 875 190 854 m 361 875 q 376 911 361 897 q 413 925 390 925 q 449 911 435 925 q 463 875 463 897 q 448 839 463 854 q 413 824 433 824 q 376 839 390 824 q 361 875 361 854 z "},"ì":{"ha":265,"x_min":17,"x_max":232,"o":"m 17 935 q 26 961 17 949 q 50 974 36 974 q 63 969 56 974 l 217 885 q 232 860 232 878 q 221 833 232 844 q 196 821 210 821 q 182 825 189 821 l 35 904 q 17 935 17 913 m 88 36 l 88 624 q 100 647 88 638 q 132 657 113 657 q 165 647 151 657 q 178 624 178 638 l 178 36 q 164 11 178 22 q 132 0 150 0 q 101 11 114 0 q 88 36 88 22 z "},"í":{"ha":265,"x_min":31,"x_max":246,"o":"m 31 860 q 46 885 31 878 l 201 969 q 213 974 206 974 q 237 962 228 974 q 246 935 246 950 q 229 904 246 913 l 81 825 q 67 821 75 821 q 42 833 53 821 q 31 860 31 844 m 88 36 l 88 624 q 100 647 88 638 q 132 657 113 657 q 165 647 151 657 q 178 624 178 638 l 178 36 q 164 11 178 22 q 132 0 150 0 q 101 11 114 0 q 88 36 88 22 z "},"î":{"ha":265,"x_min":-54,"x_max":318,"o":"m -54 858 q -36 889 -54 879 l 108 967 q 132 974 119 974 q 156 967 144 974 l 300 889 q 318 857 318 881 q 310 833 318 843 q 290 824 301 824 q 276 828 289 824 l 132 904 l -12 826 l -25 822 q -45 833 -36 822 q -54 858 -54 844 m 88 36 l 88 624 q 100 647 88 638 q 132 657 113 657 q 165 647 151 657 q 178 624 178 638 l 178 36 q 164 11 178 22 q 132 0 150 0 q 101 11 114 0 q 88 36 88 22 z "},"ï":{"ha":265,"x_min":-1,"x_max":271,"o":"m -1 875 q 13 911 -1 897 q 50 925 28 925 q 85 911 71 925 q 100 875 100 897 q 85 839 100 854 q 50 824 71 824 q 13 839 28 824 q -1 875 -1 854 m 88 36 l 88 624 q 100 647 88 638 q 132 657 113 657 q 165 647 151 657 q 178 624 178 638 l 178 36 q 164 11 178 22 q 132 0 150 0 q 101 11 114 0 q 88 36 88 22 m 169 875 q 184 911 169 897 q 221 925 199 925 q 257 911 243 925 q 271 875 271 897 q 256 839 271 854 q 221 824 242 824 q 184 839 199 824 q 169 875 169 854 z "},"ð":{"ha":669,"x_min":61,"x_max":590,"o":"m 61 254 l 61 406 q 134 588 61 510 q 307 665 207 665 q 426 633 369 665 q 500 550 482 601 q 401 850 486 732 l 285 783 q 271 779 278 779 q 246 792 257 779 q 235 819 235 806 q 250 844 235 836 l 357 907 q 211 978 290 975 q 188 1014 188 989 q 200 1046 188 1032 q 239 1060 213 1060 q 436 953 342 1060 l 538 1011 q 550 1015 542 1015 q 575 1003 564 1015 q 586 976 586 992 q 571 951 586 958 l 478 896 q 590 500 590 729 l 590 254 q 510 70 590 150 q 325 -10 431 -10 q 140 70 219 -10 q 61 254 61 150 m 151 254 q 203 128 151 183 q 325 74 254 74 q 449 128 397 74 q 500 254 500 183 l 500 410 q 447 530 500 478 q 325 582 394 582 q 203 528 254 582 q 151 406 151 474 l 151 254 z "},"ñ":{"ha":689,"x_min":88,"x_max":607,"o":"m 88 36 l 88 624 q 100 648 88 639 q 132 657 113 657 q 161 647 149 657 q 174 624 174 638 l 174 560 q 246 635 197 604 q 360 665 294 665 q 533 589 460 665 q 607 406 607 513 l 607 36 q 593 10 607 19 q 561 0 579 0 q 531 10 544 0 q 517 36 517 19 l 517 406 q 465 528 517 474 q 343 582 414 582 q 228 533 278 582 q 178 406 178 485 l 178 36 q 164 11 178 22 q 132 0 150 0 q 100 11 113 0 q 88 36 88 22 m 151 850 q 125 885 125 850 q 166 942 125 919 q 247 964 207 964 q 339 940 283 964 q 431 917 394 917 q 493 937 467 917 q 528 957 519 957 q 548 947 540 957 q 556 925 556 936 q 517 866 556 886 q 439 846 478 846 q 347 870 401 846 q 254 894 292 894 q 189 872 219 894 q 151 850 158 850 z "},"ò":{"ha":650,"x_min":61,"x_max":589,"o":"m 61 254 l 61 406 q 139 588 61 511 q 324 665 217 665 q 510 589 431 665 q 589 406 589 513 l 589 254 q 509 70 589 150 q 324 -10 429 -10 q 140 70 219 -10 q 61 254 61 150 m 151 254 q 202 128 151 183 q 324 74 253 74 q 447 128 396 74 q 499 254 499 183 l 499 406 q 447 528 499 474 q 324 582 394 582 q 202 528 253 582 q 151 406 151 474 l 151 254 m 211 935 q 221 961 211 949 q 244 974 231 974 q 257 969 250 974 l 411 885 q 426 860 426 878 q 415 833 426 844 q 390 821 404 821 q 376 825 383 821 l 229 904 q 211 935 211 913 z "},"ó":{"ha":650,"x_min":61,"x_max":589,"o":"m 61 254 l 61 406 q 139 588 61 511 q 324 665 217 665 q 510 589 431 665 q 589 406 589 513 l 589 254 q 509 70 589 150 q 324 -10 429 -10 q 140 70 219 -10 q 61 254 61 150 m 151 254 q 202 128 151 183 q 324 74 253 74 q 447 128 396 74 q 499 254 499 183 l 499 406 q 447 528 499 474 q 324 582 394 582 q 202 528 253 582 q 151 406 151 474 l 151 254 m 218 860 q 233 885 218 878 l 389 969 q 400 974 393 974 q 424 962 415 974 q 433 935 433 950 q 417 904 433 913 l 268 825 q 254 821 261 821 q 229 833 240 821 q 218 860 218 844 z "},"ô":{"ha":650,"x_min":61,"x_max":589,"o":"m 61 254 l 61 406 q 139 588 61 511 q 324 665 217 665 q 510 589 431 665 q 589 406 589 513 l 589 254 q 509 70 589 150 q 324 -10 429 -10 q 140 70 219 -10 q 61 254 61 150 m 138 858 q 156 889 138 879 l 300 967 q 324 974 311 974 q 347 967 336 974 l 492 889 q 510 857 510 881 q 501 833 510 843 q 482 824 493 824 q 468 828 481 824 l 324 904 l 179 826 l 167 822 q 147 833 156 822 q 138 858 138 844 m 151 254 q 202 128 151 183 q 324 74 253 74 q 447 128 396 74 q 499 254 499 183 l 499 406 q 447 528 499 474 q 324 582 394 582 q 202 528 253 582 q 151 406 151 474 l 151 254 z "},"õ":{"ha":650,"x_min":61,"x_max":589,"o":"m 61 254 l 61 406 q 139 588 61 511 q 324 665 217 665 q 510 589 431 665 q 589 406 589 513 l 589 254 q 509 70 589 150 q 324 -10 429 -10 q 140 70 219 -10 q 61 254 61 150 m 136 850 q 110 885 110 850 q 151 942 110 919 q 232 964 192 964 q 324 940 268 964 q 415 917 379 917 q 478 937 451 917 q 513 957 504 957 q 533 947 525 957 q 540 925 540 936 q 501 866 540 886 q 424 846 463 846 q 331 870 386 846 q 239 894 276 894 q 174 872 204 894 q 136 850 143 850 m 151 254 q 202 128 151 183 q 324 74 253 74 q 447 128 396 74 q 499 254 499 183 l 499 406 q 447 528 499 474 q 324 582 394 582 q 202 528 253 582 q 151 406 151 474 l 151 254 z "},"ö":{"ha":650,"x_min":61,"x_max":589,"o":"m 61 254 l 61 406 q 139 588 61 511 q 324 665 217 665 q 510 589 431 665 q 589 406 589 513 l 589 254 q 509 70 589 150 q 324 -10 429 -10 q 140 70 219 -10 q 61 254 61 150 m 151 254 q 202 128 151 183 q 324 74 253 74 q 447 128 396 74 q 499 254 499 183 l 499 406 q 447 528 499 474 q 324 582 394 582 q 202 528 253 582 q 151 406 151 474 l 151 254 m 189 875 q 203 911 189 897 q 240 925 218 925 q 276 911 261 925 q 290 875 290 897 q 276 839 290 854 q 240 824 261 824 q 203 839 218 824 q 189 875 189 854 m 360 875 q 374 911 360 897 q 411 925 389 925 q 447 911 433 925 q 461 875 461 897 q 447 839 461 854 q 411 824 432 824 q 374 839 389 824 q 360 875 360 854 z "},"÷":{"ha":626,"x_min":57,"x_max":571,"o":"m 57 333 q 67 361 57 350 q 92 372 76 372 l 535 372 q 560 361 549 372 q 571 333 571 350 q 560 306 571 317 q 535 294 549 294 l 92 294 q 57 333 57 294 m 260 60 q 250 70 260 60 q 240 107 240 81 q 260 153 240 133 q 308 174 281 174 q 356 153 336 174 q 376 107 376 133 q 356 60 376 81 q 308 39 336 39 q 260 60 281 39 m 240 561 q 260 608 240 588 q 308 628 281 628 q 356 608 336 628 q 376 561 376 588 q 356 514 376 533 q 308 494 336 494 q 260 514 281 494 q 240 561 240 533 z "},"ø":{"ha":650,"x_min":61,"x_max":589,"o":"m 61 254 l 61 406 q 139 588 61 511 q 324 665 217 665 q 458 628 394 665 l 497 694 q 518 707 504 707 q 540 698 531 707 q 549 676 549 689 q 543 658 549 665 l 506 593 q 589 406 589 514 l 589 254 q 509 70 589 150 q 324 -10 429 -10 q 183 33 246 -10 l 146 -31 q 122 -44 138 -44 q 103 -37 111 -44 q 94 -18 94 -29 q 100 -3 94 -10 l 140 68 q 61 254 61 147 m 151 254 q 186 147 151 194 l 417 553 q 324 582 372 582 q 202 528 253 582 q 151 406 151 474 l 151 254 m 225 107 q 324 74 269 74 q 447 128 396 74 q 499 254 499 183 l 499 406 q 460 514 499 461 l 225 107 z "},"ù":{"ha":689,"x_min":81,"x_max":608,"o":"m 81 251 l 81 622 q 94 646 81 635 q 126 657 107 657 q 157 646 143 657 q 171 622 171 635 l 171 251 q 222 128 171 182 q 344 74 274 74 q 467 128 415 74 q 518 251 518 182 l 518 624 q 532 647 518 638 q 564 657 546 657 q 595 647 582 657 q 608 624 608 638 l 608 251 q 530 69 608 147 q 344 -10 451 -10 q 158 69 236 -10 q 81 251 81 147 m 231 935 q 240 961 231 949 q 264 974 250 974 q 276 969 269 974 l 431 885 q 446 860 446 878 q 435 833 446 844 q 410 821 424 821 q 396 825 403 821 l 249 904 q 231 935 231 913 z "},"ú":{"ha":689,"x_min":81,"x_max":608,"o":"m 81 251 l 81 622 q 94 646 81 635 q 126 657 107 657 q 157 646 143 657 q 171 622 171 635 l 171 251 q 222 128 171 182 q 344 74 274 74 q 467 128 415 74 q 518 251 518 182 l 518 624 q 532 647 518 638 q 564 657 546 657 q 595 647 582 657 q 608 624 608 638 l 608 251 q 530 69 608 147 q 344 -10 451 -10 q 158 69 236 -10 q 81 251 81 147 m 242 860 q 257 885 242 878 l 413 969 q 424 974 417 974 q 448 962 439 974 q 457 935 457 950 q 440 904 457 913 l 292 825 q 278 821 286 821 q 253 833 264 821 q 242 860 242 844 z "},"û":{"ha":689,"x_min":81,"x_max":608,"o":"m 81 251 l 81 622 q 94 646 81 635 q 126 657 107 657 q 157 646 143 657 q 171 622 171 635 l 171 251 q 222 128 171 182 q 344 74 274 74 q 467 128 415 74 q 518 251 518 182 l 518 624 q 532 647 518 638 q 564 657 546 657 q 595 647 582 657 q 608 624 608 638 l 608 251 q 530 69 608 147 q 344 -10 451 -10 q 158 69 236 -10 q 81 251 81 147 m 158 858 q 176 889 158 879 l 321 967 q 344 974 332 974 q 368 967 357 974 l 513 889 q 531 857 531 881 q 522 833 531 843 q 503 824 514 824 q 489 828 501 824 l 344 904 l 200 826 l 188 822 q 167 833 176 822 q 158 858 158 844 z "},"ü":{"ha":689,"x_min":81,"x_max":608,"o":"m 81 251 l 81 622 q 94 646 81 635 q 126 657 107 657 q 157 646 143 657 q 171 622 171 635 l 171 251 q 222 128 171 182 q 344 74 274 74 q 467 128 415 74 q 518 251 518 182 l 518 624 q 532 647 518 638 q 564 657 546 657 q 595 647 582 657 q 608 624 608 638 l 608 251 q 530 69 608 147 q 344 -10 451 -10 q 158 69 236 -10 q 81 251 81 147 m 208 875 q 223 911 208 897 q 260 925 238 925 q 295 911 281 925 q 310 875 310 897 q 295 839 310 854 q 260 824 281 824 q 223 839 238 824 q 208 875 208 854 m 379 875 q 394 911 379 897 q 431 925 408 925 q 467 911 453 925 q 481 875 481 897 q 466 839 481 854 q 431 824 451 824 q 394 839 408 824 q 379 875 379 854 z "},"ý":{"ha":583,"x_min":19,"x_max":563,"o":"m 19 622 q 38 652 19 639 q 75 665 56 665 q 107 646 101 665 l 297 135 l 476 646 q 507 665 485 665 q 544 652 525 665 q 563 621 563 639 q 560 610 563 613 l 344 26 l 319 -42 q 292 -107 313 -60 q 258 -175 272 -154 l 222 -231 q 177 -281 199 -265 q 125 -309 156 -296 q 63 -322 94 -322 q 21 -282 21 -322 q 49 -240 21 -240 q 167 -163 113 -240 q 250 28 222 -86 l 24 610 q 19 622 19 617 m 200 860 q 215 885 200 878 l 371 969 q 382 974 375 974 q 406 962 397 974 q 415 935 415 950 q 399 904 415 913 l 250 825 q 236 821 244 821 q 211 833 222 821 q 200 860 200 844 z "},"þ":{"ha":674,"x_min":89,"x_max":613,"o":"m 89 -287 l 89 1026 q 101 1050 89 1040 q 133 1060 114 1060 q 166 1050 153 1060 q 179 1026 179 1040 l 179 560 q 251 635 204 604 q 363 665 299 665 q 539 589 465 665 q 613 406 613 513 l 613 254 q 538 70 613 150 q 367 -10 464 -10 q 254 22 306 -10 q 179 97 203 53 l 179 -287 q 166 -311 179 -300 q 133 -322 153 -322 q 102 -311 115 -322 q 89 -287 89 -300 m 179 211 q 231 124 179 174 q 350 74 283 74 q 470 129 418 74 q 522 254 522 185 l 522 406 q 470 528 522 474 q 347 582 418 582 q 230 533 281 582 q 179 406 179 485 l 179 211 z "},"ÿ":{"ha":583,"x_min":19,"x_max":563,"o":"m 19 622 q 38 652 19 639 q 75 665 56 665 q 107 646 101 665 l 297 135 l 476 646 q 507 665 485 665 q 544 652 525 665 q 563 621 563 639 q 560 610 563 613 l 344 26 l 319 -42 q 292 -107 313 -60 q 258 -175 272 -154 l 222 -231 q 177 -281 199 -265 q 125 -309 156 -296 q 63 -322 94 -322 q 21 -282 21 -322 q 49 -240 21 -240 q 167 -163 113 -240 q 250 28 222 -86 l 24 610 q 19 622 19 617 m 160 875 q 174 911 160 897 q 211 925 189 925 q 247 911 232 925 q 261 875 261 897 q 247 839 261 854 q 211 824 232 824 q 174 839 189 824 q 160 875 160 854 m 331 875 q 345 911 331 897 q 382 925 360 925 q 418 911 404 925 q 432 875 432 897 q 417 839 432 854 q 382 824 403 824 q 345 839 360 824 q 331 875 331 854 z "},"Ā":{"ha":750,"x_min":29,"x_max":721,"o":"m 29 39 q 31 49 29 46 l 321 992 q 375 1024 331 1024 q 431 992 419 1024 l 719 49 q 720 44 719 47 q 721 40 721 42 q 703 12 721 24 q 665 0 685 0 q 631 24 639 0 l 567 238 l 182 238 l 118 24 q 82 0 113 0 q 46 11 63 0 q 29 39 29 22 m 200 1244 q 195 1249 200 1244 q 190 1269 190 1254 q 200 1295 190 1285 q 225 1306 210 1306 l 524 1306 q 547 1295 536 1306 q 558 1269 558 1285 q 547 1245 558 1256 q 524 1235 536 1235 l 225 1235 q 200 1244 210 1235 m 206 317 l 543 317 l 375 876 l 206 317 z "},"ā":{"ha":608,"x_min":42,"x_max":526,"o":"m 42 174 q 124 322 42 281 q 365 364 207 364 l 436 364 l 436 397 q 396 530 436 474 q 272 586 356 586 q 172 566 217 586 q 124 546 126 546 q 97 561 107 546 q 88 594 88 576 q 147 643 88 621 q 275 665 207 665 q 466 590 406 665 q 526 397 526 514 l 526 36 q 514 10 526 21 q 482 0 501 0 q 452 10 464 0 q 440 36 440 21 l 440 97 q 231 -10 347 -10 q 94 37 147 -10 q 42 174 42 83 m 122 892 q 117 897 122 892 q 113 917 113 901 q 122 942 113 932 q 147 953 132 953 l 446 953 q 469 942 458 953 q 481 917 481 932 q 469 892 481 903 q 446 882 458 882 l 147 882 q 122 892 132 882 m 132 182 q 165 95 132 124 q 253 67 199 67 q 377 115 318 67 q 436 213 436 164 l 436 301 l 378 301 q 284 297 322 301 q 208 282 246 293 q 151 246 171 271 q 132 182 132 221 z "},"Ă":{"ha":750,"x_min":29,"x_max":721,"o":"m 29 39 q 31 49 29 46 l 321 992 q 375 1024 331 1024 q 431 992 419 1024 l 719 49 q 720 44 719 47 q 721 40 721 42 q 703 12 721 24 q 665 0 685 0 q 631 24 639 0 l 567 238 l 182 238 l 118 24 q 82 0 113 0 q 46 11 63 0 q 29 39 29 22 m 206 317 l 543 317 l 375 876 l 206 317 m 213 1344 l 274 1344 q 303 1265 274 1297 q 375 1232 333 1232 q 445 1265 415 1232 q 475 1344 475 1297 l 536 1344 q 487 1231 536 1279 q 375 1182 438 1182 q 261 1231 310 1182 q 213 1344 213 1279 z "},"ă":{"ha":608,"x_min":42,"x_max":526,"o":"m 42 174 q 124 322 42 281 q 365 364 207 364 l 436 364 l 436 397 q 396 530 436 474 q 272 586 356 586 q 172 566 217 586 q 124 546 126 546 q 97 561 107 546 q 88 594 88 576 q 147 643 88 621 q 275 665 207 665 q 466 590 406 665 q 526 397 526 514 l 526 36 q 514 10 526 21 q 482 0 501 0 q 452 10 464 0 q 440 36 440 21 l 440 97 q 231 -10 347 -10 q 94 37 147 -10 q 42 174 42 83 m 132 182 q 165 95 132 124 q 253 67 199 67 q 377 115 318 67 q 436 213 436 164 l 436 301 l 378 301 q 284 297 322 301 q 208 282 246 293 q 151 246 171 271 q 132 182 132 221 m 133 992 l 194 992 q 224 912 194 944 q 296 879 254 879 q 366 912 336 879 q 396 992 396 944 l 457 992 q 408 878 457 926 q 296 829 358 829 q 182 878 231 829 q 133 992 133 926 z "},"Ą":{"ha":750,"x_min":29,"x_max":721,"o":"m 29 39 q 31 49 29 46 l 321 992 q 375 1024 331 1024 q 431 992 419 1024 l 719 49 q 720 44 719 47 q 721 40 721 42 q 689 4 721 18 q 588 -168 588 -82 q 674 -231 588 -231 q 701 -256 701 -231 q 667 -279 701 -279 q 571 -253 610 -279 q 532 -175 532 -228 q 632 18 532 -72 q 631 21 632 19 q 631 24 631 22 l 567 238 l 182 238 l 118 24 q 82 0 113 0 q 46 11 63 0 q 29 39 29 22 m 206 317 l 543 317 l 375 876 l 206 317 z "},"ą":{"ha":608,"x_min":42,"x_max":526,"o":"m 42 174 q 124 322 42 281 q 365 364 207 364 l 436 364 l 436 397 q 396 530 436 474 q 272 586 356 586 q 172 566 217 586 q 124 546 126 546 q 97 561 107 546 q 88 594 88 576 q 147 643 88 621 q 275 665 207 665 q 466 590 406 665 q 526 397 526 514 l 526 36 q 506 4 526 15 q 404 -168 404 -82 q 490 -231 404 -231 q 518 -256 518 -231 q 483 -279 518 -279 q 388 -253 426 -279 q 349 -175 349 -228 q 446 17 349 -74 q 440 36 440 24 l 440 97 q 231 -10 347 -10 q 94 37 147 -10 q 42 174 42 83 m 132 182 q 165 95 132 124 q 253 67 199 67 q 377 115 318 67 q 436 213 436 164 l 436 301 l 378 301 q 284 297 322 301 q 208 282 246 293 q 151 246 171 271 q 132 182 132 221 z "},"Ć":{"ha":726,"x_min":94,"x_max":672,"o":"m 94 289 l 94 719 q 176 943 94 871 q 386 1015 257 1015 q 595 948 518 1015 q 672 783 672 881 q 662 739 672 750 q 626 728 651 728 q 581 763 583 728 q 575 803 579 783 q 558 847 571 822 q 526 889 546 871 q 469 919 506 907 q 386 931 433 931 q 186 719 186 931 l 186 289 q 392 76 186 76 q 489 92 450 76 q 546 139 528 108 q 570 191 564 169 q 581 247 576 213 q 626 283 585 283 q 662 272 651 283 q 672 226 672 260 q 594 60 672 128 q 382 -8 515 -8 q 174 64 254 -8 q 94 289 94 136 m 285 1213 q 300 1238 285 1231 l 456 1322 q 467 1326 460 1326 q 491 1315 482 1326 q 500 1288 500 1303 q 483 1257 500 1265 l 335 1178 q 321 1174 328 1174 q 296 1185 307 1174 q 285 1213 285 1197 z "},"ć":{"ha":571,"x_min":64,"x_max":536,"o":"m 64 254 l 64 403 q 132 592 64 519 q 332 665 200 665 q 472 635 415 665 q 528 575 528 606 q 515 545 528 560 q 488 531 503 531 q 462 543 479 531 q 413 569 444 556 q 336 582 381 582 q 201 535 247 582 q 154 403 154 488 l 154 254 q 201 121 154 168 q 338 74 247 74 q 417 87 385 74 q 467 113 450 100 q 494 126 485 126 q 524 113 513 126 q 536 82 536 99 q 478 20 536 50 q 333 -10 419 -10 q 132 63 200 -10 q 64 254 64 135 m 200 860 q 215 885 200 878 l 371 969 q 382 974 375 974 q 406 962 397 974 q 415 935 415 950 q 399 904 415 913 l 250 825 q 236 821 244 821 q 211 833 222 821 q 200 860 200 844 z "},"Ĉ":{"ha":726,"x_min":94,"x_max":672,"o":"m 94 289 l 94 719 q 176 943 94 871 q 386 1015 257 1015 q 595 948 518 1015 q 672 783 672 881 q 662 739 672 750 q 626 728 651 728 q 581 763 583 728 q 575 803 579 783 q 558 847 571 822 q 526 889 546 871 q 469 919 506 907 q 386 931 433 931 q 186 719 186 931 l 186 289 q 392 76 186 76 q 489 92 450 76 q 546 139 528 108 q 570 191 564 169 q 581 247 576 213 q 626 283 585 283 q 662 272 651 283 q 672 226 672 260 q 594 60 672 128 q 382 -8 515 -8 q 174 64 254 -8 q 94 289 94 136 m 197 1211 q 215 1242 197 1232 l 360 1319 q 383 1326 371 1326 q 407 1319 396 1326 l 551 1242 q 569 1210 569 1233 q 561 1186 569 1196 q 542 1176 553 1176 q 528 1181 540 1176 l 383 1257 l 239 1179 l 226 1175 q 206 1186 215 1175 q 197 1211 197 1197 z "},"ĉ":{"ha":571,"x_min":64,"x_max":536,"o":"m 64 254 l 64 403 q 132 592 64 519 q 332 665 200 665 q 472 635 415 665 q 528 575 528 606 q 515 545 528 560 q 488 531 503 531 q 462 543 479 531 q 413 569 444 556 q 336 582 381 582 q 201 535 247 582 q 154 403 154 488 l 154 254 q 201 121 154 168 q 338 74 247 74 q 417 87 385 74 q 467 113 450 100 q 494 126 485 126 q 524 113 513 126 q 536 82 536 99 q 478 20 536 50 q 333 -10 419 -10 q 132 63 200 -10 q 64 254 64 135 m 118 858 q 136 889 118 879 l 281 967 q 304 974 292 974 q 328 967 317 974 l 472 889 q 490 857 490 881 q 482 833 490 843 q 463 824 474 824 q 449 828 461 824 l 304 904 l 160 826 l 147 822 q 127 833 136 822 q 118 858 118 844 z "},"Ċ":{"ha":726,"x_min":94,"x_max":672,"o":"m 94 289 l 94 719 q 176 943 94 871 q 386 1015 257 1015 q 595 948 518 1015 q 672 783 672 881 q 662 739 672 750 q 626 728 651 728 q 581 763 583 728 q 575 803 579 783 q 558 847 571 822 q 526 889 546 871 q 469 919 506 907 q 386 931 433 931 q 186 719 186 931 l 186 289 q 392 76 186 76 q 489 92 450 76 q 546 139 528 108 q 570 191 564 169 q 581 247 576 213 q 626 283 585 283 q 662 272 651 283 q 672 226 672 260 q 594 60 672 128 q 382 -8 515 -8 q 174 64 254 -8 q 94 289 94 136 m 333 1228 q 348 1264 333 1250 q 385 1278 363 1278 q 420 1264 406 1278 q 435 1228 435 1250 q 420 1192 435 1207 q 385 1176 406 1176 q 348 1192 363 1176 q 333 1228 333 1207 z "},"ċ":{"ha":571,"x_min":64,"x_max":536,"o":"m 64 254 l 64 403 q 132 592 64 519 q 332 665 200 665 q 472 635 415 665 q 528 575 528 606 q 515 545 528 560 q 488 531 503 531 q 462 543 479 531 q 413 569 444 556 q 336 582 381 582 q 201 535 247 582 q 154 403 154 488 l 154 254 q 201 121 154 168 q 338 74 247 74 q 417 87 385 74 q 467 113 450 100 q 494 126 485 126 q 524 113 513 126 q 536 82 536 99 q 478 20 536 50 q 333 -10 419 -10 q 132 63 200 -10 q 64 254 64 135 m 251 875 q 266 911 251 897 q 303 925 281 925 q 338 911 324 925 q 353 875 353 897 q 338 839 353 854 q 303 824 324 824 q 266 839 281 824 q 251 875 251 854 z "},"Č":{"ha":726,"x_min":94,"x_max":672,"o":"m 94 289 l 94 719 q 176 943 94 871 q 386 1015 257 1015 q 595 948 518 1015 q 672 783 672 881 q 662 739 672 750 q 626 728 651 728 q 581 763 583 728 q 575 803 579 783 q 558 847 571 822 q 526 889 546 871 q 469 919 506 907 q 386 931 433 931 q 186 719 186 931 l 186 289 q 392 76 186 76 q 489 92 450 76 q 546 139 528 108 q 570 191 564 169 q 581 247 576 213 q 626 283 585 283 q 662 272 651 283 q 672 226 672 260 q 594 60 672 128 q 382 -8 515 -8 q 174 64 254 -8 q 94 289 94 136 m 196 1338 q 203 1359 196 1350 q 222 1368 211 1368 q 243 1360 235 1368 l 382 1232 l 519 1360 q 540 1368 528 1368 q 559 1359 551 1368 q 567 1338 567 1350 q 550 1306 567 1319 l 410 1181 q 382 1167 393 1167 q 354 1181 368 1167 l 214 1306 q 196 1338 196 1319 z "},"č":{"ha":571,"x_min":64,"x_max":536,"o":"m 64 254 l 64 403 q 132 592 64 519 q 332 665 200 665 q 472 635 415 665 q 528 575 528 606 q 515 545 528 560 q 488 531 503 531 q 462 543 479 531 q 413 569 444 556 q 336 582 381 582 q 201 535 247 582 q 154 403 154 488 l 154 254 q 201 121 154 168 q 338 74 247 74 q 417 87 385 74 q 467 113 450 100 q 494 126 485 126 q 524 113 513 126 q 536 82 536 99 q 478 20 536 50 q 333 -10 419 -10 q 132 63 200 -10 q 64 254 64 135 m 115 985 q 123 1006 115 997 q 142 1015 131 1015 q 163 1007 154 1015 l 301 879 l 439 1007 q 460 1015 447 1015 q 478 1006 471 1015 q 486 985 486 997 q 469 953 486 967 l 329 828 q 301 814 313 814 q 274 828 288 814 l 133 953 q 115 985 115 967 z "},"Ď":{"ha":778,"x_min":106,"x_max":683,"o":"m 106 35 l 106 982 q 117 1006 106 996 q 147 1015 129 1015 l 393 1015 q 604 944 525 1015 q 683 719 683 872 l 683 297 q 604 72 683 143 q 393 0 525 0 l 147 0 q 117 10 129 0 q 106 35 106 21 m 197 85 l 393 85 q 540 138 488 85 q 592 297 592 192 l 592 719 q 540 878 592 825 q 393 931 488 931 l 197 931 l 197 85 m 199 1338 q 206 1359 199 1350 q 225 1368 214 1368 q 246 1360 238 1368 l 385 1232 l 522 1360 q 543 1368 531 1368 q 562 1359 554 1368 q 569 1338 569 1350 q 553 1306 569 1319 l 413 1181 q 385 1167 396 1167 q 357 1181 371 1167 l 217 1306 q 199 1338 199 1319 z "},"ď":{"ha":672,"x_min":63,"x_max":794,"o":"m 63 254 l 63 406 q 135 589 63 513 q 311 665 208 665 q 423 635 375 665 q 494 560 471 604 l 494 1026 q 508 1050 494 1040 q 542 1060 522 1060 q 573 1050 561 1060 q 585 1026 585 1040 l 585 36 q 572 11 585 22 q 542 0 560 0 q 512 11 525 0 q 499 36 499 22 l 499 97 q 423 22 475 53 q 308 -10 371 -10 q 136 70 210 -10 q 63 254 63 150 m 153 254 q 204 129 153 185 q 325 74 256 74 q 443 124 392 74 q 494 211 494 174 l 494 406 q 444 533 494 485 q 326 582 393 582 q 204 528 256 582 q 153 406 153 474 l 153 254 m 667 965 q 685 1010 667 992 q 731 1029 704 1029 q 776 1010 757 1029 q 794 965 794 992 q 738 808 794 933 q 713 792 731 792 q 690 800 700 792 q 679 821 679 808 q 682 833 679 829 l 708 906 q 667 965 667 919 z "},"Đ":{"ha":790,"x_min":-1,"x_max":696,"o":"m -1 533 q 8 560 -1 549 q 31 571 17 571 l 118 571 l 118 982 q 130 1006 118 996 q 160 1015 142 1015 l 406 1015 q 617 944 538 1015 q 696 719 696 872 l 696 297 q 617 72 696 143 q 406 0 538 0 l 160 0 q 130 10 142 0 q 118 35 118 21 l 118 496 l 31 496 q 8 506 17 496 q -1 533 -1 517 m 210 85 l 406 85 q 552 138 500 85 q 604 297 604 192 l 604 719 q 552 878 604 825 q 406 931 500 931 l 210 931 l 210 571 l 367 571 q 390 560 381 571 q 399 533 399 549 q 390 507 399 518 q 367 496 381 496 l 210 496 l 210 85 z "},"đ":{"ha":672,"x_min":63,"x_max":685,"o":"m 63 254 l 63 406 q 135 589 63 513 q 311 665 208 665 q 423 635 375 665 q 494 560 471 604 l 494 797 l 331 797 q 308 808 317 797 q 299 833 299 818 q 308 860 299 849 q 331 871 317 871 l 494 871 l 494 1026 q 508 1050 494 1040 q 542 1060 522 1060 q 573 1050 561 1060 q 585 1026 585 1040 l 585 871 l 653 871 q 676 860 667 871 q 685 833 685 849 q 676 808 685 818 q 653 797 667 797 l 585 797 l 585 36 q 572 11 585 22 q 542 0 560 0 q 512 11 525 0 q 499 36 499 22 l 499 97 q 423 22 475 53 q 308 -10 371 -10 q 136 70 210 -10 q 63 254 63 150 m 153 254 q 204 129 153 185 q 325 74 256 74 q 443 124 392 74 q 494 211 494 174 l 494 406 q 444 533 494 485 q 326 582 393 582 q 204 528 256 582 q 153 406 153 474 l 153 254 z "},"Ē":{"ha":706,"x_min":106,"x_max":676,"o":"m 106 36 l 106 981 q 118 1006 106 997 q 147 1015 131 1015 l 642 1015 q 676 975 676 1015 q 667 944 676 957 q 642 931 658 931 l 197 931 l 197 549 l 415 549 q 441 537 432 549 q 450 507 450 525 q 415 469 450 469 l 197 469 l 197 85 l 642 85 q 667 72 657 85 q 676 42 676 60 q 642 0 676 0 l 147 0 q 118 10 131 0 q 106 36 106 19 m 218 1244 q 213 1249 218 1244 q 208 1269 208 1254 q 218 1295 208 1285 q 243 1306 228 1306 l 542 1306 q 565 1295 554 1306 q 576 1269 576 1285 q 565 1245 576 1256 q 542 1235 554 1235 l 243 1235 q 218 1244 228 1235 z "},"ē":{"ha":636,"x_min":63,"x_max":588,"o":"m 63 254 l 63 410 q 140 590 63 514 q 328 665 218 665 q 510 593 433 665 q 588 413 588 521 q 578 350 588 374 q 549 317 569 326 q 513 304 529 307 q 467 301 496 301 l 153 301 l 153 250 q 212 119 153 168 q 364 69 271 69 q 447 83 411 69 q 501 111 482 97 q 531 125 519 125 q 558 110 546 125 q 569 82 569 96 q 510 22 569 53 q 361 -10 450 -10 q 146 63 229 -10 q 63 254 63 136 m 153 892 q 148 897 153 892 q 143 917 143 901 q 153 942 143 932 q 178 953 163 953 l 476 953 q 500 942 489 953 q 511 917 511 932 q 500 892 511 903 q 476 882 489 882 l 178 882 q 153 892 163 882 m 153 368 l 431 368 q 486 377 472 368 q 500 415 500 386 q 451 538 500 485 q 326 590 401 590 q 203 540 254 590 q 153 421 153 490 l 153 368 z "},"Ĕ":{"ha":706,"x_min":106,"x_max":676,"o":"m 106 36 l 106 981 q 118 1006 106 997 q 147 1015 131 1015 l 642 1015 q 676 975 676 1015 q 667 944 676 957 q 642 931 658 931 l 197 931 l 197 549 l 415 549 q 441 537 432 549 q 450 507 450 525 q 415 469 450 469 l 197 469 l 197 85 l 642 85 q 667 72 657 85 q 676 42 676 60 q 642 0 676 0 l 147 0 q 118 10 131 0 q 106 36 106 19 m 228 1344 l 289 1344 q 319 1265 289 1297 q 390 1232 349 1232 q 460 1265 431 1232 q 490 1344 490 1297 l 551 1344 q 502 1231 551 1279 q 390 1182 453 1182 q 276 1231 325 1182 q 228 1344 228 1279 z "},"ĕ":{"ha":636,"x_min":63,"x_max":588,"o":"m 63 254 l 63 410 q 140 590 63 514 q 328 665 218 665 q 510 593 433 665 q 588 413 588 521 q 578 350 588 374 q 549 317 569 326 q 513 304 529 307 q 467 301 496 301 l 153 301 l 153 250 q 212 119 153 168 q 364 69 271 69 q 447 83 411 69 q 501 111 482 97 q 531 125 519 125 q 558 110 546 125 q 569 82 569 96 q 510 22 569 53 q 361 -10 450 -10 q 146 63 229 -10 q 63 254 63 136 m 153 368 l 431 368 q 486 377 472 368 q 500 415 500 386 q 451 538 500 485 q 326 590 401 590 q 203 540 254 590 q 153 421 153 490 l 153 368 m 164 992 l 225 992 q 255 912 225 944 q 326 879 285 879 q 397 912 367 879 q 426 992 426 944 l 488 992 q 438 878 488 926 q 326 829 389 829 q 213 878 261 829 q 164 992 164 926 z "},"Ė":{"ha":706,"x_min":106,"x_max":676,"o":"m 106 36 l 106 981 q 118 1006 106 997 q 147 1015 131 1015 l 642 1015 q 676 975 676 1015 q 667 944 676 957 q 642 931 658 931 l 197 931 l 197 549 l 415 549 q 441 537 432 549 q 450 507 450 525 q 415 469 450 469 l 197 469 l 197 85 l 642 85 q 667 72 657 85 q 676 42 676 60 q 642 0 676 0 l 147 0 q 118 10 131 0 q 106 36 106 19 m 344 1228 q 359 1264 344 1250 q 396 1278 374 1278 q 431 1264 417 1278 q 446 1228 446 1250 q 431 1192 446 1207 q 396 1176 417 1176 q 359 1192 374 1176 q 344 1228 344 1207 z "},"ė":{"ha":636,"x_min":63,"x_max":588,"o":"m 63 254 l 63 410 q 140 590 63 514 q 328 665 218 665 q 510 593 433 665 q 588 413 588 521 q 578 350 588 374 q 549 317 569 326 q 513 304 529 307 q 467 301 496 301 l 153 301 l 153 250 q 212 119 153 168 q 364 69 271 69 q 447 83 411 69 q 501 111 482 97 q 531 125 519 125 q 558 110 546 125 q 569 82 569 96 q 510 22 569 53 q 361 -10 450 -10 q 146 63 229 -10 q 63 254 63 136 m 153 368 l 431 368 q 486 377 472 368 q 500 415 500 386 q 451 538 500 485 q 326 590 401 590 q 203 540 254 590 q 153 421 153 490 l 153 368 m 276 875 q 291 911 276 897 q 328 925 306 925 q 363 911 349 925 q 378 875 378 897 q 363 839 378 854 q 328 824 349 824 q 291 839 306 824 q 276 875 276 854 z "},"Ę":{"ha":706,"x_min":106,"x_max":676,"o":"m 106 36 l 106 981 q 118 1006 106 997 q 147 1015 131 1015 l 642 1015 q 676 975 676 1015 q 667 944 676 957 q 642 931 658 931 l 197 931 l 197 549 l 415 549 q 441 537 432 549 q 450 507 450 525 q 415 469 450 469 l 197 469 l 197 85 l 642 85 q 667 72 657 85 q 676 42 676 60 q 656 3 676 13 q 557 -168 557 -83 q 643 -231 557 -231 q 671 -256 671 -231 q 636 -279 671 -279 q 540 -253 579 -279 q 501 -175 501 -228 q 582 0 501 -83 l 147 0 q 118 10 131 0 q 106 36 106 19 z "},"ę":{"ha":636,"x_min":63,"x_max":588,"o":"m 63 254 l 63 410 q 140 590 63 514 q 328 665 218 665 q 510 593 433 665 q 588 413 588 521 q 578 350 588 374 q 549 317 569 326 q 513 304 529 307 q 467 301 496 301 l 153 301 l 153 250 q 212 119 153 168 q 364 69 271 69 q 447 83 411 69 q 501 111 482 97 q 531 125 519 125 q 558 110 546 125 q 569 82 569 96 q 508 21 569 51 q 418 -142 418 -62 q 504 -204 418 -204 q 532 -229 532 -204 q 497 -253 532 -253 q 401 -227 440 -253 q 363 -149 363 -201 q 415 -6 363 -74 q 361 -10 390 -10 q 146 63 229 -10 q 63 254 63 136 m 153 368 l 431 368 q 486 377 472 368 q 500 415 500 386 q 451 538 500 485 q 326 590 401 590 q 203 540 254 590 q 153 421 153 490 l 153 368 z "},"Ě":{"ha":706,"x_min":106,"x_max":676,"o":"m 106 36 l 106 981 q 118 1006 106 997 q 147 1015 131 1015 l 642 1015 q 676 975 676 1015 q 667 944 676 957 q 642 931 658 931 l 197 931 l 197 549 l 415 549 q 441 537 432 549 q 450 507 450 525 q 415 469 450 469 l 197 469 l 197 85 l 642 85 q 667 72 657 85 q 676 42 676 60 q 642 0 676 0 l 147 0 q 118 10 131 0 q 106 36 106 19 m 203 1338 q 210 1359 203 1350 q 229 1368 218 1368 q 250 1360 242 1368 l 389 1232 l 526 1360 q 547 1368 535 1368 q 566 1359 558 1368 q 574 1338 574 1350 q 557 1306 574 1319 l 417 1181 q 389 1167 400 1167 q 361 1181 375 1167 l 221 1306 q 203 1338 203 1319 z "},"ě":{"ha":636,"x_min":63,"x_max":588,"o":"m 63 254 l 63 410 q 140 590 63 514 q 328 665 218 665 q 510 593 433 665 q 588 413 588 521 q 578 350 588 374 q 549 317 569 326 q 513 304 529 307 q 467 301 496 301 l 153 301 l 153 250 q 212 119 153 168 q 364 69 271 69 q 447 83 411 69 q 501 111 482 97 q 531 125 519 125 q 558 110 546 125 q 569 82 569 96 q 510 22 569 53 q 361 -10 450 -10 q 146 63 229 -10 q 63 254 63 136 m 140 985 q 148 1006 140 997 q 167 1015 156 1015 q 188 1007 179 1015 l 326 879 l 464 1007 q 485 1015 472 1015 q 503 1006 496 1015 q 511 985 511 997 q 494 953 511 967 l 354 828 q 326 814 338 814 q 299 828 313 814 l 158 953 q 140 985 140 967 m 153 368 l 431 368 q 486 377 472 368 q 500 415 500 386 q 451 538 500 485 q 326 590 401 590 q 203 540 254 590 q 153 421 153 490 l 153 368 z "},"Ĝ":{"ha":751,"x_min":94,"x_max":672,"o":"m 94 289 l 94 719 q 173 944 94 872 q 382 1015 251 1015 q 593 948 514 1015 q 672 775 672 881 q 626 728 672 728 q 581 763 582 728 q 383 931 561 931 q 186 719 186 931 l 186 289 q 238 129 186 182 q 383 76 289 76 q 529 129 478 76 q 581 289 581 182 l 581 454 l 394 454 q 370 466 379 454 q 361 494 361 478 q 370 522 361 510 q 394 533 379 533 l 639 533 q 672 497 672 533 l 672 289 q 594 63 672 135 q 383 -8 515 -8 q 173 63 251 -8 q 94 289 94 135 m 192 1211 q 210 1242 192 1232 l 354 1319 q 378 1326 365 1326 q 401 1319 390 1326 l 546 1242 q 564 1210 564 1233 q 556 1186 564 1196 q 536 1176 547 1176 q 522 1181 535 1176 l 378 1257 l 233 1179 l 221 1175 q 201 1186 210 1175 q 192 1211 192 1197 z "},"ĝ":{"ha":628,"x_min":35,"x_max":611,"o":"m 35 -137 q 153 14 35 -33 q 76 110 76 40 q 146 210 76 172 q 69 385 69 274 l 69 438 q 135 602 69 539 q 308 665 201 665 q 471 607 406 665 q 518 671 492 647 q 569 694 544 694 q 600 683 589 694 q 611 658 611 672 q 588 628 611 633 q 510 568 539 618 q 549 438 549 517 l 549 385 q 481 219 549 285 q 307 154 413 154 q 200 178 250 154 q 157 124 157 154 q 189 79 157 94 q 269 60 221 64 q 373 47 317 56 q 477 24 429 38 q 557 -28 525 10 q 589 -125 589 -65 q 514 -271 589 -219 q 317 -322 439 -322 q 113 -272 192 -322 q 35 -137 35 -222 m 122 -129 q 174 -221 122 -186 q 315 -256 226 -256 q 452 -221 403 -256 q 501 -128 501 -186 q 488 -79 501 -100 q 455 -47 474 -58 q 406 -28 436 -36 q 352 -17 375 -19 q 294 -11 329 -14 l 246 -6 q 122 -129 122 -44 m 138 858 q 156 889 138 879 l 300 967 q 324 974 311 974 q 347 967 336 974 l 492 889 q 510 857 510 881 q 501 833 510 843 q 482 824 493 824 q 468 828 481 824 l 324 904 l 179 826 l 167 822 q 147 833 156 822 q 138 858 138 844 m 157 386 q 198 268 157 314 q 310 222 239 222 q 419 268 378 222 q 460 385 460 314 l 460 438 q 419 552 460 507 q 308 597 378 597 q 198 552 239 597 q 157 438 157 507 l 157 386 z "},"Ğ":{"ha":751,"x_min":94,"x_max":672,"o":"m 94 289 l 94 719 q 173 944 94 872 q 382 1015 251 1015 q 593 948 514 1015 q 672 775 672 881 q 626 728 672 728 q 581 763 582 728 q 383 931 561 931 q 186 719 186 931 l 186 289 q 238 129 186 182 q 383 76 289 76 q 529 129 478 76 q 581 289 581 182 l 581 454 l 394 454 q 370 466 379 454 q 361 494 361 478 q 370 522 361 510 q 394 533 379 533 l 639 533 q 672 497 672 533 l 672 289 q 594 63 672 135 q 383 -8 515 -8 q 173 63 251 -8 q 94 289 94 135 m 221 1344 l 282 1344 q 312 1265 282 1297 q 383 1232 342 1232 q 453 1265 424 1232 q 483 1344 483 1297 l 544 1344 q 495 1231 544 1279 q 383 1182 446 1182 q 269 1231 318 1182 q 221 1344 221 1279 z "},"ğ":{"ha":628,"x_min":35,"x_max":611,"o":"m 35 -137 q 153 14 35 -33 q 76 110 76 40 q 146 210 76 172 q 69 385 69 274 l 69 438 q 135 602 69 539 q 308 665 201 665 q 471 607 406 665 q 518 671 492 647 q 569 694 544 694 q 600 683 589 694 q 611 658 611 672 q 588 628 611 633 q 510 568 539 618 q 549 438 549 517 l 549 385 q 481 219 549 285 q 307 154 413 154 q 200 178 250 154 q 157 124 157 154 q 189 79 157 94 q 269 60 221 64 q 373 47 317 56 q 477 24 429 38 q 557 -28 525 10 q 589 -125 589 -65 q 514 -271 589 -219 q 317 -322 439 -322 q 113 -272 192 -322 q 35 -137 35 -222 m 122 -129 q 174 -221 122 -186 q 315 -256 226 -256 q 452 -221 403 -256 q 501 -128 501 -186 q 488 -79 501 -100 q 455 -47 474 -58 q 406 -28 436 -36 q 352 -17 375 -19 q 294 -11 329 -14 l 246 -6 q 122 -129 122 -44 m 157 386 q 198 268 157 314 q 310 222 239 222 q 419 268 378 222 q 460 385 460 314 l 460 438 q 419 552 460 507 q 308 597 378 597 q 198 552 239 597 q 157 438 157 507 l 157 386 m 161 992 l 222 992 q 252 912 222 944 q 324 879 282 879 q 394 912 364 879 q 424 992 424 944 l 485 992 q 435 878 485 926 q 324 829 386 829 q 210 878 258 829 q 161 992 161 926 z "},"Ġ":{"ha":751,"x_min":94,"x_max":672,"o":"m 94 289 l 94 719 q 173 944 94 872 q 382 1015 251 1015 q 593 948 514 1015 q 672 775 672 881 q 626 728 672 728 q 581 763 582 728 q 383 931 561 931 q 186 719 186 931 l 186 289 q 238 129 186 182 q 383 76 289 76 q 529 129 478 76 q 581 289 581 182 l 581 454 l 394 454 q 370 466 379 454 q 361 494 361 478 q 370 522 361 510 q 394 533 379 533 l 639 533 q 672 497 672 533 l 672 289 q 594 63 672 135 q 383 -8 515 -8 q 173 63 251 -8 q 94 289 94 135 m 332 1228 q 347 1264 332 1250 q 383 1278 361 1278 q 419 1264 404 1278 q 433 1228 433 1250 q 419 1192 433 1207 q 383 1176 404 1176 q 347 1192 361 1176 q 332 1228 332 1207 z "},"ġ":{"ha":628,"x_min":35,"x_max":611,"o":"m 35 -137 q 153 14 35 -33 q 76 110 76 40 q 146 210 76 172 q 69 385 69 274 l 69 438 q 135 602 69 539 q 308 665 201 665 q 471 607 406 665 q 518 671 492 647 q 569 694 544 694 q 600 683 589 694 q 611 658 611 672 q 588 628 611 633 q 510 568 539 618 q 549 438 549 517 l 549 385 q 481 219 549 285 q 307 154 413 154 q 200 178 250 154 q 157 124 157 154 q 189 79 157 94 q 269 60 221 64 q 373 47 317 56 q 477 24 429 38 q 557 -28 525 10 q 589 -125 589 -65 q 514 -271 589 -219 q 317 -322 439 -322 q 113 -272 192 -322 q 35 -137 35 -222 m 122 -129 q 174 -221 122 -186 q 315 -256 226 -256 q 452 -221 403 -256 q 501 -128 501 -186 q 488 -79 501 -100 q 455 -47 474 -58 q 406 -28 436 -36 q 352 -17 375 -19 q 294 -11 329 -14 l 246 -6 q 122 -129 122 -44 m 157 386 q 198 268 157 314 q 310 222 239 222 q 419 268 378 222 q 460 385 460 314 l 460 438 q 419 552 460 507 q 308 597 378 597 q 198 552 239 597 q 157 438 157 507 l 157 386 m 272 875 q 287 911 272 897 q 324 925 301 925 q 359 911 344 925 q 374 875 374 897 q 359 839 374 854 q 324 824 344 824 q 287 839 301 824 q 272 875 272 854 z "},"Ģ":{"ha":751,"x_min":94,"x_max":672,"o":"m 94 289 l 94 719 q 173 944 94 872 q 382 1015 251 1015 q 593 948 514 1015 q 672 775 672 881 q 626 728 672 728 q 581 763 582 728 q 383 931 561 931 q 186 719 186 931 l 186 289 q 238 129 186 182 q 383 76 289 76 q 529 129 478 76 q 581 289 581 182 l 581 454 l 394 454 q 370 466 379 454 q 361 494 361 478 q 370 522 361 510 q 394 533 379 533 l 639 533 q 672 497 672 533 l 672 289 q 594 63 672 135 q 383 -8 515 -8 q 173 63 251 -8 q 94 289 94 135 m 274 -181 q 289 -156 274 -164 l 443 -69 q 456 -67 451 -67 q 479 -79 469 -67 q 489 -106 489 -92 q 471 -136 489 -126 l 324 -215 q 308 -219 315 -219 q 284 -208 294 -219 q 274 -181 274 -196 z "},"ģ":{"ha":628,"x_min":35,"x_max":611,"o":"m 35 -137 q 153 14 35 -33 q 76 110 76 40 q 146 210 76 172 q 69 385 69 274 l 69 438 q 135 602 69 539 q 308 665 201 665 q 471 607 406 665 q 518 671 492 647 q 569 694 544 694 q 600 683 589 694 q 611 658 611 672 q 588 628 611 633 q 510 568 539 618 q 549 438 549 517 l 549 385 q 481 219 549 285 q 307 154 413 154 q 200 178 250 154 q 157 124 157 154 q 189 79 157 94 q 269 60 221 64 q 373 47 317 56 q 477 24 429 38 q 557 -28 525 10 q 589 -125 589 -65 q 514 -271 589 -219 q 317 -322 439 -322 q 113 -272 192 -322 q 35 -137 35 -222 m 122 -129 q 174 -221 122 -186 q 315 -256 226 -256 q 452 -221 403 -256 q 501 -128 501 -186 q 488 -79 501 -100 q 455 -47 474 -58 q 406 -28 436 -36 q 352 -17 375 -19 q 294 -11 329 -14 l 246 -6 q 122 -129 122 -44 m 157 386 q 198 268 157 314 q 310 222 239 222 q 419 268 378 222 q 460 385 460 314 l 460 438 q 419 552 460 507 q 308 597 378 597 q 198 552 239 597 q 157 438 157 507 l 157 386 m 213 860 q 228 885 213 878 l 383 969 q 394 974 388 974 q 419 962 410 974 q 428 935 428 950 q 411 904 428 913 l 263 825 q 249 821 256 821 q 224 833 235 821 q 213 860 213 844 m 253 1215 q 308 1372 253 1253 q 333 1389 317 1389 q 356 1381 346 1389 q 367 1360 367 1372 q 365 1349 367 1353 l 338 1276 q 379 1217 379 1260 q 360 1170 379 1189 q 315 1151 342 1151 q 271 1170 289 1151 q 253 1215 253 1189 z "},"Ĥ":{"ha":796,"x_min":106,"x_max":690,"o":"m 106 36 l 106 982 q 151 1015 106 1015 q 197 982 197 1015 l 197 567 l 599 567 l 599 982 q 644 1015 599 1015 q 690 982 690 1015 l 690 36 q 676 10 690 19 q 644 0 663 0 q 612 10 625 0 q 599 36 599 19 l 599 488 l 197 488 l 197 36 q 183 10 197 19 q 151 0 169 0 q 119 10 132 0 q 106 36 106 19 m 213 1211 q 231 1242 213 1232 l 375 1319 q 399 1326 386 1326 q 422 1319 411 1326 l 567 1242 q 585 1210 585 1233 q 576 1186 585 1196 q 557 1176 568 1176 q 543 1181 556 1176 l 399 1257 l 254 1179 l 242 1175 q 222 1186 231 1175 q 213 1211 213 1197 z "},"ĥ":{"ha":689,"x_min":-53,"x_max":607,"o":"m -53 1213 q -35 1243 -53 1233 l 110 1321 q 133 1328 121 1328 q 157 1321 146 1328 l 301 1243 q 319 1211 319 1235 q 311 1188 319 1197 q 292 1178 303 1178 q 278 1182 290 1178 l 133 1258 l -11 1181 l -24 1176 q -44 1188 -35 1176 q -53 1213 -53 1199 m 88 36 l 88 1026 q 100 1050 88 1040 q 132 1060 113 1060 q 165 1050 151 1060 q 178 1026 178 1040 l 178 560 q 249 635 201 604 q 361 665 297 665 q 534 589 461 665 q 607 406 607 513 l 607 36 q 594 10 607 19 q 561 0 581 0 q 531 10 544 0 q 517 36 517 19 l 517 406 q 465 528 517 474 q 344 582 414 582 q 228 533 279 582 q 178 406 178 485 l 178 36 q 164 11 178 22 q 132 0 150 0 q 101 11 114 0 q 88 36 88 22 z "},"Ħ":{"ha":796,"x_min":26,"x_max":768,"o":"m 26 785 q 57 821 26 821 l 106 821 l 106 982 q 151 1015 106 1015 q 197 982 197 1015 l 197 821 l 599 821 l 599 982 q 644 1015 599 1015 q 690 982 690 1015 l 690 821 l 736 821 q 759 810 750 821 q 768 785 768 800 q 759 760 768 769 q 736 750 750 750 l 690 750 l 690 36 q 676 10 690 19 q 644 0 663 0 q 612 10 625 0 q 599 36 599 19 l 599 488 l 197 488 l 197 36 q 183 10 197 19 q 151 0 169 0 q 119 10 132 0 q 106 36 106 19 l 106 750 l 57 750 q 35 760 43 750 q 26 785 26 771 m 197 567 l 599 567 l 599 750 l 197 750 l 197 567 z "},"ħ":{"ha":689,"x_min":13,"x_max":607,"o":"m 22 815 q 17 820 22 815 q 13 840 13 825 q 22 866 13 856 q 47 876 32 876 l 88 876 l 88 1026 q 100 1050 88 1040 q 132 1060 113 1060 q 165 1050 151 1060 q 178 1026 178 1040 l 178 876 l 346 876 q 369 866 358 876 q 381 840 381 856 q 369 816 381 826 q 346 806 358 806 l 178 806 l 178 560 q 249 635 201 604 q 361 665 297 665 q 534 589 461 665 q 607 406 607 513 l 607 36 q 594 10 607 19 q 561 0 581 0 q 531 10 544 0 q 517 36 517 19 l 517 406 q 465 528 517 474 q 344 582 414 582 q 228 533 279 582 q 178 406 178 485 l 178 36 q 164 11 178 22 q 132 0 150 0 q 101 11 114 0 q 88 36 88 22 l 88 806 l 47 806 q 22 815 32 806 z "},"Ĩ":{"ha":303,"x_min":-64,"x_max":367,"o":"m -37 1203 q -64 1238 -64 1203 q -23 1294 -64 1272 q 58 1317 18 1317 q 150 1293 94 1317 q 242 1269 206 1269 q 304 1290 278 1269 q 339 1310 331 1310 q 359 1299 351 1310 q 367 1278 367 1289 q 328 1219 367 1239 q 250 1199 289 1199 q 158 1223 213 1199 q 65 1247 103 1247 q 0 1225 31 1247 q -37 1203 -31 1203 m 106 36 l 106 982 q 151 1015 106 1015 q 197 982 197 1015 l 197 36 q 183 10 197 19 q 151 0 169 0 q 119 10 132 0 q 106 36 106 19 z "},"ĩ":{"ha":265,"x_min":-83,"x_max":347,"o":"m -57 850 q -83 885 -83 850 q -42 942 -83 919 q 39 964 -1 964 q 131 940 75 964 q 222 917 186 917 q 285 937 258 917 q 319 957 311 957 q 340 947 332 957 q 347 925 347 936 q 308 866 347 886 q 231 846 269 846 q 138 870 193 846 q 46 894 83 894 q -19 872 11 894 q -57 850 -50 850 m 88 36 l 88 624 q 100 647 88 638 q 132 657 113 657 q 165 647 151 657 q 178 624 178 638 l 178 36 q 164 11 178 22 q 132 0 150 0 q 101 11 114 0 q 88 36 88 22 z "},"Ī":{"ha":303,"x_min":-33,"x_max":335,"o":"m -24 1244 q -28 1249 -24 1244 q -33 1269 -33 1254 q -24 1295 -33 1285 q 1 1306 -14 1306 l 300 1306 q 324 1295 313 1306 q 335 1269 335 1285 q 324 1245 335 1256 q 300 1235 313 1235 l 1 1235 q -24 1244 -14 1235 m 106 36 l 106 982 q 151 1015 106 1015 q 197 982 197 1015 l 197 36 q 183 10 197 19 q 151 0 169 0 q 119 10 132 0 q 106 36 106 19 z "},"ī":{"ha":265,"x_min":-53,"x_max":315,"o":"m -43 892 q -48 897 -43 892 q -53 917 -53 901 q -43 942 -53 932 q -18 953 -33 953 l 281 953 q 304 942 293 953 q 315 917 315 932 q 304 892 315 903 q 281 882 293 882 l -18 882 q -43 892 -33 882 m 88 36 l 88 624 q 100 647 88 638 q 132 657 113 657 q 165 647 151 657 q 178 624 178 638 l 178 36 q 164 11 178 22 q 132 0 150 0 q 101 11 114 0 q 88 36 88 22 z "},"Ĭ":{"ha":303,"x_min":-11,"x_max":313,"o":"m -11 1344 l 50 1344 q 80 1265 50 1297 q 151 1232 110 1232 q 222 1265 192 1232 q 251 1344 251 1297 l 313 1344 q 263 1231 313 1279 q 151 1182 214 1182 q 38 1231 86 1182 q -11 1344 -11 1279 m 106 36 l 106 982 q 151 1015 106 1015 q 197 982 197 1015 l 197 36 q 183 10 197 19 q 151 0 169 0 q 119 10 132 0 q 106 36 106 19 z "},"ĭ":{"ha":265,"x_min":-29,"x_max":294,"o":"m -29 992 l 32 992 q 62 912 32 944 q 133 879 92 879 q 203 912 174 879 q 233 992 233 944 l 294 992 q 245 878 294 926 q 133 829 196 829 q 19 878 68 829 q -29 992 -29 926 m 88 36 l 88 624 q 100 647 88 638 q 132 657 113 657 q 165 647 151 657 q 178 624 178 638 l 178 36 q 164 11 178 22 q 132 0 150 0 q 101 11 114 0 q 88 36 88 22 z "},"Į":{"ha":303,"x_min":24,"x_max":197,"o":"m 24 -169 q 113 14 24 -71 q 106 36 106 24 l 106 982 q 151 1015 106 1015 q 197 982 197 1015 l 197 36 q 174 4 197 14 q 79 -162 79 -81 q 165 -225 79 -225 q 193 -250 193 -225 q 158 -274 193 -274 q 63 -248 101 -274 q 24 -169 24 -222 z "},"į":{"ha":265,"x_min":-1,"x_max":192,"o":"m -1 -172 q 94 17 -1 -69 q 88 36 88 26 l 88 624 q 100 647 88 638 q 132 657 113 657 q 165 647 151 657 q 178 624 178 638 l 178 36 q 150 3 178 14 q 54 -165 54 -81 q 140 -228 54 -228 q 168 -253 168 -228 q 133 -276 168 -276 q 38 -251 76 -276 q -1 -172 -1 -225 m 88 869 q 78 877 88 869 q 69 910 69 886 q 88 950 69 933 q 132 967 106 967 q 174 950 157 967 q 192 910 192 933 q 174 869 192 886 q 132 851 157 851 q 88 869 106 851 z "},"İ":{"ha":303,"x_min":100,"x_max":201,"o":"m 100 1228 q 115 1264 100 1250 q 151 1278 129 1278 q 187 1264 172 1278 q 201 1228 201 1250 q 187 1192 201 1207 q 151 1176 172 1176 q 115 1192 129 1176 q 100 1228 100 1207 m 106 36 l 106 982 q 151 1015 106 1015 q 197 982 197 1015 l 197 36 q 183 10 197 19 q 151 0 169 0 q 119 10 132 0 q 106 36 106 19 z "},"ı":{"ha":265,"x_min":88,"x_max":178,"o":"m 88 36 l 88 624 q 100 647 88 638 q 132 657 113 657 q 165 647 151 657 q 178 624 178 638 l 178 36 q 164 11 178 22 q 132 0 150 0 q 101 11 114 0 q 88 36 88 22 z "},"Ĳ":{"ha":1007,"x_min":106,"x_max":906,"o":"m 106 36 l 106 982 q 151 1015 106 1015 q 197 982 197 1015 l 197 36 q 183 10 197 19 q 151 0 169 0 q 119 10 132 0 q 106 36 106 19 m 328 236 q 372 283 328 283 q 419 247 419 283 q 473 122 419 168 q 617 76 526 76 q 763 129 711 76 q 814 289 814 182 l 814 931 l 618 931 q 592 944 601 931 q 583 975 583 957 q 592 1003 583 992 q 618 1015 601 1015 l 863 1015 q 906 981 906 1015 l 906 289 q 827 63 906 135 q 619 -8 749 -8 q 408 60 488 -8 q 328 236 328 129 z "},"ĳ":{"ha":521,"x_min":69,"x_max":447,"o":"m 88 869 q 78 877 88 869 q 69 910 69 886 q 88 950 69 933 q 132 967 106 967 q 174 950 157 967 q 192 910 192 933 q 174 869 192 886 q 132 851 157 851 q 88 869 106 851 m 88 36 l 88 624 q 100 647 88 638 q 132 657 113 657 q 165 647 151 657 q 178 624 178 638 l 178 36 q 164 11 178 22 q 132 0 150 0 q 101 11 114 0 q 88 36 88 22 m 204 -282 q 215 -252 204 -264 q 243 -240 226 -240 q 324 -195 304 -240 q 343 -60 343 -150 l 343 624 q 356 648 343 639 q 388 657 368 657 q 420 647 407 657 q 433 624 433 638 l 433 -60 q 250 -322 433 -322 q 215 -310 226 -322 q 204 -282 204 -299 m 343 869 q 334 877 343 869 q 325 910 325 886 q 343 950 325 933 q 388 967 361 967 q 430 950 413 967 q 447 910 447 933 q 430 869 447 886 q 388 851 413 851 q 343 869 361 851 z "},"Ĵ":{"ha":711,"x_min":32,"x_max":610,"o":"m 32 236 q 76 283 32 283 q 124 247 124 283 q 177 122 124 168 q 321 76 231 76 q 467 129 415 76 q 518 289 518 182 l 518 931 l 322 931 q 297 944 306 931 q 288 975 288 957 q 297 1003 288 992 q 322 1015 306 1015 l 567 1015 q 610 981 610 1015 l 610 289 q 531 63 610 135 q 324 -8 453 -8 q 112 60 192 -8 q 32 236 32 129 m 169 1211 q 188 1242 169 1232 l 332 1319 q 356 1326 343 1326 q 379 1319 368 1326 l 524 1242 q 542 1210 542 1233 q 533 1186 542 1196 q 514 1176 525 1176 q 500 1181 513 1176 l 356 1257 l 211 1179 l 199 1175 q 178 1186 188 1175 q 169 1211 169 1197 z "},"ĵ":{"ha":265,"x_min":-53,"x_max":319,"o":"m -53 858 q -35 889 -53 879 l 110 967 q 133 974 121 974 q 157 967 146 974 l 301 889 q 319 857 319 881 q 311 833 319 843 q 292 824 303 824 q 278 828 290 824 l 133 904 l -11 826 l -24 822 q -44 833 -35 822 q -53 858 -53 844 m -51 -282 q -40 -252 -51 -264 q -12 -240 -29 -240 q 68 -195 49 -240 q 88 -60 88 -150 l 88 624 q 100 648 88 639 q 132 657 113 657 q 165 647 151 657 q 178 624 178 638 l 178 -60 q -6 -322 178 -322 q -40 -310 -29 -322 q -51 -282 -51 -299 z "},"Ķ":{"ha":725,"x_min":106,"x_max":719,"o":"m 106 36 l 106 982 q 151 1015 106 1015 q 197 982 197 1015 l 197 490 l 599 1001 q 628 1015 608 1015 q 661 1000 644 1015 q 678 968 678 985 q 671 947 678 956 l 372 576 l 714 63 q 719 44 719 51 q 703 12 719 26 q 667 -3 686 -3 q 632 18 647 -3 l 311 500 l 197 356 l 197 36 q 183 10 197 19 q 151 0 169 0 q 119 10 132 0 q 106 36 106 19 m 257 -181 q 272 -156 257 -164 l 426 -69 q 439 -67 435 -67 q 463 -79 453 -67 q 472 -106 472 -92 q 454 -136 472 -126 l 307 -215 q 292 -219 299 -219 q 267 -208 278 -219 q 257 -181 257 -196 z "},"ķ":{"ha":633,"x_min":88,"x_max":615,"o":"m 88 36 l 88 1026 q 100 1050 88 1040 q 132 1060 113 1060 q 165 1050 151 1060 q 178 1026 178 1040 l 178 350 l 517 651 q 538 660 531 660 q 569 647 554 660 q 583 617 583 633 q 574 592 583 600 l 369 413 l 610 61 q 615 42 615 50 q 600 11 615 26 q 567 -4 585 -4 q 539 13 550 -4 l 306 356 l 178 243 l 178 36 q 165 11 178 22 q 132 0 151 0 q 101 11 114 0 q 88 36 88 22 m 210 -181 q 225 -156 210 -164 l 379 -69 q 392 -67 388 -67 q 415 -79 406 -67 q 425 -106 425 -92 q 407 -136 425 -126 l 260 -215 q 244 -219 251 -219 q 220 -208 231 -219 q 210 -181 210 -196 z "},"ĸ":{"ha":633,"x_min":88,"x_max":615,"o":"m 88 36 l 88 624 q 100 647 88 638 q 132 657 113 657 q 165 647 151 657 q 178 624 178 638 l 178 350 l 517 651 q 538 660 531 660 q 569 647 554 660 q 583 617 583 633 q 574 592 583 600 l 369 413 l 610 61 q 615 42 615 50 q 600 11 615 26 q 567 -4 585 -4 q 539 13 550 -4 l 306 356 l 178 243 l 178 36 q 165 11 178 22 q 132 0 151 0 q 101 11 114 0 q 88 36 88 22 z "},"Ĺ":{"ha":643,"x_min":106,"x_max":624,"o":"m 106 36 l 106 982 q 151 1015 106 1015 q 197 982 197 1015 l 197 85 l 593 85 q 624 43 624 85 q 593 0 624 0 l 147 0 q 118 10 131 0 q 106 36 106 19 m 253 1213 q 268 1238 253 1231 l 424 1322 q 435 1326 428 1326 q 459 1315 450 1326 q 468 1288 468 1303 q 451 1257 468 1265 l 303 1178 q 289 1174 297 1174 q 264 1185 275 1174 q 253 1213 253 1197 z "},"ĺ":{"ha":288,"x_min":47,"x_max":263,"o":"m 47 1158 q 63 1183 47 1175 l 218 1268 q 229 1272 222 1272 q 253 1260 244 1272 q 263 1233 263 1249 q 246 1203 263 1211 l 97 1124 q 83 1119 92 1119 q 58 1131 69 1119 q 47 1158 47 1143 m 99 36 l 99 1026 q 111 1050 99 1040 q 143 1060 124 1060 q 176 1050 163 1060 q 189 1026 189 1040 l 189 36 q 176 11 189 22 q 143 0 163 0 q 112 11 125 0 q 99 36 99 22 z "},"Ļ":{"ha":643,"x_min":106,"x_max":624,"o":"m 106 36 l 106 982 q 151 1015 106 1015 q 197 982 197 1015 l 197 85 l 593 85 q 624 43 624 85 q 593 0 624 0 l 147 0 q 118 10 131 0 q 106 36 106 19 m 247 -181 q 263 -156 247 -164 l 417 -69 q 429 -67 425 -67 q 453 -79 443 -67 q 463 -106 463 -92 q 444 -136 463 -126 l 297 -215 q 282 -219 289 -219 q 258 -208 268 -219 q 247 -181 247 -196 z "},"ļ":{"ha":288,"x_min":40,"x_max":256,"o":"m 40 -181 q 56 -156 40 -164 l 210 -69 q 222 -67 218 -67 q 246 -79 236 -67 q 256 -106 256 -92 q 238 -136 256 -126 l 90 -215 q 75 -219 82 -219 q 51 -208 61 -219 q 40 -181 40 -196 m 99 36 l 99 1026 q 111 1050 99 1040 q 143 1060 124 1060 q 176 1050 163 1060 q 189 1026 189 1040 l 189 36 q 176 11 189 22 q 143 0 163 0 q 112 11 125 0 q 99 36 99 22 z "},"Ľ":{"ha":643,"x_min":106,"x_max":624,"o":"m 106 36 l 106 982 q 151 1015 106 1015 q 197 982 197 1015 l 197 85 l 593 85 q 624 43 624 85 q 593 0 624 0 l 147 0 q 118 10 131 0 q 106 36 106 19 m 408 965 q 427 1010 408 992 q 472 1029 446 1029 q 517 1010 499 1029 q 536 965 536 992 q 479 808 536 933 q 454 792 472 792 q 431 800 442 792 q 421 821 421 808 q 424 833 421 829 l 450 906 q 408 965 408 919 z "},"ľ":{"ha":288,"x_min":99,"x_max":406,"o":"m 99 36 l 99 1026 q 111 1050 99 1040 q 143 1060 124 1060 q 176 1050 163 1060 q 189 1026 189 1040 l 189 36 q 176 11 189 22 q 143 0 163 0 q 112 11 125 0 q 99 36 99 22 m 278 965 q 297 1010 278 992 q 342 1029 315 1029 q 387 1010 368 1029 q 406 965 406 992 q 349 808 406 933 q 324 792 342 792 q 301 800 311 792 q 290 821 290 808 q 293 833 290 829 l 319 906 q 278 965 278 919 z "},"Ŀ":{"ha":643,"x_min":106,"x_max":624,"o":"m 106 36 l 106 982 q 151 1015 106 1015 q 197 982 197 1015 l 197 85 l 593 85 q 624 43 624 85 q 593 0 624 0 l 147 0 q 118 10 131 0 q 106 36 106 19 m 403 585 q 422 629 403 611 q 468 647 440 647 q 515 629 496 647 q 533 585 533 611 q 514 541 533 560 q 468 522 494 522 q 422 541 440 522 q 403 585 403 560 z "},"ŀ":{"ha":436,"x_min":99,"x_max":424,"o":"m 99 36 l 99 1026 q 111 1050 99 1040 q 143 1060 124 1060 q 176 1050 163 1060 q 189 1026 189 1040 l 189 36 q 176 11 189 22 q 143 0 163 0 q 112 11 125 0 q 99 36 99 22 m 293 417 q 312 461 293 443 q 358 479 331 479 q 405 461 386 479 q 424 417 424 443 q 404 373 424 392 q 358 354 385 354 q 312 373 331 354 q 293 417 293 392 z "},"Ł":{"ha":651,"x_min":3,"x_max":632,"o":"m 3 408 q 18 435 3 428 l 114 488 l 114 982 q 160 1015 114 1015 q 206 982 206 1015 l 206 538 l 340 611 q 354 614 344 614 q 379 601 368 614 q 390 574 390 589 q 374 544 390 554 l 206 451 l 206 85 l 601 85 q 632 43 632 85 q 601 0 632 0 l 156 0 q 126 10 139 0 q 114 36 114 19 l 114 401 l 51 368 q 38 364 44 364 q 13 378 24 364 q 3 408 3 392 z "},"ł":{"ha":422,"x_min":24,"x_max":401,"o":"m 24 408 q 39 435 24 428 l 158 500 l 158 1026 q 171 1050 158 1040 q 203 1060 183 1060 q 235 1050 222 1060 q 249 1026 249 1040 l 249 550 l 351 607 q 365 610 357 610 q 390 597 379 610 q 401 569 401 585 q 386 540 401 549 l 249 464 l 249 36 q 235 11 249 22 q 203 0 222 0 q 172 11 185 0 q 158 36 158 22 l 158 415 l 72 368 q 58 364 67 364 q 34 378 44 364 q 24 408 24 392 z "},"Ń":{"ha":796,"x_min":106,"x_max":690,"o":"m 106 36 l 106 981 q 151 1015 106 1015 q 224 951 190 1015 l 599 213 l 599 982 q 644 1015 599 1015 q 690 982 690 1015 l 690 36 q 676 10 690 19 q 644 0 663 0 q 583 53 610 0 l 197 804 l 197 36 q 183 10 197 19 q 151 0 169 0 q 119 10 132 0 q 106 36 106 19 m 285 1213 q 300 1238 285 1231 l 456 1322 q 467 1326 460 1326 q 491 1315 482 1326 q 500 1288 500 1303 q 483 1257 500 1265 l 335 1178 q 321 1174 328 1174 q 296 1185 307 1174 q 285 1213 285 1197 z "},"ń":{"ha":689,"x_min":88,"x_max":607,"o":"m 88 36 l 88 624 q 100 648 88 639 q 132 657 113 657 q 161 647 149 657 q 174 624 174 638 l 174 560 q 246 635 197 604 q 360 665 294 665 q 533 589 460 665 q 607 406 607 513 l 607 36 q 593 10 607 19 q 561 0 579 0 q 531 10 544 0 q 517 36 517 19 l 517 406 q 465 528 517 474 q 343 582 414 582 q 228 533 278 582 q 178 406 178 485 l 178 36 q 164 11 178 22 q 132 0 150 0 q 100 11 113 0 q 88 36 88 22 m 236 860 q 251 885 236 878 l 407 969 q 418 974 411 974 q 442 962 433 974 q 451 935 451 950 q 435 904 451 913 l 286 825 q 272 821 281 821 q 247 833 258 821 q 236 860 236 844 z "},"Ņ":{"ha":796,"x_min":106,"x_max":690,"o":"m 106 36 l 106 981 q 151 1015 106 1015 q 224 951 190 1015 l 599 213 l 599 982 q 644 1015 599 1015 q 690 982 690 1015 l 690 36 q 676 10 690 19 q 644 0 663 0 q 583 53 610 0 l 197 804 l 197 36 q 183 10 197 19 q 151 0 169 0 q 119 10 132 0 q 106 36 106 19 m 288 -181 q 303 -156 288 -164 l 457 -69 q 469 -67 465 -67 q 493 -79 483 -67 q 503 -106 503 -92 q 485 -136 503 -126 l 338 -215 q 322 -219 329 -219 q 298 -208 308 -219 q 288 -181 288 -196 z "},"ņ":{"ha":689,"x_min":88,"x_max":607,"o":"m 88 36 l 88 624 q 100 648 88 639 q 132 657 113 657 q 161 647 149 657 q 174 624 174 638 l 174 560 q 246 635 197 604 q 360 665 294 665 q 533 589 460 665 q 607 406 607 513 l 607 36 q 593 10 607 19 q 561 0 579 0 q 531 10 544 0 q 517 36 517 19 l 517 406 q 465 528 517 474 q 343 582 414 582 q 228 533 278 582 q 178 406 178 485 l 178 36 q 164 11 178 22 q 132 0 150 0 q 100 11 113 0 q 88 36 88 22 m 225 -181 q 240 -156 225 -164 l 394 -69 q 407 -67 403 -67 q 431 -79 421 -67 q 440 -106 440 -92 q 422 -136 440 -126 l 275 -215 q 260 -219 267 -219 q 235 -208 246 -219 q 225 -181 225 -196 z "},"Ň":{"ha":796,"x_min":106,"x_max":690,"o":"m 106 36 l 106 981 q 151 1015 106 1015 q 224 951 190 1015 l 599 213 l 599 982 q 644 1015 599 1015 q 690 982 690 1015 l 690 36 q 676 10 690 19 q 644 0 663 0 q 583 53 610 0 l 197 804 l 197 36 q 183 10 197 19 q 151 0 169 0 q 119 10 132 0 q 106 36 106 19 m 211 1338 q 219 1359 211 1350 q 238 1368 226 1368 q 258 1360 250 1368 l 397 1232 l 535 1360 q 556 1368 543 1368 q 574 1359 567 1368 q 582 1338 582 1350 q 565 1306 582 1319 l 425 1181 q 397 1167 408 1167 q 369 1181 383 1167 l 229 1306 q 211 1338 211 1319 z "},"ň":{"ha":689,"x_min":88,"x_max":607,"o":"m 88 36 l 88 624 q 100 648 88 639 q 132 657 113 657 q 161 647 149 657 q 174 624 174 638 l 174 560 q 246 635 197 604 q 360 665 294 665 q 533 589 460 665 q 607 406 607 513 l 607 36 q 593 10 607 19 q 561 0 579 0 q 531 10 544 0 q 517 36 517 19 l 517 406 q 465 528 517 474 q 343 582 414 582 q 228 533 278 582 q 178 406 178 485 l 178 36 q 164 11 178 22 q 132 0 150 0 q 100 11 113 0 q 88 36 88 22 m 153 985 q 160 1006 153 997 q 179 1015 168 1015 q 200 1007 192 1015 l 339 879 l 476 1007 q 497 1015 485 1015 q 516 1006 508 1015 q 524 985 524 997 q 507 953 524 967 l 367 828 q 339 814 350 814 q 311 828 325 814 l 171 953 q 153 985 153 967 z "},"Ŋ":{"ha":796,"x_min":106,"x_max":690,"o":"m 106 36 l 106 981 q 151 1015 106 1015 q 224 951 190 1015 l 599 213 l 599 982 q 644 1015 599 1015 q 690 982 690 1015 l 690 -60 q 508 -322 690 -322 q 473 -310 485 -322 q 461 -282 461 -299 q 472 -252 461 -264 q 500 -240 483 -240 q 580 -195 560 -240 q 600 -60 600 -150 l 600 3 q 583 53 600 21 l 197 804 l 197 36 q 183 10 197 19 q 151 0 169 0 q 119 10 132 0 q 106 36 106 19 z "},"ŋ":{"ha":689,"x_min":88,"x_max":607,"o":"m 88 36 l 88 624 q 100 648 88 639 q 132 657 113 657 q 161 647 149 657 q 174 624 174 638 l 174 560 q 246 635 197 604 q 360 665 294 665 q 533 589 460 665 q 607 406 607 513 l 607 -60 q 424 -322 607 -322 q 389 -310 400 -322 q 378 -282 378 -299 q 389 -252 378 -264 q 417 -240 400 -240 q 497 -195 476 -240 q 517 -60 517 -150 l 517 406 q 465 528 517 474 q 343 582 414 582 q 228 533 278 582 q 178 406 178 485 l 178 36 q 164 11 178 22 q 132 0 150 0 q 100 11 113 0 q 88 36 88 22 z "},"Ō":{"ha":767,"x_min":94,"x_max":672,"o":"m 94 289 l 94 719 q 173 944 94 872 q 383 1015 251 1015 q 594 944 515 1015 q 672 719 672 872 l 672 289 q 594 63 672 135 q 383 -8 515 -8 q 173 63 251 -8 q 94 289 94 135 m 186 289 q 383 76 186 76 q 581 289 581 76 l 581 719 q 383 931 581 931 q 186 719 186 931 l 186 289 m 210 1244 q 205 1249 210 1244 q 200 1269 200 1254 q 210 1295 200 1285 q 235 1306 219 1306 l 533 1306 q 557 1295 546 1306 q 568 1269 568 1285 q 557 1245 568 1256 q 533 1235 546 1235 l 235 1235 q 210 1244 219 1235 z "},"ō":{"ha":650,"x_min":61,"x_max":589,"o":"m 61 254 l 61 406 q 139 588 61 511 q 324 665 217 665 q 510 589 431 665 q 589 406 589 513 l 589 254 q 509 70 589 150 q 324 -10 429 -10 q 140 70 219 -10 q 61 254 61 150 m 150 892 q 145 897 150 892 q 140 917 140 901 q 150 942 140 932 q 175 953 160 953 l 474 953 q 497 942 486 953 q 508 917 508 932 q 497 892 508 903 q 474 882 486 882 l 175 882 q 150 892 160 882 m 151 254 q 202 128 151 183 q 324 74 253 74 q 447 128 396 74 q 499 254 499 183 l 499 406 q 447 528 499 474 q 324 582 394 582 q 202 528 253 582 q 151 406 151 474 l 151 254 z "},"Ŏ":{"ha":767,"x_min":94,"x_max":672,"o":"m 94 289 l 94 719 q 173 944 94 872 q 383 1015 251 1015 q 594 944 515 1015 q 672 719 672 872 l 672 289 q 594 63 672 135 q 383 -8 515 -8 q 173 63 251 -8 q 94 289 94 135 m 186 289 q 383 76 186 76 q 581 289 581 76 l 581 719 q 383 931 581 931 q 186 719 186 931 l 186 289 m 221 1344 l 282 1344 q 312 1265 282 1297 q 383 1232 342 1232 q 453 1265 424 1232 q 483 1344 483 1297 l 544 1344 q 495 1231 544 1279 q 383 1182 446 1182 q 269 1231 318 1182 q 221 1344 221 1279 z "},"ŏ":{"ha":650,"x_min":61,"x_max":589,"o":"m 61 254 l 61 406 q 139 588 61 511 q 324 665 217 665 q 510 589 431 665 q 589 406 589 513 l 589 254 q 509 70 589 150 q 324 -10 429 -10 q 140 70 219 -10 q 61 254 61 150 m 151 254 q 202 128 151 183 q 324 74 253 74 q 447 128 396 74 q 499 254 499 183 l 499 406 q 447 528 499 474 q 324 582 394 582 q 202 528 253 582 q 151 406 151 474 l 151 254 m 163 992 l 224 992 q 253 912 224 944 q 325 879 283 879 q 395 912 365 879 q 425 992 425 944 l 486 992 q 437 878 486 926 q 325 829 388 829 q 211 878 260 829 q 163 992 163 926 z "},"Ő":{"ha":767,"x_min":94,"x_max":672,"o":"m 94 289 l 94 719 q 173 944 94 872 q 383 1015 251 1015 q 594 944 515 1015 q 672 719 672 872 l 672 289 q 594 63 672 135 q 383 -8 515 -8 q 173 63 251 -8 q 94 289 94 135 m 186 289 q 383 76 186 76 q 581 289 581 76 l 581 719 q 383 931 581 931 q 186 719 186 931 l 186 289 m 235 1206 q 246 1225 235 1219 l 379 1321 q 394 1326 385 1326 q 417 1316 407 1326 q 426 1293 426 1306 q 414 1268 426 1276 l 288 1179 q 271 1172 281 1172 q 246 1183 257 1172 q 235 1206 235 1193 m 443 1206 q 454 1225 443 1219 l 588 1321 q 603 1326 593 1326 q 625 1316 615 1326 q 635 1293 635 1306 q 622 1268 635 1276 l 496 1179 q 479 1172 489 1172 q 454 1183 465 1172 q 443 1206 443 1193 z "},"ő":{"ha":650,"x_min":61,"x_max":589,"o":"m 61 254 l 61 406 q 139 588 61 511 q 324 665 217 665 q 510 589 431 665 q 589 406 589 513 l 589 254 q 509 70 589 150 q 324 -10 429 -10 q 140 70 219 -10 q 61 254 61 150 m 151 254 q 202 128 151 183 q 324 74 253 74 q 447 128 396 74 q 499 254 499 183 l 499 406 q 447 528 499 474 q 324 582 394 582 q 202 528 253 582 q 151 406 151 474 l 151 254 m 163 854 q 174 874 163 868 l 307 969 q 322 975 313 975 q 344 965 335 975 q 354 942 354 954 q 342 917 354 925 l 215 828 q 199 821 208 821 q 174 831 185 821 q 163 854 163 842 m 371 854 q 382 874 371 868 l 515 969 q 531 975 521 975 q 553 965 543 975 q 563 942 563 954 q 550 917 563 925 l 424 828 q 407 821 417 821 q 382 831 393 821 q 371 854 371 842 z "},"Œ":{"ha":1167,"x_min":94,"x_max":1136,"o":"m 94 289 l 94 719 q 169 944 94 872 q 372 1015 244 1015 q 589 915 525 1015 l 589 981 q 602 1006 589 997 q 632 1015 615 1015 l 1103 1015 q 1136 975 1136 1015 q 1103 931 1136 931 l 672 931 l 672 549 l 876 549 q 910 507 910 549 q 876 469 910 469 l 672 469 l 672 85 l 1103 85 q 1136 42 1136 85 q 1103 0 1136 0 l 632 0 q 602 10 615 0 q 589 36 589 19 l 589 93 q 372 -8 525 -8 q 169 63 244 -8 q 94 289 94 135 m 186 289 q 383 76 186 76 q 581 289 581 76 l 581 719 q 383 931 581 931 q 186 719 186 931 l 186 289 z "},"œ":{"ha":1071,"x_min":61,"x_max":1022,"o":"m 61 254 l 61 406 q 139 588 61 511 q 324 665 217 665 q 453 629 393 665 q 546 533 513 593 q 638 629 579 593 q 764 665 696 665 q 946 593 869 665 q 1022 414 1022 521 q 1013 351 1022 375 q 985 317 1004 326 q 949 304 965 307 q 903 301 932 301 l 589 301 l 589 250 q 648 119 589 168 q 803 69 707 69 q 883 83 850 69 q 934 111 915 97 q 965 125 953 125 q 994 111 982 125 q 1006 81 1006 97 q 943 22 1006 53 q 796 -10 881 -10 q 645 26 711 -10 q 544 124 579 61 q 451 27 510 64 q 324 -10 392 -10 q 140 70 219 -10 q 61 254 61 150 m 151 254 q 202 128 151 183 q 324 74 253 74 q 447 128 396 74 q 499 254 499 183 l 499 406 q 447 528 499 474 q 324 582 394 582 q 202 528 253 582 q 151 406 151 474 l 151 254 m 589 368 l 867 368 q 922 377 908 368 q 936 415 936 386 q 887 538 936 485 q 763 590 838 590 q 640 542 690 590 q 589 425 589 493 l 589 368 z "},"Ŕ":{"ha":735,"x_min":106,"x_max":689,"o":"m 106 36 l 106 982 q 140 1015 106 1013 l 386 1015 q 603 951 521 1015 q 686 742 686 888 q 469 474 686 511 l 683 63 q 689 44 689 56 q 672 12 689 26 q 636 -3 656 -3 q 588 46 611 -3 l 374 463 l 197 463 l 197 36 q 183 10 197 19 q 151 0 169 0 q 119 10 132 0 q 106 36 106 19 m 197 542 l 386 542 q 594 738 594 542 q 386 931 594 931 l 197 931 l 197 542 m 296 1213 q 311 1238 296 1231 l 467 1322 q 478 1326 471 1326 q 502 1315 493 1326 q 511 1288 511 1303 q 494 1257 511 1265 l 346 1178 q 332 1174 339 1174 q 307 1185 318 1174 q 296 1213 296 1197 z "},"ŕ":{"ha":460,"x_min":88,"x_max":446,"o":"m 88 36 l 88 624 q 100 647 88 638 q 132 657 113 657 q 163 647 150 657 q 175 624 175 638 l 175 556 q 249 633 200 601 q 361 665 297 665 l 410 665 q 435 653 424 665 q 446 624 446 640 q 435 594 446 607 q 410 582 424 582 l 361 582 q 233 526 289 582 q 178 379 178 469 l 178 36 q 165 11 178 22 q 132 0 151 0 q 101 11 114 0 q 88 36 88 22 m 122 860 q 138 885 122 878 l 293 969 q 304 974 297 974 q 328 962 319 974 q 338 935 338 950 q 321 904 338 913 l 172 825 q 158 821 167 821 q 133 833 144 821 q 122 860 122 844 z "},"Ŗ":{"ha":735,"x_min":106,"x_max":689,"o":"m 106 36 l 106 982 q 140 1015 106 1013 l 386 1015 q 603 951 521 1015 q 686 742 686 888 q 469 474 686 511 l 683 63 q 689 44 689 56 q 672 12 689 26 q 636 -3 656 -3 q 588 46 611 -3 l 374 463 l 197 463 l 197 36 q 183 10 197 19 q 151 0 169 0 q 119 10 132 0 q 106 36 106 19 m 197 542 l 386 542 q 594 738 594 542 q 386 931 594 931 l 197 931 l 197 542 m 246 -181 q 261 -156 246 -164 l 415 -69 q 428 -67 424 -67 q 451 -79 442 -67 q 461 -106 461 -92 q 443 -136 461 -126 l 296 -215 q 281 -219 288 -219 q 256 -208 267 -219 q 246 -181 246 -196 z "},"ŗ":{"ha":460,"x_min":-1,"x_max":446,"o":"m -1 -181 q 14 -156 -1 -164 l 168 -69 q 181 -67 176 -67 q 204 -79 194 -67 q 214 -106 214 -92 q 196 -136 214 -126 l 49 -215 q 33 -219 40 -219 q 9 -208 19 -219 q -1 -181 -1 -196 m 88 36 l 88 624 q 100 647 88 638 q 132 657 113 657 q 163 647 150 657 q 175 624 175 638 l 175 556 q 249 633 200 601 q 361 665 297 665 l 410 665 q 435 653 424 665 q 446 624 446 640 q 435 594 446 607 q 410 582 424 582 l 361 582 q 233 526 289 582 q 178 379 178 469 l 178 36 q 165 11 178 22 q 132 0 151 0 q 101 11 114 0 q 88 36 88 22 z "},"Ř":{"ha":735,"x_min":106,"x_max":689,"o":"m 106 36 l 106 982 q 140 1015 106 1013 l 386 1015 q 603 951 521 1015 q 686 742 686 888 q 469 474 686 511 l 683 63 q 689 44 689 56 q 672 12 689 26 q 636 -3 656 -3 q 588 46 611 -3 l 374 463 l 197 463 l 197 36 q 183 10 197 19 q 151 0 169 0 q 119 10 132 0 q 106 36 106 19 m 197 542 l 386 542 q 594 738 594 542 q 386 931 594 931 l 197 931 l 197 542 m 199 1338 q 206 1359 199 1350 q 225 1368 214 1368 q 246 1360 238 1368 l 385 1232 l 522 1360 q 543 1368 531 1368 q 562 1359 554 1368 q 569 1338 569 1350 q 553 1306 569 1319 l 413 1181 q 385 1167 396 1167 q 357 1181 371 1167 l 217 1306 q 199 1338 199 1319 z "},"ř":{"ha":460,"x_min":38,"x_max":446,"o":"m 38 985 q 45 1006 38 997 q 64 1015 53 1015 q 85 1007 76 1015 l 224 879 l 361 1007 q 382 1015 369 1015 q 401 1006 393 1015 q 408 985 408 997 q 392 953 408 967 l 251 828 q 224 814 235 814 q 196 828 210 814 l 56 953 q 38 985 38 967 m 88 36 l 88 624 q 100 647 88 638 q 132 657 113 657 q 163 647 150 657 q 175 624 175 638 l 175 556 q 249 633 200 601 q 361 665 297 665 l 410 665 q 435 653 424 665 q 446 624 446 640 q 435 594 446 607 q 410 582 424 582 l 361 582 q 233 526 289 582 q 178 379 178 469 l 178 36 q 165 11 178 22 q 132 0 151 0 q 101 11 114 0 q 88 36 88 22 z "},"Ś":{"ha":686,"x_min":50,"x_max":628,"o":"m 50 140 q 63 174 50 157 q 92 192 76 192 q 119 174 103 192 l 158 133 q 224 94 179 113 q 329 76 269 76 q 482 126 428 76 q 536 268 536 175 q 510 374 536 331 q 444 442 485 418 q 356 486 404 467 l 256 525 q 167 572 207 544 q 101 648 126 599 q 75 765 75 697 q 102 890 75 838 q 175 968 129 942 q 269 1006 221 994 q 369 1018 317 1018 q 528 994 454 1018 q 603 933 603 969 q 591 899 603 917 q 563 882 579 882 q 531 895 554 882 q 465 922 507 908 q 368 935 422 935 q 224 897 281 935 q 167 774 167 860 q 201 674 167 714 q 286 615 235 633 q 397 572 338 597 q 508 519 457 547 q 594 428 560 490 q 628 276 628 367 q 549 62 628 133 q 335 -10 469 -10 q 132 42 214 -10 q 50 140 50 94 m 240 1213 q 256 1238 240 1231 l 411 1322 q 422 1326 415 1326 q 447 1315 438 1326 q 456 1288 456 1303 q 439 1257 456 1265 l 290 1178 q 276 1174 283 1174 q 251 1185 263 1174 q 240 1213 240 1197 z "},"ś":{"ha":535,"x_min":46,"x_max":488,"o":"m 46 90 q 56 118 46 104 q 78 132 65 132 q 108 116 88 132 q 168 83 129 100 q 261 67 207 67 q 369 94 335 67 q 404 165 404 122 q 369 245 404 215 q 283 289 333 275 q 183 319 233 303 q 97 374 132 336 q 61 476 61 413 q 116 609 61 553 q 281 665 171 665 q 408 644 349 665 q 467 597 467 622 q 456 567 467 583 q 429 550 444 550 q 378 569 425 550 q 282 589 331 589 q 178 556 213 589 q 143 481 143 522 q 178 413 143 438 q 265 374 214 388 q 366 344 315 361 q 452 283 417 326 q 488 169 488 239 q 428 38 488 86 q 264 -10 369 -10 q 109 23 172 -10 q 46 90 46 56 m 158 860 q 174 885 158 878 l 329 969 q 340 974 333 974 q 365 962 356 974 q 374 935 374 950 q 357 904 374 913 l 208 825 q 194 821 203 821 q 169 833 181 821 q 158 860 158 844 z "},"Ŝ":{"ha":686,"x_min":50,"x_max":628,"o":"m 50 140 q 63 174 50 157 q 92 192 76 192 q 119 174 103 192 l 158 133 q 224 94 179 113 q 329 76 269 76 q 482 126 428 76 q 536 268 536 175 q 510 374 536 331 q 444 442 485 418 q 356 486 404 467 l 256 525 q 167 572 207 544 q 101 648 126 599 q 75 765 75 697 q 102 890 75 838 q 175 968 129 942 q 269 1006 221 994 q 369 1018 317 1018 q 528 994 454 1018 q 603 933 603 969 q 591 899 603 917 q 563 882 579 882 q 531 895 554 882 q 465 922 507 908 q 368 935 422 935 q 224 897 281 935 q 167 774 167 860 q 201 674 167 714 q 286 615 235 633 q 397 572 338 597 q 508 519 457 547 q 594 428 560 490 q 628 276 628 367 q 549 62 628 133 q 335 -10 469 -10 q 132 42 214 -10 q 50 140 50 94 m 153 1211 q 171 1242 153 1232 l 315 1319 q 339 1326 326 1326 q 363 1319 351 1326 l 507 1242 q 525 1210 525 1233 q 517 1186 525 1196 q 497 1176 508 1176 q 483 1181 496 1176 l 339 1257 l 194 1179 l 182 1175 q 162 1186 171 1175 q 153 1211 153 1197 z "},"ŝ":{"ha":535,"x_min":46,"x_max":488,"o":"m 46 90 q 56 118 46 104 q 78 132 65 132 q 108 116 88 132 q 168 83 129 100 q 261 67 207 67 q 369 94 335 67 q 404 165 404 122 q 369 245 404 215 q 283 289 333 275 q 183 319 233 303 q 97 374 132 336 q 61 476 61 413 q 116 609 61 553 q 281 665 171 665 q 408 644 349 665 q 467 597 467 622 q 456 567 467 583 q 429 550 444 550 q 378 569 425 550 q 282 589 331 589 q 178 556 213 589 q 143 481 143 522 q 178 413 143 438 q 265 374 214 388 q 366 344 315 361 q 452 283 417 326 q 488 169 488 239 q 428 38 488 86 q 264 -10 369 -10 q 109 23 172 -10 q 46 90 46 56 m 75 858 q 93 889 75 879 l 238 967 q 261 974 249 974 q 285 967 274 974 l 429 889 q 447 857 447 881 q 439 833 447 843 q 419 824 431 824 q 406 828 418 824 l 261 904 l 117 826 l 104 822 q 84 833 93 822 q 75 858 75 844 z "},"Ş":{"ha":686,"x_min":50,"x_max":628,"o":"m 50 140 q 63 174 50 157 q 92 192 76 192 q 119 174 103 192 l 158 133 q 224 94 179 113 q 329 76 269 76 q 482 126 428 76 q 536 268 536 175 q 510 374 536 331 q 444 442 485 418 q 356 486 404 467 l 256 525 q 167 572 207 544 q 101 648 126 599 q 75 765 75 697 q 102 890 75 838 q 175 968 129 942 q 269 1006 221 994 q 369 1018 317 1018 q 528 994 454 1018 q 603 933 603 969 q 591 899 603 917 q 563 882 579 882 q 531 895 554 882 q 465 922 507 908 q 368 935 422 935 q 224 897 281 935 q 167 774 167 860 q 201 674 167 714 q 286 615 235 633 q 397 572 338 597 q 508 519 457 547 q 594 428 560 490 q 628 276 628 367 q 566 81 628 151 q 397 -6 504 10 l 376 -85 q 476 -115 443 -86 q 510 -185 510 -143 q 478 -259 510 -226 q 386 -292 446 -292 q 315 -282 351 -292 q 278 -256 278 -272 q 284 -235 278 -247 q 300 -222 290 -222 q 326 -232 301 -222 q 378 -242 350 -242 q 451 -187 451 -242 q 364 -129 451 -136 l 311 -125 l 342 -10 l 335 -10 q 132 42 214 -10 q 50 140 50 94 z "},"ş":{"ha":535,"x_min":46,"x_max":488,"o":"m 46 90 q 56 118 46 104 q 78 132 65 132 q 108 116 88 132 q 168 83 129 100 q 261 67 207 67 q 369 94 335 67 q 404 165 404 122 q 369 245 404 215 q 283 289 333 275 q 183 319 233 303 q 97 374 132 336 q 61 476 61 413 q 116 609 61 553 q 281 665 171 665 q 408 644 349 665 q 467 597 467 622 q 456 567 467 583 q 429 550 444 550 q 378 569 425 550 q 282 589 331 589 q 178 556 213 589 q 143 481 143 522 q 178 413 143 438 q 265 374 214 388 q 366 344 315 361 q 452 283 417 326 q 488 169 488 239 q 440 49 488 96 q 308 -7 393 3 l 288 -85 q 388 -115 354 -86 q 421 -185 421 -143 q 389 -259 421 -226 q 297 -292 357 -292 q 226 -282 263 -292 q 189 -256 189 -272 q 195 -235 189 -247 q 211 -222 201 -222 q 237 -232 213 -222 q 289 -242 261 -242 q 363 -187 363 -242 q 275 -129 363 -136 l 222 -125 l 253 -10 q 106 25 165 -7 q 46 90 46 57 z "},"Š":{"ha":686,"x_min":50,"x_max":628,"o":"m 50 140 q 63 174 50 157 q 92 192 76 192 q 119 174 103 192 l 158 133 q 224 94 179 113 q 329 76 269 76 q 482 126 428 76 q 536 268 536 175 q 510 374 536 331 q 444 442 485 418 q 356 486 404 467 l 256 525 q 167 572 207 544 q 101 648 126 599 q 75 765 75 697 q 102 890 75 838 q 175 968 129 942 q 269 1006 221 994 q 369 1018 317 1018 q 528 994 454 1018 q 603 933 603 969 q 591 899 603 917 q 563 882 579 882 q 531 895 554 882 q 465 922 507 908 q 368 935 422 935 q 224 897 281 935 q 167 774 167 860 q 201 674 167 714 q 286 615 235 633 q 397 572 338 597 q 508 519 457 547 q 594 428 560 490 q 628 276 628 367 q 549 62 628 133 q 335 -10 469 -10 q 132 42 214 -10 q 50 140 50 94 m 153 1338 q 160 1359 153 1350 q 179 1368 168 1368 q 200 1360 192 1368 l 339 1232 l 476 1360 q 497 1368 485 1368 q 516 1359 508 1368 q 524 1338 524 1350 q 507 1306 524 1319 l 367 1181 q 339 1167 350 1167 q 311 1181 325 1167 l 171 1306 q 153 1338 153 1319 z "},"š":{"ha":535,"x_min":46,"x_max":488,"o":"m 46 90 q 56 118 46 104 q 78 132 65 132 q 108 116 88 132 q 168 83 129 100 q 261 67 207 67 q 369 94 335 67 q 404 165 404 122 q 369 245 404 215 q 283 289 333 275 q 183 319 233 303 q 97 374 132 336 q 61 476 61 413 q 116 609 61 553 q 281 665 171 665 q 408 644 349 665 q 467 597 467 622 q 456 567 467 583 q 429 550 444 550 q 378 569 425 550 q 282 589 331 589 q 178 556 213 589 q 143 481 143 522 q 178 413 143 438 q 265 374 214 388 q 366 344 315 361 q 452 283 417 326 q 488 169 488 239 q 428 38 488 86 q 264 -10 369 -10 q 109 23 172 -10 q 46 90 46 56 m 76 985 q 84 1006 76 997 q 103 1015 92 1015 q 124 1007 115 1015 l 263 879 l 400 1007 q 421 1015 408 1015 q 440 1006 432 1015 q 447 985 447 997 q 431 953 447 967 l 290 828 q 263 814 274 814 q 235 828 249 814 l 94 953 q 76 985 76 967 z "},"Ţ":{"ha":668,"x_min":21,"x_max":647,"o":"m 21 972 q 30 1002 21 989 q 56 1015 39 1015 l 613 1015 q 638 1003 629 1015 q 647 974 647 990 q 638 942 647 956 q 613 929 629 929 l 381 929 l 381 36 q 367 10 381 19 q 335 0 353 0 q 302 10 315 0 q 289 36 289 19 l 289 929 l 56 929 q 31 942 40 929 q 21 972 21 954 m 226 -181 q 242 -156 226 -164 l 396 -69 q 408 -67 404 -67 q 432 -79 422 -67 q 442 -106 442 -92 q 424 -136 442 -126 l 276 -215 q 261 -219 268 -219 q 237 -208 247 -219 q 226 -181 226 -196 z "},"ţ":{"ha":413,"x_min":85,"x_max":386,"o":"m 85 204 l 85 936 q 99 960 85 950 q 129 969 113 969 q 161 960 147 969 q 175 936 175 950 l 175 657 l 354 657 q 377 646 368 657 q 386 619 386 635 q 377 593 386 604 q 354 582 368 582 l 175 582 l 175 204 q 203 109 175 136 q 304 82 232 82 l 343 82 q 373 70 361 82 q 385 42 385 58 q 373 13 385 25 q 343 0 361 0 l 304 0 q 85 204 85 0 m 89 -181 q 104 -156 89 -164 l 258 -69 q 271 -67 267 -67 q 294 -79 285 -67 q 304 -106 304 -92 q 286 -136 304 -126 l 139 -215 q 124 -219 131 -219 q 99 -208 110 -219 q 89 -181 89 -196 z "},"Ť":{"ha":668,"x_min":21,"x_max":647,"o":"m 21 972 q 30 1002 21 989 q 56 1015 39 1015 l 613 1015 q 638 1003 629 1015 q 647 974 647 990 q 638 942 647 956 q 613 929 629 929 l 381 929 l 381 36 q 367 10 381 19 q 335 0 353 0 q 302 10 315 0 q 289 36 289 19 l 289 929 l 56 929 q 31 942 40 929 q 21 972 21 954 m 147 1338 q 155 1359 147 1350 q 174 1368 163 1368 q 194 1360 186 1368 l 333 1232 l 471 1360 q 492 1368 479 1368 q 510 1359 503 1368 q 518 1338 518 1350 q 501 1306 518 1319 l 361 1181 q 333 1167 344 1167 q 306 1181 319 1167 l 165 1306 q 147 1338 147 1319 z "},"ť":{"ha":413,"x_min":85,"x_max":392,"o":"m 85 204 l 85 936 q 99 960 85 950 q 129 969 113 969 q 161 960 147 969 q 175 936 175 950 l 175 657 l 354 657 q 377 646 368 657 q 386 619 386 635 q 377 593 386 604 q 354 582 368 582 l 175 582 l 175 204 q 203 109 175 136 q 304 82 232 82 l 343 82 q 373 70 361 82 q 385 42 385 58 q 373 13 385 25 q 343 0 361 0 l 304 0 q 85 204 85 0 m 264 975 q 283 1020 264 1001 q 328 1039 301 1039 q 373 1020 354 1039 q 392 975 392 1001 q 335 818 392 943 q 310 801 328 801 q 287 810 297 801 q 276 831 276 818 q 279 843 276 839 l 306 915 q 264 975 264 929 z "},"Ŧ":{"ha":668,"x_min":21,"x_max":647,"o":"m 21 972 q 30 1002 21 989 q 56 1015 39 1015 l 613 1015 q 638 1003 629 1015 q 647 974 647 990 q 638 942 647 956 q 613 929 629 929 l 381 929 l 381 544 l 557 544 q 581 533 572 544 q 589 508 589 522 q 557 469 589 469 l 381 469 l 381 36 q 367 10 381 19 q 335 0 353 0 q 302 10 315 0 q 289 36 289 19 l 289 469 l 111 469 q 88 481 96 469 q 79 507 79 492 q 88 533 79 522 q 111 544 96 544 l 289 544 l 289 929 l 56 929 q 31 942 40 929 q 21 972 21 954 z "},"ŧ":{"ha":417,"x_min":85,"x_max":386,"o":"m 85 204 l 85 936 q 99 960 85 950 q 129 969 113 969 q 161 960 147 969 q 175 936 175 950 l 175 657 l 354 657 q 377 646 368 657 q 386 619 386 635 q 377 593 386 604 q 354 582 368 582 l 175 582 l 175 442 l 354 442 q 377 430 368 442 q 386 403 386 418 q 377 377 386 388 q 354 367 368 367 l 175 367 l 175 204 q 203 109 175 136 q 304 82 232 82 l 343 82 q 373 70 361 82 q 385 42 385 58 q 373 13 385 25 q 343 0 361 0 l 304 0 q 85 204 85 0 z "},"Ũ":{"ha":786,"x_min":101,"x_max":685,"o":"m 101 289 l 101 982 q 147 1015 101 1015 q 193 982 193 1015 l 193 289 q 245 130 193 183 q 393 76 297 76 q 541 130 489 76 q 593 289 593 183 l 593 982 q 639 1015 593 1015 q 685 982 685 1015 l 685 289 q 605 63 685 135 q 393 -8 525 -8 q 181 63 261 -8 q 101 289 101 135 m 201 1203 q 175 1238 175 1203 q 216 1294 175 1272 q 297 1317 257 1317 q 389 1293 333 1317 q 481 1269 444 1269 q 543 1290 517 1269 q 578 1310 569 1310 q 598 1299 590 1310 q 606 1278 606 1289 q 567 1219 606 1239 q 489 1199 528 1199 q 397 1223 451 1199 q 304 1247 342 1247 q 239 1225 269 1247 q 201 1203 208 1203 z "},"ũ":{"ha":689,"x_min":81,"x_max":608,"o":"m 81 251 l 81 622 q 94 646 81 635 q 126 657 107 657 q 157 646 143 657 q 171 622 171 635 l 171 251 q 222 128 171 182 q 344 74 274 74 q 467 128 415 74 q 518 251 518 182 l 518 624 q 532 647 518 638 q 564 657 546 657 q 595 647 582 657 q 608 624 608 638 l 608 251 q 530 69 608 147 q 344 -10 451 -10 q 158 69 236 -10 q 81 251 81 147 m 156 850 q 129 885 129 850 q 170 942 129 919 q 251 964 211 964 q 343 940 288 964 q 435 917 399 917 q 497 937 471 917 q 532 957 524 957 q 552 947 544 957 q 560 925 560 936 q 521 866 560 886 q 443 846 482 846 q 351 870 406 846 q 258 894 296 894 q 193 872 224 894 q 156 850 163 850 z "},"Ū":{"ha":786,"x_min":101,"x_max":685,"o":"m 101 289 l 101 982 q 147 1015 101 1015 q 193 982 193 1015 l 193 289 q 245 130 193 183 q 393 76 297 76 q 541 130 489 76 q 593 289 593 183 l 593 982 q 639 1015 593 1015 q 685 982 685 1015 l 685 289 q 605 63 685 135 q 393 -8 525 -8 q 181 63 261 -8 q 101 289 101 135 m 218 1244 q 213 1249 218 1244 q 208 1269 208 1254 q 218 1295 208 1285 q 243 1306 228 1306 l 542 1306 q 565 1295 554 1306 q 576 1269 576 1285 q 565 1245 576 1256 q 542 1235 554 1235 l 243 1235 q 218 1244 228 1235 z "},"ū":{"ha":689,"x_min":81,"x_max":608,"o":"m 81 251 l 81 622 q 94 646 81 635 q 126 657 107 657 q 157 646 143 657 q 171 622 171 635 l 171 251 q 222 128 171 182 q 344 74 274 74 q 467 128 415 74 q 518 251 518 182 l 518 624 q 532 647 518 638 q 564 657 546 657 q 595 647 582 657 q 608 624 608 638 l 608 251 q 530 69 608 147 q 344 -10 451 -10 q 158 69 236 -10 q 81 251 81 147 m 171 892 q 166 897 171 892 q 161 917 161 901 q 171 942 161 932 q 196 953 181 953 l 494 953 q 518 942 507 953 q 529 917 529 932 q 518 892 529 903 q 494 882 507 882 l 196 882 q 171 892 181 882 z "},"Ŭ":{"ha":786,"x_min":101,"x_max":685,"o":"m 101 289 l 101 982 q 147 1015 101 1015 q 193 982 193 1015 l 193 289 q 245 130 193 183 q 393 76 297 76 q 541 130 489 76 q 593 289 593 183 l 593 982 q 639 1015 593 1015 q 685 982 685 1015 l 685 289 q 605 63 685 135 q 393 -8 525 -8 q 181 63 261 -8 q 101 289 101 135 m 229 1344 l 290 1344 q 320 1265 290 1297 q 392 1232 350 1232 q 462 1265 432 1232 q 492 1344 492 1297 l 553 1344 q 503 1231 553 1279 q 392 1182 454 1182 q 278 1231 326 1182 q 229 1344 229 1279 z "},"ŭ":{"ha":689,"x_min":81,"x_max":608,"o":"m 81 251 l 81 622 q 94 646 81 635 q 126 657 107 657 q 157 646 143 657 q 171 622 171 635 l 171 251 q 222 128 171 182 q 344 74 274 74 q 467 128 415 74 q 518 251 518 182 l 518 624 q 532 647 518 638 q 564 657 546 657 q 595 647 582 657 q 608 624 608 638 l 608 251 q 530 69 608 147 q 344 -10 451 -10 q 158 69 236 -10 q 81 251 81 147 m 182 992 l 243 992 q 273 912 243 944 q 344 879 303 879 q 415 912 385 879 q 444 992 444 944 l 506 992 q 456 878 506 926 q 344 829 407 829 q 231 878 279 829 q 182 992 182 926 z "},"Ů":{"ha":786,"x_min":101,"x_max":685,"o":"m 101 289 l 101 982 q 147 1015 101 1015 q 193 982 193 1015 l 193 289 q 245 130 193 183 q 393 76 297 76 q 541 130 489 76 q 593 289 593 183 l 593 982 q 639 1015 593 1015 q 685 982 685 1015 l 685 289 q 605 63 685 135 q 393 -8 525 -8 q 181 63 261 -8 q 101 289 101 135 m 264 1290 q 301 1381 264 1342 q 392 1419 339 1419 q 482 1381 443 1419 q 521 1290 521 1342 q 482 1197 521 1238 q 392 1157 443 1157 q 302 1197 340 1157 q 264 1290 264 1238 m 310 1290 q 335 1230 310 1257 q 393 1203 360 1203 q 449 1230 425 1203 q 474 1290 474 1257 q 449 1346 474 1321 q 393 1371 425 1371 q 334 1346 358 1371 q 310 1290 310 1321 z "},"ů":{"ha":689,"x_min":81,"x_max":608,"o":"m 81 251 l 81 622 q 94 646 81 635 q 126 657 107 657 q 157 646 143 657 q 171 622 171 635 l 171 251 q 222 128 171 182 q 344 74 274 74 q 467 128 415 74 q 518 251 518 182 l 518 624 q 532 647 518 638 q 564 657 546 657 q 595 647 582 657 q 608 624 608 638 l 608 251 q 530 69 608 147 q 344 -10 451 -10 q 158 69 236 -10 q 81 251 81 147 m 215 938 q 253 1028 215 989 q 343 1067 290 1067 q 433 1028 394 1067 q 472 938 472 989 q 433 844 472 885 q 343 804 394 804 q 253 844 292 804 q 215 938 215 885 m 261 938 q 286 877 261 904 q 344 850 311 850 q 401 877 376 850 q 425 938 425 904 q 401 993 425 968 q 344 1018 376 1018 q 285 993 310 1018 q 261 938 261 968 z "},"Ű":{"ha":786,"x_min":101,"x_max":685,"o":"m 101 289 l 101 982 q 147 1015 101 1015 q 193 982 193 1015 l 193 289 q 245 130 193 183 q 393 76 297 76 q 541 130 489 76 q 593 289 593 183 l 593 982 q 639 1015 593 1015 q 685 982 685 1015 l 685 289 q 605 63 685 135 q 393 -8 525 -8 q 181 63 261 -8 q 101 289 101 135 m 253 1206 q 264 1225 253 1219 l 397 1321 q 413 1326 403 1326 q 435 1316 425 1326 q 444 1293 444 1306 q 432 1268 444 1276 l 306 1179 q 289 1172 299 1172 q 264 1183 275 1172 q 253 1206 253 1193 m 461 1206 q 472 1225 461 1219 l 606 1321 q 621 1326 611 1326 q 643 1316 633 1326 q 653 1293 653 1306 q 640 1268 653 1276 l 514 1179 q 497 1172 507 1172 q 472 1183 483 1172 q 461 1206 461 1193 z "},"ű":{"ha":689,"x_min":81,"x_max":608,"o":"m 81 251 l 81 622 q 94 646 81 635 q 126 657 107 657 q 157 646 143 657 q 171 622 171 635 l 171 251 q 222 128 171 182 q 344 74 274 74 q 467 128 415 74 q 518 251 518 182 l 518 624 q 532 647 518 638 q 564 657 546 657 q 595 647 582 657 q 608 624 608 638 l 608 251 q 530 69 608 147 q 344 -10 451 -10 q 158 69 236 -10 q 81 251 81 147 m 193 853 q 204 872 193 867 l 338 968 q 353 974 343 974 q 375 963 365 974 q 385 940 385 953 q 372 915 385 924 l 246 826 q 229 819 239 819 q 204 830 215 819 q 193 853 193 840 m 401 853 q 413 872 401 867 l 546 968 q 561 974 551 974 q 583 963 574 974 q 593 940 593 953 q 581 915 593 924 l 454 826 q 438 819 447 819 q 413 830 424 819 q 401 853 401 840 z "},"Ų":{"ha":786,"x_min":101,"x_max":685,"o":"m 101 289 l 101 982 q 147 1015 101 1015 q 193 982 193 1015 l 193 289 q 245 130 193 183 q 393 76 297 76 q 541 130 489 76 q 593 289 593 183 l 593 982 q 639 1015 593 1015 q 685 982 685 1015 l 685 289 q 499 6 685 57 q 396 -168 396 -85 q 482 -231 396 -231 q 510 -256 510 -231 q 475 -279 510 -279 q 379 -253 418 -279 q 340 -175 340 -228 q 414 -7 340 -87 q 404 -8 411 -7 q 393 -8 397 -8 q 181 63 261 -8 q 101 289 101 135 z "},"ų":{"ha":689,"x_min":81,"x_max":608,"o":"m 81 251 l 81 622 q 94 646 81 635 q 126 657 107 657 q 157 646 143 657 q 171 622 171 635 l 171 251 q 222 128 171 182 q 344 74 274 74 q 467 128 415 74 q 518 251 518 182 l 518 624 q 532 647 518 638 q 564 657 546 657 q 595 647 582 657 q 608 624 608 638 l 608 251 q 558 101 608 169 q 428 4 507 32 q 326 -168 326 -85 q 413 -231 326 -231 q 440 -256 440 -231 q 406 -279 440 -279 q 310 -253 349 -279 q 271 -175 271 -228 q 343 -10 271 -89 q 158 69 235 -8 q 81 251 81 147 z "},"Ŵ":{"ha":1093,"x_min":31,"x_max":1063,"o":"m 31 978 q 47 1004 31 993 q 83 1015 64 1015 q 119 992 113 1015 l 360 139 l 499 657 q 547 689 506 689 q 594 657 585 689 l 733 139 l 974 992 q 1010 1015 981 1015 q 1046 1004 1029 1015 q 1063 978 1063 993 q 1061 967 1063 971 l 789 25 q 733 -8 778 -8 q 679 25 688 -8 l 547 515 l 415 25 q 361 -8 407 -8 q 306 25 315 -8 l 32 967 q 31 978 31 971 m 360 1211 q 378 1242 360 1232 l 522 1319 q 546 1326 533 1326 q 569 1319 558 1326 l 714 1242 q 732 1210 732 1233 q 724 1186 732 1196 q 704 1176 715 1176 q 690 1181 703 1176 l 546 1257 l 401 1179 l 389 1175 q 369 1186 378 1175 q 360 1211 360 1197 z "},"ŵ":{"ha":926,"x_min":21,"x_max":904,"o":"m 21 619 q 38 648 21 636 q 75 660 56 660 q 107 639 100 660 l 285 144 l 428 596 q 464 619 435 619 q 500 596 493 619 l 638 139 l 819 639 q 850 660 824 660 q 887 649 869 660 q 904 619 904 638 q 899 599 904 607 l 682 11 q 646 -11 675 -11 q 608 10 619 -11 l 464 461 l 321 17 q 281 -11 313 -11 q 243 17 251 -11 l 26 599 q 21 619 21 610 m 276 858 q 294 889 276 879 l 439 967 q 463 974 450 974 q 486 967 475 974 l 631 889 q 649 857 649 881 q 640 833 649 843 q 621 824 632 824 q 607 828 619 824 l 463 904 l 318 826 l 306 822 q 285 833 294 822 q 276 858 276 844 z "},"Ŷ":{"ha":738,"x_min":26,"x_max":711,"o":"m 26 976 q 42 1004 26 993 q 76 1015 58 1015 q 113 988 99 1015 l 368 481 l 625 988 q 661 1015 639 1015 q 695 1004 679 1015 q 711 976 711 993 q 706 951 711 964 l 417 400 q 414 389 414 392 l 414 36 q 401 10 414 19 q 368 0 388 0 q 336 10 350 0 q 322 36 322 19 l 322 389 q 321 400 322 396 l 33 951 q 26 976 26 964 m 182 1211 q 200 1242 182 1232 l 344 1319 q 368 1326 356 1326 q 392 1319 381 1326 l 536 1242 q 554 1210 554 1233 q 546 1186 554 1196 q 526 1176 538 1176 q 513 1181 525 1176 l 368 1257 l 224 1179 l 211 1175 q 191 1186 200 1175 q 182 1211 182 1197 z "},"ŷ":{"ha":583,"x_min":19,"x_max":563,"o":"m 19 622 q 38 652 19 639 q 75 665 56 665 q 107 646 101 665 l 297 135 l 476 646 q 507 665 485 665 q 544 652 525 665 q 563 621 563 639 q 560 610 563 613 l 344 26 l 319 -42 q 292 -107 313 -60 q 258 -175 272 -154 l 222 -231 q 177 -281 199 -265 q 125 -309 156 -296 q 63 -322 94 -322 q 21 -282 21 -322 q 49 -240 21 -240 q 167 -163 113 -240 q 250 28 222 -86 l 24 610 q 19 622 19 617 m 110 858 q 128 889 110 879 l 272 967 q 296 974 283 974 q 319 967 308 974 l 464 889 q 482 857 482 881 q 474 833 482 843 q 454 824 465 824 q 440 828 453 824 l 296 904 l 151 826 l 139 822 q 119 833 128 822 q 110 858 110 844 z "},"Ÿ":{"ha":738,"x_min":26,"x_max":711,"o":"m 26 976 q 42 1004 26 993 q 76 1015 58 1015 q 113 988 99 1015 l 368 481 l 625 988 q 661 1015 639 1015 q 695 1004 679 1015 q 711 976 711 993 q 706 951 711 964 l 417 400 q 414 389 414 392 l 414 36 q 401 10 414 19 q 368 0 388 0 q 336 10 350 0 q 322 36 322 19 l 322 389 q 321 400 322 396 l 33 951 q 26 976 26 964 m 233 1228 q 248 1264 233 1250 q 285 1278 263 1278 q 320 1264 306 1278 q 335 1228 335 1250 q 320 1192 335 1207 q 285 1176 306 1176 q 248 1192 263 1176 q 233 1228 233 1207 m 404 1228 q 419 1264 404 1250 q 456 1278 433 1278 q 492 1264 478 1278 q 506 1228 506 1250 q 491 1192 506 1207 q 456 1176 476 1176 q 419 1192 433 1176 q 404 1228 404 1207 z "},"Ź":{"ha":672,"x_min":33,"x_max":640,"o":"m 33 32 q 42 64 33 47 l 504 931 l 85 931 q 60 943 69 931 q 50 974 50 956 q 59 1003 50 990 q 85 1015 68 1015 l 589 1015 q 624 986 624 1015 q 613 950 624 969 l 151 85 l 606 85 q 631 72 622 85 q 640 43 640 60 q 631 13 640 26 q 606 0 622 0 l 67 0 q 33 32 33 0 m 231 1213 q 246 1238 231 1231 l 401 1322 q 413 1326 406 1326 q 437 1315 428 1326 q 446 1288 446 1303 q 429 1257 446 1265 l 281 1178 q 267 1174 275 1174 q 242 1185 253 1174 q 231 1213 231 1197 z "},"ź":{"ha":557,"x_min":33,"x_max":525,"o":"m 33 36 q 47 71 33 51 l 388 578 l 81 578 q 57 590 67 578 q 47 617 47 601 q 57 645 47 633 q 81 657 67 657 l 474 657 q 498 647 488 657 q 508 621 508 638 q 497 588 508 603 l 156 81 l 492 81 q 515 69 506 81 q 525 39 525 57 q 515 12 525 24 q 492 0 506 0 l 71 0 q 44 11 54 0 q 33 36 33 22 m 182 860 q 197 885 182 878 l 353 969 q 364 974 357 974 q 388 962 379 974 q 397 935 397 950 q 381 904 397 913 l 232 825 q 218 821 225 821 q 193 833 204 821 q 182 860 182 844 z "},"Ż":{"ha":672,"x_min":33,"x_max":640,"o":"m 33 32 q 42 64 33 47 l 504 931 l 85 931 q 60 943 69 931 q 50 974 50 956 q 59 1003 50 990 q 85 1015 68 1015 l 589 1015 q 624 986 624 1015 q 613 950 624 969 l 151 85 l 606 85 q 631 72 622 85 q 640 43 640 60 q 631 13 640 26 q 606 0 622 0 l 67 0 q 33 32 33 0 m 281 1228 q 295 1264 281 1250 q 332 1278 310 1278 q 367 1264 353 1278 q 382 1228 382 1250 q 367 1192 382 1207 q 332 1176 353 1176 q 295 1192 310 1176 q 281 1228 281 1207 z "},"ż":{"ha":557,"x_min":33,"x_max":525,"o":"m 33 36 q 47 71 33 51 l 388 578 l 81 578 q 57 590 67 578 q 47 617 47 601 q 57 645 47 633 q 81 657 67 657 l 474 657 q 498 647 488 657 q 508 621 508 638 q 497 588 508 603 l 156 81 l 492 81 q 515 69 506 81 q 525 39 525 57 q 515 12 525 24 q 492 0 506 0 l 71 0 q 44 11 54 0 q 33 36 33 22 m 225 875 q 240 911 225 897 q 276 925 254 925 q 312 911 297 925 q 326 875 326 897 q 312 839 326 854 q 276 824 297 824 q 240 839 254 824 q 225 875 225 854 z "},"Ž":{"ha":672,"x_min":33,"x_max":640,"o":"m 33 32 q 42 64 33 47 l 504 931 l 85 931 q 60 943 69 931 q 50 974 50 956 q 59 1003 50 990 q 85 1015 68 1015 l 589 1015 q 624 986 624 1015 q 613 950 624 969 l 151 85 l 606 85 q 631 72 622 85 q 640 43 640 60 q 631 13 640 26 q 606 0 622 0 l 67 0 q 33 32 33 0 m 142 1338 q 149 1359 142 1350 q 168 1368 157 1368 q 189 1360 181 1368 l 328 1232 l 465 1360 q 486 1368 474 1368 q 505 1359 497 1368 q 513 1338 513 1350 q 496 1306 513 1319 l 356 1181 q 328 1167 339 1167 q 300 1181 314 1167 l 160 1306 q 142 1338 142 1319 z "},"ž":{"ha":557,"x_min":33,"x_max":525,"o":"m 33 36 q 47 71 33 51 l 388 578 l 81 578 q 57 590 67 578 q 47 617 47 601 q 57 645 47 633 q 81 657 67 657 l 474 657 q 498 647 488 657 q 508 621 508 638 q 497 588 508 603 l 156 81 l 492 81 q 515 69 506 81 q 525 39 525 57 q 515 12 525 24 q 492 0 506 0 l 71 0 q 44 11 54 0 q 33 36 33 22 m 89 985 q 97 1006 89 997 q 115 1015 104 1015 q 136 1007 128 1015 l 275 879 l 413 1007 q 433 1015 421 1015 q 452 1006 444 1015 q 460 985 460 997 q 443 953 460 967 l 303 828 q 275 814 286 814 q 247 828 261 814 l 107 953 q 89 985 89 967 z "},"ƒ":{"ha":479,"x_min":-106,"x_max":517,"o":"m -106 -150 q -94 -117 -106 -131 q -67 -104 -82 -104 l -37 -104 q 68 83 42 -104 l 169 810 q 269 991 183 915 q 458 1067 356 1067 l 486 1067 q 508 1056 500 1067 q 517 1028 517 1044 q 506 996 517 1008 q 479 983 494 983 l 453 983 q 326 933 381 983 q 260 810 271 882 l 226 578 l 426 578 q 447 567 439 578 q 456 543 456 557 q 445 515 456 528 q 421 503 435 503 l 215 503 l 157 83 q -43 -190 119 -190 l -74 -190 q -97 -178 -89 -190 q -106 -150 -106 -167 z "},"Ǽ":{"ha":993,"x_min":101,"x_max":960,"o":"m 101 43 l 101 719 q 180 944 101 872 q 388 1015 258 1015 l 926 1015 q 960 975 960 1015 q 951 944 960 957 q 926 931 942 931 l 600 931 l 600 549 l 804 549 q 830 537 821 549 q 839 507 839 525 q 804 469 839 469 l 600 469 l 600 85 l 926 85 q 951 72 942 85 q 960 42 960 60 q 926 0 960 0 l 551 0 q 522 10 535 0 q 508 36 508 19 l 508 469 l 190 469 l 190 43 q 181 10 190 21 q 144 0 172 0 q 101 43 101 0 m 190 549 l 508 549 l 508 931 l 388 931 q 190 719 190 931 l 190 549 m 424 1211 q 439 1236 424 1228 l 594 1321 q 606 1325 599 1325 q 630 1313 621 1325 q 639 1286 639 1301 q 622 1256 639 1264 l 474 1176 q 460 1172 467 1172 q 435 1184 446 1172 q 424 1211 424 1196 z "},"ǽ":{"ha":1011,"x_min":42,"x_max":961,"o":"m 42 174 q 124 322 42 281 q 364 364 206 364 l 435 364 l 435 397 q 394 531 435 475 q 268 588 353 588 q 169 567 215 588 q 121 547 124 547 q 95 563 106 547 q 85 594 85 579 q 145 644 85 621 q 274 667 206 667 q 486 536 426 667 q 576 630 519 594 q 700 665 633 665 q 881 597 801 665 q 961 397 961 528 q 936 319 961 338 q 840 301 911 301 l 529 301 l 529 250 q 587 119 529 168 q 736 69 644 69 q 817 83 782 69 q 873 111 853 97 q 904 125 893 125 q 931 111 918 125 q 943 82 943 97 q 872 20 943 50 q 722 -10 801 -10 q 576 28 643 -10 q 476 132 510 65 q 369 26 433 61 q 238 -10 306 -10 q 98 38 154 -10 q 42 174 42 85 m 132 179 q 165 96 132 125 q 251 67 199 67 q 378 116 321 67 q 435 213 435 165 l 435 301 l 375 301 q 281 297 319 301 q 206 281 243 293 q 151 244 169 269 q 132 179 132 218 m 401 860 q 417 885 401 878 l 572 969 q 583 974 576 974 q 608 962 599 974 q 617 935 617 950 q 600 904 617 913 l 451 825 q 438 821 444 821 q 413 833 424 821 q 401 860 401 844 m 529 368 l 804 368 q 860 377 847 368 q 874 413 874 386 q 824 538 874 485 q 700 590 775 590 q 579 541 629 590 q 529 422 529 492 l 529 368 z "},"Ǿ":{"ha":767,"x_min":83,"x_max":685,"o":"m 83 -3 q 88 14 83 6 l 136 110 q 94 289 94 176 l 94 719 q 173 944 94 872 q 383 1015 251 1015 q 571 961 499 1015 l 617 1051 q 644 1068 624 1068 q 672 1057 658 1068 q 685 1031 685 1046 q 679 1013 685 1019 l 625 906 q 672 719 672 832 l 672 289 q 594 63 672 135 q 383 -8 515 -8 q 188 51 261 -8 l 153 -17 q 119 -37 144 -37 q 94 -27 106 -37 q 83 -3 83 -17 m 186 289 q 192 219 186 247 l 528 879 q 383 931 478 931 q 186 719 186 931 l 186 289 m 231 136 q 383 76 281 76 q 581 289 581 76 l 581 719 q 571 800 581 758 l 231 136 m 285 1213 q 300 1238 285 1231 l 456 1322 q 467 1326 460 1326 q 491 1315 482 1326 q 500 1288 500 1303 q 483 1257 500 1265 l 335 1178 q 321 1174 328 1174 q 296 1185 307 1174 q 285 1213 285 1197 z "},"ǿ":{"ha":650,"x_min":61,"x_max":589,"o":"m 61 254 l 61 406 q 139 588 61 511 q 324 665 217 665 q 458 628 394 665 l 497 694 q 518 707 504 707 q 540 698 531 707 q 549 676 549 689 q 543 658 549 665 l 506 593 q 589 406 589 514 l 589 254 q 509 70 589 150 q 324 -10 429 -10 q 183 33 246 -10 l 146 -31 q 122 -44 138 -44 q 103 -37 111 -44 q 94 -18 94 -29 q 100 -3 94 -10 l 140 68 q 61 254 61 147 m 151 254 q 186 147 151 194 l 417 553 q 324 582 372 582 q 202 528 253 582 q 151 406 151 474 l 151 254 m 225 107 q 324 74 269 74 q 447 128 396 74 q 499 254 499 183 l 499 406 q 460 514 499 461 l 225 107 m 233 860 q 249 885 233 878 l 404 969 q 415 974 408 974 q 440 962 431 974 q 449 935 449 950 q 432 904 449 913 l 283 825 q 269 821 278 821 q 244 833 256 821 q 233 860 233 844 z "},"Ș":{"ha":686,"x_min":50,"x_max":628,"o":"m 50 140 q 63 174 50 157 q 92 192 76 192 q 119 174 103 192 l 158 133 q 224 94 179 113 q 329 76 269 76 q 482 126 428 76 q 536 268 536 175 q 510 374 536 331 q 444 442 485 418 q 356 486 404 467 l 256 525 q 167 572 207 544 q 101 648 126 599 q 75 765 75 697 q 102 890 75 838 q 175 968 129 942 q 269 1006 221 994 q 369 1018 317 1018 q 528 994 454 1018 q 603 933 603 969 q 591 899 603 917 q 563 882 579 882 q 531 895 554 882 q 465 922 507 908 q 368 935 422 935 q 224 897 281 935 q 167 774 167 860 q 201 674 167 714 q 286 615 235 633 q 397 572 338 597 q 508 519 457 547 q 594 428 560 490 q 628 276 628 367 q 549 62 628 133 q 335 -10 469 -10 q 132 42 214 -10 q 50 140 50 94 m 251 -181 q 267 -156 251 -164 l 421 -69 q 433 -67 429 -67 q 457 -79 447 -67 q 467 -106 467 -92 q 449 -136 467 -126 l 301 -215 q 286 -219 293 -219 q 262 -208 272 -219 q 251 -181 251 -196 z "},"ș":{"ha":535,"x_min":46,"x_max":488,"o":"m 46 90 q 56 118 46 104 q 78 132 65 132 q 108 116 88 132 q 168 83 129 100 q 261 67 207 67 q 369 94 335 67 q 404 165 404 122 q 369 245 404 215 q 283 289 333 275 q 183 319 233 303 q 97 374 132 336 q 61 476 61 413 q 116 609 61 553 q 281 665 171 665 q 408 644 349 665 q 467 597 467 622 q 456 567 467 583 q 429 550 444 550 q 378 569 425 550 q 282 589 331 589 q 178 556 213 589 q 143 481 143 522 q 178 413 143 438 q 265 374 214 388 q 366 344 315 361 q 452 283 417 326 q 488 169 488 239 q 428 38 488 86 q 264 -10 369 -10 q 109 23 172 -10 q 46 90 46 56 m 163 -181 q 178 -156 163 -164 l 332 -69 q 344 -67 340 -67 q 368 -79 358 -67 q 378 -106 378 -92 q 360 -136 378 -126 l 213 -215 q 197 -219 204 -219 q 173 -208 183 -219 q 163 -181 163 -196 z "},"ȷ":{"ha":265,"x_min":-51,"x_max":178,"o":"m -51 -282 q -40 -252 -51 -264 q -12 -240 -29 -240 q 68 -195 49 -240 q 88 -60 88 -150 l 88 624 q 100 648 88 639 q 132 657 113 657 q 165 647 151 657 q 178 624 178 638 l 178 -60 q -6 -322 178 -322 q -40 -310 -29 -322 q -51 -282 -51 -299 z "},"ə":{"ha":636,"x_min":49,"x_max":574,"o":"m 49 244 q 56 297 49 275 q 73 329 63 318 q 101 346 83 340 q 133 353 119 351 q 169 354 146 354 l 483 354 l 483 406 q 424 538 483 488 q 271 588 365 588 q 189 574 224 588 q 135 546 154 560 q 106 532 117 532 q 78 546 90 532 q 67 574 67 560 q 126 634 67 603 q 275 665 186 665 q 490 592 406 665 q 574 403 574 519 l 574 247 q 495 67 574 143 q 308 -10 417 -10 q 125 63 201 -10 q 49 244 49 135 m 136 240 q 185 118 136 171 q 308 65 235 65 q 432 115 381 65 q 483 235 483 165 l 483 288 l 206 288 q 150 278 164 288 q 136 240 136 269 z "},"ˆ":{"ha":372,"x_min":0,"x_max":372,"o":"m 0 858 q 18 889 0 879 l 163 967 q 186 974 174 974 q 210 967 199 974 l 354 889 q 372 857 372 881 q 364 833 372 843 q 344 824 356 824 q 331 828 343 824 l 186 904 l 42 826 l 29 822 q 9 833 18 822 q 0 858 0 844 z "},"ˇ":{"ha":393,"x_min":11,"x_max":382,"o":"m 11 985 q 19 1006 11 997 q 38 1015 26 1015 q 58 1007 50 1015 l 197 879 l 335 1007 q 356 1015 343 1015 q 374 1006 367 1015 q 382 985 382 997 q 365 953 382 967 l 225 828 q 197 814 208 814 q 169 828 183 814 l 29 953 q 11 985 11 967 z "},"˘":{"ha":324,"x_min":0,"x_max":324,"o":"m 0 992 l 61 992 q 91 912 61 944 q 163 879 121 879 q 233 912 203 879 q 263 992 263 944 l 324 992 q 274 878 324 926 q 163 829 225 829 q 49 878 97 829 q 0 992 0 926 z "},"˙":{"ha":281,"x_min":97,"x_max":199,"o":"m 97 875 q 112 911 97 897 q 149 925 126 925 q 184 911 169 925 q 199 875 199 897 q 184 839 199 854 q 149 824 169 824 q 112 839 126 824 q 97 875 97 854 z "},"˚":{"ha":257,"x_min":0,"x_max":257,"o":"m 0 938 q 38 1028 0 989 q 128 1067 75 1067 q 218 1028 179 1067 q 257 938 257 989 q 218 844 257 885 q 128 804 179 804 q 38 844 76 804 q 0 938 0 885 m 46 938 q 71 877 46 904 q 129 850 96 850 q 185 877 161 850 q 210 938 210 904 q 185 993 210 968 q 129 1018 161 1018 q 70 993 94 1018 q 46 938 46 968 z "},"˛":{"ha":169,"x_min":0,"x_max":169,"o":"m 0 -175 q 113 29 0 -67 l 158 6 q 56 -168 56 -85 q 142 -231 56 -231 q 169 -256 169 -231 q 135 -279 169 -279 q 39 -253 78 -279 q 0 -175 0 -228 z "},"˜":{"ha":431,"x_min":0,"x_max":431,"o":"m 26 850 q 0 885 0 850 q 41 942 0 919 q 122 964 82 964 q 214 940 158 964 q 306 917 269 917 q 368 937 342 917 q 403 957 394 957 q 423 947 415 957 q 431 925 431 936 q 392 866 431 886 q 314 846 353 846 q 222 870 276 846 q 129 894 167 894 q 64 872 94 894 q 26 850 33 850 z "},"˝":{"ha":400,"x_min":0,"x_max":400,"o":"m 0 853 q 11 872 0 867 l 144 968 q 160 974 150 974 q 182 963 172 974 q 192 940 192 953 q 179 915 192 924 l 53 826 q 36 819 46 819 q 11 830 22 819 q 0 853 0 840 m 208 853 q 219 872 208 867 l 353 968 q 368 974 358 974 q 390 963 381 974 q 400 940 400 953 q 388 915 400 924 l 261 826 q 244 819 254 819 q 219 830 231 819 q 208 853 208 840 z "},"π":{"ha":683,"x_min":88,"x_max":596,"o":"m 88 35 l 88 622 q 100 648 88 639 q 129 657 113 657 l 553 657 q 583 648 569 657 q 596 622 596 639 l 596 35 q 550 0 596 0 q 504 35 504 0 l 504 572 l 179 572 l 179 35 q 133 0 179 0 q 88 35 88 0 z "},"Ẁ":{"ha":1093,"x_min":31,"x_max":1063,"o":"m 31 978 q 47 1004 31 993 q 83 1015 64 1015 q 119 992 113 1015 l 360 139 l 499 657 q 547 689 506 689 q 594 657 585 689 l 733 139 l 974 992 q 1010 1015 981 1015 q 1046 1004 1029 1015 q 1063 978 1063 993 q 1061 967 1063 971 l 789 25 q 733 -8 778 -8 q 679 25 688 -8 l 547 515 l 415 25 q 361 -8 407 -8 q 306 25 315 -8 l 32 967 q 31 978 31 971 m 432 1288 q 442 1314 432 1301 q 465 1326 451 1326 q 478 1322 472 1326 l 632 1238 q 647 1213 647 1231 q 636 1185 647 1197 q 611 1174 625 1174 q 597 1178 603 1174 l 450 1257 q 432 1288 432 1265 z "},"ẁ":{"ha":926,"x_min":21,"x_max":904,"o":"m 21 619 q 38 648 21 636 q 75 660 56 660 q 107 639 100 660 l 285 144 l 428 596 q 464 619 435 619 q 500 596 493 619 l 638 139 l 819 639 q 850 660 824 660 q 887 649 869 660 q 904 619 904 638 q 899 599 904 607 l 682 11 q 646 -11 675 -11 q 608 10 619 -11 l 464 461 l 321 17 q 281 -11 313 -11 q 243 17 251 -11 l 26 599 q 21 619 21 610 m 344 935 q 354 961 344 949 q 378 974 364 974 q 390 969 383 974 l 544 885 q 560 860 560 878 q 549 833 560 844 q 524 821 538 821 q 510 825 517 821 l 363 904 q 344 935 344 913 z "},"Ẃ":{"ha":1093,"x_min":31,"x_max":1063,"o":"m 31 978 q 47 1004 31 993 q 83 1015 64 1015 q 119 992 113 1015 l 360 139 l 499 657 q 547 689 506 689 q 594 657 585 689 l 733 139 l 974 992 q 1010 1015 981 1015 q 1046 1004 1029 1015 q 1063 978 1063 993 q 1061 967 1063 971 l 789 25 q 733 -8 778 -8 q 679 25 688 -8 l 547 515 l 415 25 q 361 -8 407 -8 q 306 25 315 -8 l 32 967 q 31 978 31 971 m 446 1213 q 461 1238 446 1231 l 617 1322 q 628 1326 621 1326 q 652 1315 643 1326 q 661 1288 661 1303 q 644 1257 661 1265 l 496 1178 q 482 1174 489 1174 q 457 1185 468 1174 q 446 1213 446 1197 z "},"ẃ":{"ha":926,"x_min":21,"x_max":904,"o":"m 21 619 q 38 648 21 636 q 75 660 56 660 q 107 639 100 660 l 285 144 l 428 596 q 464 619 435 619 q 500 596 493 619 l 638 139 l 819 639 q 850 660 824 660 q 887 649 869 660 q 904 619 904 638 q 899 599 904 607 l 682 11 q 646 -11 675 -11 q 608 10 619 -11 l 464 461 l 321 17 q 281 -11 313 -11 q 243 17 251 -11 l 26 599 q 21 619 21 610 m 365 860 q 381 885 365 878 l 536 969 q 547 974 540 974 q 572 962 563 974 q 581 935 581 950 q 564 904 581 913 l 415 825 q 401 821 408 821 q 376 833 388 821 q 365 860 365 844 z "},"Ẅ":{"ha":1093,"x_min":31,"x_max":1063,"o":"m 31 978 q 47 1004 31 993 q 83 1015 64 1015 q 119 992 113 1015 l 360 139 l 499 657 q 547 689 506 689 q 594 657 585 689 l 733 139 l 974 992 q 1010 1015 981 1015 q 1046 1004 1029 1015 q 1063 978 1063 993 q 1061 967 1063 971 l 789 25 q 733 -8 778 -8 q 679 25 688 -8 l 547 515 l 415 25 q 361 -8 407 -8 q 306 25 315 -8 l 32 967 q 31 978 31 971 m 410 1228 q 424 1264 410 1250 q 461 1278 439 1278 q 497 1264 482 1278 q 511 1228 511 1250 q 497 1192 511 1207 q 461 1176 482 1176 q 424 1192 439 1176 q 410 1228 410 1207 m 581 1228 q 595 1264 581 1250 q 632 1278 610 1278 q 668 1264 654 1278 q 682 1228 682 1250 q 667 1192 682 1207 q 632 1176 653 1176 q 595 1192 610 1176 q 581 1228 581 1207 z "},"ẅ":{"ha":926,"x_min":21,"x_max":904,"o":"m 21 619 q 38 648 21 636 q 75 660 56 660 q 107 639 100 660 l 285 144 l 428 596 q 464 619 435 619 q 500 596 493 619 l 638 139 l 819 639 q 850 660 824 660 q 887 649 869 660 q 904 619 904 638 q 899 599 904 607 l 682 11 q 646 -11 675 -11 q 608 10 619 -11 l 464 461 l 321 17 q 281 -11 313 -11 q 243 17 251 -11 l 26 599 q 21 619 21 610 m 326 875 q 341 911 326 897 q 378 925 356 925 q 413 911 399 925 q 428 875 428 897 q 413 839 428 854 q 378 824 399 824 q 341 839 356 824 q 326 875 326 854 m 497 875 q 512 911 497 897 q 549 925 526 925 q 585 911 571 925 q 599 875 599 897 q 584 839 599 854 q 549 824 569 824 q 512 839 526 824 q 497 875 497 854 z "},"Ỳ":{"ha":738,"x_min":26,"x_max":711,"o":"m 26 976 q 42 1004 26 993 q 76 1015 58 1015 q 113 988 99 1015 l 368 481 l 625 988 q 661 1015 639 1015 q 695 1004 679 1015 q 711 976 711 993 q 706 951 711 964 l 417 400 q 414 389 414 392 l 414 36 q 401 10 414 19 q 368 0 388 0 q 336 10 350 0 q 322 36 322 19 l 322 389 q 321 400 322 396 l 33 951 q 26 976 26 964 m 254 1288 q 264 1314 254 1301 q 288 1326 274 1326 q 300 1322 294 1326 l 454 1238 q 469 1213 469 1231 q 458 1185 469 1197 q 433 1174 447 1174 q 419 1178 425 1174 l 272 1257 q 254 1288 254 1265 z "},"ỳ":{"ha":583,"x_min":19,"x_max":563,"o":"m 19 622 q 38 652 19 639 q 75 665 56 665 q 107 646 101 665 l 297 135 l 476 646 q 507 665 485 665 q 544 652 525 665 q 563 621 563 639 q 560 610 563 613 l 344 26 l 319 -42 q 292 -107 313 -60 q 258 -175 272 -154 l 222 -231 q 177 -281 199 -265 q 125 -309 156 -296 q 63 -322 94 -322 q 21 -282 21 -322 q 49 -240 21 -240 q 167 -163 113 -240 q 250 28 222 -86 l 24 610 q 19 622 19 617 m 172 935 q 182 961 172 949 q 206 974 192 974 q 218 969 211 974 l 372 885 q 388 860 388 878 q 376 833 388 844 q 351 821 365 821 q 338 825 344 821 l 190 904 q 172 935 172 913 z "},"–":{"ha":657,"x_min":72,"x_max":586,"o":"m 72 333 q 82 363 72 351 q 107 375 92 375 l 551 375 q 576 363 565 375 q 586 333 586 351 q 576 306 586 317 q 551 294 565 294 l 107 294 q 72 333 72 294 z "},"—":{"ha":1047,"x_min":72,"x_max":976,"o":"m 72 333 q 82 363 72 351 q 107 375 92 375 l 940 375 q 965 363 954 375 q 976 333 976 350 q 965 306 976 317 q 940 294 954 294 l 107 294 q 72 333 72 294 z "},"‘":{"ha":222,"x_min":46,"x_max":172,"o":"m 46 856 q 101 1013 46 893 q 126 1029 110 1029 q 149 1021 139 1029 q 160 1000 160 1013 q 158 989 160 993 l 131 917 q 172 857 172 900 q 153 810 172 829 q 108 792 135 792 q 64 810 82 792 q 46 856 46 829 z "},"’":{"ha":219,"x_min":50,"x_max":178,"o":"m 50 965 q 69 1010 50 992 q 114 1029 88 1029 q 159 1010 140 1029 q 178 965 178 992 q 122 808 178 935 q 97 792 114 792 q 73 800 83 792 q 63 821 63 808 q 65 833 63 829 l 93 906 q 62 929 74 913 q 50 965 50 946 z "},"‚":{"ha":238,"x_min":56,"x_max":182,"o":"m 56 56 q 74 102 56 83 q 119 121 92 121 q 163 102 144 121 q 182 57 182 83 q 126 -100 182 19 q 101 -117 118 -117 q 78 -108 89 -117 q 67 -87 67 -100 q 69 -76 67 -85 l 97 -4 q 56 56 56 13 z "},"“":{"ha":432,"x_min":46,"x_max":382,"o":"m 46 856 q 103 1013 46 890 q 128 1029 108 1029 q 151 1021 140 1029 q 161 1000 161 1013 q 158 989 161 993 l 132 917 q 174 857 174 900 q 155 810 174 829 q 110 792 136 792 q 65 810 83 792 q 46 856 46 829 m 256 856 q 311 1013 256 893 q 336 1029 319 1029 q 360 1021 349 1029 q 371 1000 371 1013 q 368 989 371 997 l 340 917 q 382 857 382 900 q 364 810 382 829 q 318 792 346 792 q 274 810 293 792 q 256 856 256 829 z "},"”":{"ha":429,"x_min":51,"x_max":388,"o":"m 51 965 q 70 1010 51 992 q 115 1029 89 1029 q 160 1010 142 1029 q 179 965 179 992 q 122 808 179 933 q 97 792 117 792 q 74 800 85 792 q 64 821 64 808 q 67 833 64 829 l 93 906 q 51 965 51 919 m 261 965 q 279 1010 261 992 q 325 1029 297 1029 q 369 1010 350 1029 q 388 965 388 992 q 332 808 388 929 q 307 792 324 792 q 283 800 294 792 q 272 821 272 808 q 275 833 272 825 l 303 906 q 261 965 261 919 z "},"„":{"ha":447,"x_min":56,"x_max":392,"o":"m 56 56 q 74 102 56 83 q 119 121 92 121 q 163 102 144 121 q 182 57 182 83 q 126 -100 182 19 q 101 -117 118 -117 q 78 -108 89 -117 q 67 -87 67 -100 q 69 -76 67 -85 l 97 -4 q 56 56 56 13 m 264 56 q 283 102 264 83 q 328 121 301 121 q 373 102 354 121 q 392 57 392 83 q 335 -100 392 22 q 310 -117 328 -117 q 287 -108 297 -117 q 276 -87 276 -100 q 279 -76 276 -81 l 306 -4 q 264 56 264 13 z "},"†":{"ha":575,"x_min":31,"x_max":544,"o":"m 31 631 q 65 671 31 668 l 242 663 l 242 982 q 255 1006 242 996 q 288 1015 268 1015 q 319 1006 304 1015 q 333 982 333 996 l 333 663 l 510 671 q 533 659 522 671 q 544 631 544 647 q 533 603 544 614 q 510 593 522 593 l 333 601 l 333 8 q 319 -17 333 -6 q 288 -29 304 -29 q 255 -18 268 -29 q 242 8 242 -7 l 242 601 l 65 593 q 31 631 31 596 z "},"‡":{"ha":610,"x_min":49,"x_max":563,"o":"m 82 296 q 49 335 49 299 q 82 374 49 371 l 258 365 l 258 601 l 82 593 q 49 631 49 596 q 82 671 49 668 l 258 663 l 258 982 q 272 1006 258 996 q 304 1015 286 1015 q 336 1006 322 1015 q 350 982 350 996 l 350 663 l 526 671 q 551 658 540 669 q 563 631 563 647 q 551 605 563 615 q 526 593 540 594 l 350 601 l 350 365 l 526 374 q 551 361 540 372 q 563 335 563 350 q 551 308 563 319 q 526 296 540 297 l 350 304 l 350 8 q 336 -17 350 -6 q 304 -29 322 -29 q 272 -18 286 -29 q 258 8 258 -7 l 258 304 l 82 296 z "},"•":{"ha":432,"x_min":68,"x_max":365,"o":"m 68 417 q 113 517 68 474 q 217 561 157 561 q 321 517 276 561 q 365 417 365 474 q 321 315 365 358 q 217 272 276 272 q 113 315 157 272 q 68 417 68 358 z "},"…":{"ha":740,"x_min":56,"x_max":686,"o":"m 56 56 q 74 102 56 83 q 119 121 92 121 q 163 101 144 121 q 182 56 182 82 q 163 11 182 31 q 119 -8 144 -8 q 74 10 92 -8 q 56 56 56 29 m 308 56 q 326 102 308 83 q 372 121 344 121 q 416 101 397 121 q 435 56 435 82 q 416 11 435 31 q 372 -8 397 -8 q 326 10 344 -8 q 308 56 308 29 m 560 56 q 578 102 560 83 q 624 121 596 121 q 667 101 649 121 q 686 56 686 82 q 667 11 686 31 q 624 -8 649 -8 q 578 10 596 -8 q 560 56 560 29 z "},"‰":{"ha":1481,"x_min":56,"x_max":1429,"o":"m 56 646 l 56 857 q 103 977 56 939 q 228 1015 150 1015 q 353 977 306 1015 q 400 857 400 939 l 400 646 q 353 526 400 564 q 228 488 306 488 q 103 526 150 488 q 56 646 56 564 m 126 646 q 228 550 126 550 q 331 646 331 550 l 331 857 q 228 953 331 953 q 126 857 126 953 l 126 646 m 231 -3 q 235 14 231 6 l 764 1051 q 792 1068 771 1068 q 818 1057 806 1068 q 831 1031 831 1046 q 826 1013 831 1021 l 300 -17 q 267 -37 289 -37 q 242 -27 253 -37 q 231 -3 231 -17 m 651 154 l 651 365 q 699 485 651 446 q 824 524 746 524 q 949 485 901 524 q 996 365 996 446 l 996 154 q 949 34 996 72 q 824 -4 901 -4 q 699 34 746 -4 q 651 154 651 72 m 722 154 q 824 58 722 58 q 926 154 926 58 l 926 365 q 824 461 926 461 q 722 365 722 461 l 722 154 m 1085 154 l 1085 365 q 1132 485 1085 446 q 1257 524 1179 524 q 1382 485 1335 524 q 1429 365 1429 446 l 1429 154 q 1382 34 1429 72 q 1257 -4 1335 -4 q 1132 34 1179 -4 q 1085 154 1085 72 m 1156 154 q 1257 58 1156 58 q 1360 154 1360 58 l 1360 365 q 1257 461 1360 461 q 1156 365 1156 461 l 1156 154 z "},"‹":{"ha":326,"x_min":49,"x_max":269,"o":"m 49 385 q 63 424 49 397 l 186 651 q 218 668 194 668 q 253 653 238 668 q 269 624 269 639 q 265 608 269 617 l 144 385 l 265 163 q 269 147 269 154 q 253 117 269 131 q 217 103 238 103 q 186 119 196 103 l 63 347 q 49 385 49 375 z "},"›":{"ha":326,"x_min":57,"x_max":278,"o":"m 57 147 q 61 163 57 154 l 181 385 l 61 608 q 57 624 57 617 q 72 653 57 639 q 107 668 88 668 q 139 651 133 668 l 263 424 q 278 385 278 393 q 263 347 278 375 l 139 119 q 110 103 132 103 q 73 117 89 103 q 57 147 57 131 z "},"⁄":{"ha":221,"x_min":-190,"x_max":410,"o":"m -190 -3 q -186 14 -190 6 l 343 1051 q 371 1068 350 1068 q 397 1057 385 1068 q 410 1031 410 1046 q 406 1013 410 1021 l -121 -17 q -154 -37 -131 -37 q -179 -27 -168 -37 q -190 -3 -190 -17 z "},"⁰":{"ha":472,"x_min":64,"x_max":408,"o":"m 64 646 l 64 857 q 111 977 64 939 q 236 1015 158 1015 q 361 977 314 1015 q 408 857 408 939 l 408 646 q 361 526 408 564 q 236 488 314 488 q 111 526 158 488 q 64 646 64 564 m 135 646 q 236 550 135 550 q 339 646 339 550 l 339 857 q 236 953 339 953 q 135 857 135 953 l 135 646 z "},"⁴":{"ha":399,"x_min":18,"x_max":378,"o":"m 18 638 q 22 651 18 643 l 217 996 q 249 1015 229 1015 q 272 1007 260 1015 q 283 988 283 999 q 281 976 283 985 l 108 676 l 242 676 l 242 783 q 276 807 242 807 q 311 783 311 807 l 311 676 l 353 676 q 371 666 364 676 q 378 643 378 656 q 370 622 378 632 q 353 611 363 611 l 311 611 l 311 517 q 276 492 311 492 q 242 517 242 492 l 242 611 l 43 611 q 18 638 18 611 z "},"⁵":{"ha":425,"x_min":39,"x_max":383,"o":"m 39 610 q 75 646 39 646 q 110 618 110 646 q 207 550 113 550 q 313 644 313 550 l 313 658 q 211 750 313 750 l 99 750 q 67 776 67 750 q 68 806 67 794 l 86 992 q 103 1015 89 1015 l 332 1015 q 354 983 354 1015 q 332 953 354 953 l 146 953 l 133 807 l 211 807 q 337 771 290 807 q 383 658 383 735 l 383 644 q 336 526 383 564 q 213 488 289 488 q 86 524 133 488 q 39 610 39 561 z "},"⁶":{"ha":457,"x_min":63,"x_max":406,"o":"m 63 669 l 63 857 q 110 977 63 939 q 238 1015 158 1015 q 361 977 317 1015 q 406 889 406 939 q 372 858 406 858 q 338 886 338 858 q 308 935 338 917 q 235 953 278 953 q 132 857 132 953 l 132 763 q 246 806 168 806 q 406 660 406 806 l 406 646 q 359 526 406 564 q 235 488 313 488 q 106 530 149 488 q 63 669 63 572 m 132 642 q 235 547 132 547 q 336 642 336 547 l 336 656 q 233 749 336 749 q 132 663 132 749 l 132 642 z "},"⁷":{"ha":407,"x_min":36,"x_max":381,"o":"m 36 882 l 36 992 q 47 1008 36 1000 q 68 1015 57 1015 l 349 1015 q 370 1008 360 1015 q 381 992 381 1000 l 381 921 q 369 883 381 906 l 146 501 q 124 490 139 490 q 94 500 107 490 q 81 524 81 510 q 83 538 81 526 l 311 911 l 311 953 l 107 953 l 107 882 q 96 865 107 872 q 71 858 85 858 q 47 865 57 858 q 36 882 36 872 z "},"⁸":{"ha":444,"x_min":50,"x_max":393,"o":"m 50 635 l 50 644 q 139 778 50 746 q 67 889 67 803 q 222 1015 67 1015 q 378 889 378 1015 q 306 778 378 803 q 393 644 393 746 l 393 635 q 347 524 393 560 q 222 488 300 488 q 97 524 144 488 q 50 635 50 560 m 121 642 q 222 546 121 546 q 325 642 325 546 l 325 654 q 222 747 325 747 q 121 654 121 747 l 121 642 m 222 957 q 178 957 222 957 q 135 882 135 957 q 222 807 135 807 q 310 882 310 807 q 222 957 310 957 z "},"⁹":{"ha":458,"x_min":51,"x_max":394,"o":"m 51 614 q 85 644 51 644 q 119 617 119 644 q 149 569 119 588 q 222 550 179 550 q 326 646 326 550 l 326 740 q 211 699 289 699 q 51 843 51 699 l 51 857 q 99 977 51 939 q 224 1015 146 1015 q 348 977 301 1015 q 394 857 394 939 l 394 646 q 219 488 394 488 q 96 526 140 488 q 51 614 51 564 m 122 847 q 224 754 122 754 q 326 842 326 754 l 326 861 q 224 957 326 957 q 122 861 122 957 l 122 847 z "},"₀":{"ha":472,"x_min":64,"x_max":408,"o":"m 64 154 l 64 365 q 111 485 64 446 q 236 524 158 524 q 361 485 314 524 q 408 365 408 446 l 408 154 q 361 34 408 72 q 236 -4 314 -4 q 111 34 158 -4 q 64 154 64 72 m 135 154 q 236 58 135 58 q 339 154 339 58 l 339 365 q 236 461 339 461 q 135 365 135 461 l 135 154 z "},"₁":{"ha":235,"x_min":25,"x_max":165,"o":"m 25 414 q 39 440 25 432 l 115 515 q 135 524 122 524 q 165 500 165 524 l 165 24 q 132 0 165 0 q 96 24 96 0 l 96 428 l 67 393 q 50 385 60 385 q 33 394 40 385 q 25 414 25 403 z "},"₂":{"ha":425,"x_min":46,"x_max":383,"o":"m 46 24 l 46 93 q 87 171 46 132 q 177 238 128 210 q 267 303 226 265 q 308 379 308 342 q 283 435 308 411 q 213 458 258 458 q 126 385 126 458 q 116 367 126 375 q 90 358 106 358 q 57 397 57 358 q 102 488 57 453 q 214 524 147 524 q 331 483 283 524 q 378 382 378 443 q 351 302 378 339 q 285 239 324 265 q 210 190 247 213 q 145 142 172 167 q 118 96 118 118 l 118 63 l 358 63 q 376 53 368 63 q 383 32 383 44 q 376 10 383 19 q 358 0 368 0 l 78 0 q 56 7 67 0 q 46 24 46 14 z "},"₃":{"ha":435,"x_min":40,"x_max":385,"o":"m 40 121 q 48 144 40 138 q 74 150 56 150 q 110 125 110 150 q 135 78 110 99 q 211 58 160 58 q 315 151 315 58 l 315 164 q 211 246 315 246 q 186 274 186 246 q 211 303 186 303 q 278 320 256 303 q 300 383 300 338 q 214 461 300 461 q 124 399 124 461 q 90 371 124 371 q 61 377 68 371 q 54 403 54 383 q 92 485 54 447 q 215 524 129 524 q 368 396 368 524 q 304 276 368 303 q 385 164 385 249 l 385 151 q 337 34 385 72 q 211 -4 289 -4 q 85 34 129 -4 q 40 121 40 72 z "},"₄":{"ha":399,"x_min":18,"x_max":378,"o":"m 18 146 q 22 160 18 151 l 217 503 q 249 524 229 524 q 272 515 260 524 q 283 496 283 507 q 281 485 283 490 l 108 185 l 242 185 l 242 292 q 276 314 242 314 q 311 292 311 314 l 311 185 l 353 185 q 371 174 364 185 q 378 151 378 164 q 370 129 378 139 q 353 119 363 119 l 311 119 l 311 24 q 276 0 311 0 q 242 24 242 0 l 242 119 l 43 119 q 18 146 18 119 z "},"₅":{"ha":425,"x_min":39,"x_max":383,"o":"m 39 118 q 75 154 39 154 q 110 126 110 154 q 207 58 113 58 q 313 151 313 58 l 313 167 q 211 258 313 258 l 99 258 q 67 285 67 258 q 68 314 67 301 l 86 500 q 103 524 89 524 l 332 524 q 354 492 354 524 q 332 461 354 461 l 146 461 l 133 315 l 211 315 q 337 279 290 315 q 383 167 383 243 l 383 151 q 336 34 383 72 q 213 -4 289 -4 q 86 32 133 -4 q 39 118 39 68 z "},"₆":{"ha":457,"x_min":63,"x_max":406,"o":"m 63 176 l 63 365 q 110 485 63 446 q 238 524 158 524 q 361 485 317 524 q 406 397 406 447 q 372 367 406 367 q 338 394 338 367 q 308 443 338 425 q 235 461 278 461 q 132 365 132 461 l 132 271 q 246 314 169 314 q 406 168 406 314 l 406 154 q 359 34 406 72 q 235 -4 313 -4 q 106 38 149 -4 q 63 176 63 81 m 132 150 q 235 56 132 56 q 336 150 336 56 l 336 164 q 233 257 336 257 q 132 171 132 257 l 132 150 z "},"₇":{"ha":407,"x_min":36,"x_max":381,"o":"m 36 390 l 36 500 q 47 516 36 508 q 68 524 57 524 l 349 524 q 370 516 360 524 q 381 500 381 508 l 381 428 q 369 392 381 411 l 146 10 q 124 -3 139 -3 q 94 7 107 -3 q 81 32 81 17 q 83 44 81 36 l 311 418 l 311 461 l 107 461 l 107 390 q 96 374 107 381 q 71 367 85 367 q 36 390 36 367 z "},"₈":{"ha":444,"x_min":50,"x_max":393,"o":"m 50 143 l 50 151 q 139 285 50 256 q 67 397 67 310 q 222 524 67 524 q 378 397 378 524 q 306 285 378 310 q 393 151 393 254 l 393 143 q 347 32 393 68 q 222 -4 300 -4 q 97 32 144 -4 q 50 143 50 68 m 121 150 q 222 54 121 54 q 325 150 325 54 l 325 163 q 222 256 325 256 q 121 163 121 256 l 121 150 m 135 389 q 222 314 135 314 q 310 389 310 314 q 222 465 310 465 q 135 389 135 465 z "},"₉":{"ha":458,"x_min":51,"x_max":394,"o":"m 51 122 q 85 153 51 153 q 119 125 119 153 q 149 76 119 94 q 222 58 179 58 q 326 154 326 58 l 326 247 q 211 206 286 206 q 51 351 51 206 l 51 365 q 99 485 51 446 q 224 524 146 524 q 348 485 301 524 q 394 365 394 446 l 394 154 q 219 -4 394 -4 q 96 34 140 -4 q 51 122 51 72 m 122 354 q 224 263 122 263 q 326 349 326 263 l 326 368 q 224 464 326 464 q 122 368 122 464 l 122 354 z "},"€":{"ha":808,"x_min":44,"x_max":743,"o":"m 54 360 q 49 366 54 360 q 44 386 44 371 q 54 413 44 401 q 79 424 64 424 l 165 424 l 165 557 l 79 557 q 54 567 64 557 q 44 593 44 578 q 54 619 44 608 q 79 631 64 631 l 165 631 l 165 719 q 244 944 165 872 q 453 1015 322 1015 q 663 948 583 1015 q 743 775 743 881 q 697 729 743 729 q 651 763 651 729 q 598 885 651 840 q 454 931 544 931 q 257 719 257 931 l 257 631 l 492 631 q 517 619 506 631 q 528 593 528 608 q 517 567 528 578 q 492 557 506 557 l 257 557 l 257 424 l 492 424 q 517 413 506 424 q 528 386 528 401 q 517 360 528 371 q 492 350 506 350 l 257 350 l 257 282 q 307 131 257 186 q 456 76 357 76 q 598 122 544 76 q 651 247 651 168 q 697 282 653 282 q 743 236 743 282 q 663 60 743 129 q 453 -8 583 -8 q 243 65 321 -8 q 165 282 165 138 l 165 350 l 79 350 q 54 360 64 350 z "},"™":{"ha":869,"x_min":58,"x_max":775,"o":"m 58 1036 q 81 1067 58 1067 l 354 1067 q 375 1036 375 1067 q 354 1004 375 1004 l 250 1004 l 250 681 q 218 657 250 657 q 183 681 183 657 l 183 1004 l 81 1004 q 58 1036 58 1004 m 413 681 l 413 1033 q 446 1067 413 1067 q 496 1025 478 1067 l 593 804 l 692 1025 q 742 1067 710 1067 q 775 1033 775 1067 l 775 681 q 742 657 775 657 q 710 681 710 657 l 710 928 l 617 718 q 593 700 608 700 q 571 718 576 700 l 478 931 l 478 681 q 446 657 478 657 q 413 681 413 657 z "},"Ω":{"ha":760,"x_min":75,"x_max":685,"o":"m 85 13 q 80 19 85 13 q 75 43 75 25 q 85 72 75 61 q 108 83 94 83 l 254 83 l 254 129 q 92 408 92 188 l 92 719 q 170 944 92 872 q 379 1015 249 1015 q 590 944 511 1015 q 668 719 668 872 l 668 408 q 506 129 668 189 l 506 83 l 650 83 q 674 72 664 83 q 685 43 685 60 q 675 13 685 25 q 650 0 665 0 l 439 0 l 439 203 q 576 408 576 233 l 576 719 q 379 931 576 931 q 183 719 183 931 l 183 408 q 319 203 183 228 l 319 0 l 108 0 q 85 13 94 0 z "},"℮":{"ha":754,"x_min":72,"x_max":690,"o":"m 72 292 l 72 371 q 167 578 72 490 q 390 665 261 665 q 601 593 513 665 q 690 413 690 521 q 681 352 690 375 q 652 319 672 329 q 616 308 632 310 q 571 306 600 306 l 225 306 l 225 254 q 278 114 225 165 q 424 63 331 63 q 539 78 493 63 q 607 110 585 94 q 640 125 629 125 q 663 110 653 125 q 672 82 672 96 q 655 53 672 69 q 606 24 638 38 q 526 0 575 10 q 422 -10 478 -10 q 169 74 267 -10 q 72 292 72 157 m 225 365 l 482 365 q 538 374 525 365 q 551 411 551 382 q 507 544 551 490 q 389 599 463 599 q 272 548 318 599 q 225 418 225 497 l 225 365 z "}}}
